<svg width="922" height="65" viewBox="0 0 922 65" fill="none" xmlns="http://www.w3.org/2000/svg">
<path d="M461 44.8C461 49.3 458.3 53.1 453.9 55.2L438 63.1L422.1 55.1C417.7 53.1 415 49.3 415 44.8" stroke="#0098FF" stroke-width="2" stroke-miterlimit="10" stroke-linecap="round" stroke-linejoin="round"/>
<path d="M415 8L438 1L461 8" stroke="#0098FF" stroke-width="2" stroke-miterlimit="10" stroke-linecap="round" stroke-linejoin="round"/>
<path d="M507 44.8C507 49.3 504.3 53.1 499.9 55.2L484 63.1L468.1 55.2C463.7 53.2 461 49.3 461 44.8" stroke="#0098FF" stroke-width="2" stroke-miterlimit="10" stroke-linecap="round" stroke-linejoin="round"/>
<path d="M461 8L484 1L507 8" stroke="#0098FF" stroke-width="2" stroke-miterlimit="10" stroke-linecap="round" stroke-linejoin="round"/>
<path d="M553 44.8C553 49.3 550.3 53.1 545.9 55.2L530 63.1L514.1 55.2C509.7 53.2 507 49.3 507 44.8" stroke="#0098FF" stroke-width="2" stroke-miterlimit="10" stroke-linecap="round" stroke-linejoin="round"/>
<path d="M507 8L530 1L553 8" stroke="#0098FF" stroke-width="2" stroke-miterlimit="10" stroke-linecap="round" stroke-linejoin="round"/>
<path d="M599 44.8C599 49.3 596.3 53.1 591.9 55.2L576 63.1L560.1 55.1C555.7 53.1 553 49.3 553 44.8" stroke="#0098FF" stroke-width="2" stroke-miterlimit="10" stroke-linecap="round" stroke-linejoin="round"/>
<path d="M553 8L576 1L599 8" stroke="#0098FF" stroke-width="2" stroke-miterlimit="10" stroke-linecap="round" stroke-linejoin="round"/>
<path d="M645 44.8C645 49.3 642.3 53.1 637.9 55.2L622 63.1L606.1 55.2C601.7 53.2 599 49.3 599 44.8" stroke="#0098FF" stroke-width="2" stroke-miterlimit="10" stroke-linecap="round" stroke-linejoin="round"/>
<path d="M599 8L622 1L645 8" stroke="#0098FF" stroke-width="2" stroke-miterlimit="10" stroke-linecap="round" stroke-linejoin="round"/>
<path d="M691 44.8C691 49.3 688.3 53.1 683.9 55.2L668 63.1L652.1 55.2C647.7 53.2 645 49.3 645 44.8" stroke="#0098FF" stroke-width="2" stroke-miterlimit="10" stroke-linecap="round" stroke-linejoin="round"/>
<path d="M645 8L668 1L691 8" stroke="#0098FF" stroke-width="2" stroke-miterlimit="10" stroke-linecap="round" stroke-linejoin="round"/>
<path d="M737 44.8C737 49.3 734.3 53.1 729.9 55.2L714 63.1L698.1 55.1C693.7 53.1 691 49.3 691 44.8" stroke="#0098FF" stroke-width="2" stroke-miterlimit="10" stroke-linecap="round" stroke-linejoin="round"/>
<path d="M691 8L714 1L737 8" stroke="#0098FF" stroke-width="2" stroke-miterlimit="10" stroke-linecap="round" stroke-linejoin="round"/>
<path d="M783 44.8C783 49.3 780.3 53.1 775.9 55.2L760 63.1L744.1 55.2C739.7 53.2 737 49.3 737 44.8" stroke="#0098FF" stroke-width="2" stroke-miterlimit="10" stroke-linecap="round" stroke-linejoin="round"/>
<path d="M737 8L760 1L783 8" stroke="#0098FF" stroke-width="2" stroke-miterlimit="10" stroke-linecap="round" stroke-linejoin="round"/>
<path d="M829 44.8C829 49.3 826.3 53.1 821.9 55.2L806 63.1L790.1 55.2C785.7 53.2 783 49.3 783 44.8" stroke="#0098FF" stroke-width="2" stroke-miterlimit="10" stroke-linecap="round" stroke-linejoin="round"/>
<path d="M783 8L806 1L829 8" stroke="#0098FF" stroke-width="2" stroke-miterlimit="10" stroke-linecap="round" stroke-linejoin="round"/>
<path d="M875 44.8C875 49.3 872.3 53.1 867.9 55.2L852 63.1L836.1 55.1C831.7 53.1 829 49.3 829 44.8" stroke="#0098FF" stroke-width="2" stroke-miterlimit="10" stroke-linecap="round" stroke-linejoin="round"/>
<path d="M829 8L852 1L875 8" stroke="#0098FF" stroke-width="2" stroke-miterlimit="10" stroke-linecap="round" stroke-linejoin="round"/>
<path d="M921 44.8C921 49.3 918.3 53.1 913.9 55.2L898 63.1L882.1 55.2C877.7 53.2 875 49.3 875 44.8" stroke="#0098FF" stroke-width="2" stroke-miterlimit="10" stroke-linecap="round" stroke-linejoin="round"/>
<path d="M875 8L898 1L921 8V45" stroke="#0098FF" stroke-width="2" stroke-miterlimit="10" stroke-linecap="round" stroke-linejoin="round"/>
<path d="M185 44.8C185 49.3 182.3 53.1 177.9 55.2L162 63.1L146.1 55.1C141.7 53.1 139 49.3 139 44.8" stroke="#0098FF" stroke-width="2" stroke-miterlimit="10" stroke-linecap="round" stroke-linejoin="round"/>
<path d="M139 8L162 1L185 8" stroke="#0098FF" stroke-width="2" stroke-miterlimit="10" stroke-linecap="round" stroke-linejoin="round"/>
<path d="M231 44.8C231 49.3 228.3 53.1 223.9 55.2L208 63.1L192.1 55.2C187.7 53.2 185 49.3 185 44.8" stroke="#0098FF" stroke-width="2" stroke-miterlimit="10" stroke-linecap="round" stroke-linejoin="round"/>
<path d="M185 8L208 1L231 8" stroke="#0098FF" stroke-width="2" stroke-miterlimit="10" stroke-linecap="round" stroke-linejoin="round"/>
<path d="M277 44.8C277 49.3 274.3 53.1 269.9 55.2L254 63.1L238.1 55.2C233.7 53.2 231 49.3 231 44.8" stroke="#0098FF" stroke-width="2" stroke-miterlimit="10" stroke-linecap="round" stroke-linejoin="round"/>
<path d="M231 8L254 1L277 8" stroke="#0098FF" stroke-width="2" stroke-miterlimit="10" stroke-linecap="round" stroke-linejoin="round"/>
<path d="M47 44.8C47 49.3 44.3 53.1 39.9 55.2L24 63.1L8.1 55.1C3.7 53.1 1 49.3 1 44.8" stroke="#0098FF" stroke-width="2" stroke-miterlimit="10" stroke-linecap="round" stroke-linejoin="round"/>
<path d="M1 8L24 1L47 8" stroke="#0098FF" stroke-width="2" stroke-miterlimit="10" stroke-linecap="round" stroke-linejoin="round"/>
<path d="M93 44.8C93 49.3 90.3 53.1 85.9 55.2L70 63.1L54.1 55.2C49.7 53.2 47 49.3 47 44.8" stroke="#0098FF" stroke-width="2" stroke-miterlimit="10" stroke-linecap="round" stroke-linejoin="round"/>
<path d="M47 8L70 1L93 8" stroke="#0098FF" stroke-width="2" stroke-miterlimit="10" stroke-linecap="round" stroke-linejoin="round"/>
<path d="M139 44.8C139 49.3 136.3 53.1 131.9 55.2L116 63.1L100.1 55.2C95.7 53.2 93 49.3 93 44.8" stroke="#0098FF" stroke-width="2" stroke-miterlimit="10" stroke-linecap="round" stroke-linejoin="round"/>
<path d="M93 8L116 1L139 8" stroke="#0098FF" stroke-width="2" stroke-miterlimit="10" stroke-linecap="round" stroke-linejoin="round"/>
<path d="M323 44.8C323 49.3 320.3 53.1 315.9 55.2L300 63.1L284.1 55.1C279.7 53.1 277 49.3 277 44.8" stroke="#0098FF" stroke-width="2" stroke-miterlimit="10" stroke-linecap="round" stroke-linejoin="round"/>
<path d="M277 8L300 1L323 8" stroke="#0098FF" stroke-width="2" stroke-miterlimit="10" stroke-linecap="round" stroke-linejoin="round"/>
<path d="M369 44.8C369 49.3 366.3 53.1 361.9 55.2L346 63.1L330.1 55.2C325.7 53.2 323 49.3 323 44.8" stroke="#0098FF" stroke-width="2" stroke-miterlimit="10" stroke-linecap="round" stroke-linejoin="round"/>
<path d="M323 8L346 1L369 8" stroke="#0098FF" stroke-width="2" stroke-miterlimit="10" stroke-linecap="round" stroke-linejoin="round"/>
<path d="M415 44.8C415 49.3 412.3 53.1 407.9 55.2L392 63.1L376.1 55.2C371.7 53.2 369 49.3 369 44.8" stroke="#0098FF" stroke-width="2" stroke-miterlimit="10" stroke-linecap="round" stroke-linejoin="round"/>
<path d="M369 8L392 1L415 8" stroke="#0098FF" stroke-width="2" stroke-miterlimit="10" stroke-linecap="round" stroke-linejoin="round"/>
<path d="M461 44.8C461 49.3 458.3 53.1 453.9 55.2L438 63.1L422.1 55.1C417.7 53.1 415 49.3 415 44.8" stroke="#0098FF" stroke-width="2" stroke-miterlimit="10" stroke-linecap="round" stroke-linejoin="round"/>
<path d="M415 8L438 1L461 8" stroke="#0098FF" stroke-width="2" stroke-miterlimit="10" stroke-linecap="round" stroke-linejoin="round"/>
</svg>
