<svg xmlns="http://www.w3.org/2000/svg" viewBox="0 0 1298 64"><defs><style>.cls-1{fill:#9fea00;}</style></defs><title>Asset 9</title><g id="Layer_2" data-name="Layer 2"><g id="Layer_1-2" data-name="Layer 1"><path class="cls-1" d="M264,25a1,1,0,0,1,2,0V39a1,1,0,0,1-2,0Zm6-4.94a1,1,0,1,1,1.4-1.44A8.94,8.94,0,0,1,272.48,20a8,8,0,0,1,.84,1.54,8.61,8.61,0,0,1,.53,1.72A8.92,8.92,0,0,1,274,25V39a9.36,9.36,0,0,1-.18,1.82,8.77,8.77,0,0,1-.53,1.67,8,8,0,0,1-.82,1.53A8.78,8.78,0,0,1,270,46.45a8,8,0,0,1-1.54.84,8.84,8.84,0,0,1-1.7.53A9,9,0,0,1,265,48a9.36,9.36,0,0,1-1.82-.18,8.77,8.77,0,0,1-1.67-.53,8,8,0,0,1-1.53-.82A8.78,8.78,0,0,1,257.55,44a8,8,0,0,1-.84-1.54,8.84,8.84,0,0,1-.53-1.7A9,9,0,0,1,256,39V26.75a1,1,0,0,1,2,0V39a7.23,7.23,0,0,0,.14,1.4,6.83,6.83,0,0,0,.41,1.33,7,7,0,0,0,.66,1.19,6.55,6.55,0,0,0,1.89,1.89,7.05,7.05,0,0,0,1.18.64,6.76,6.76,0,0,0,1.3.41A7.59,7.59,0,0,0,265,46a7.23,7.23,0,0,0,1.4-.14,6.83,6.83,0,0,0,1.33-.41,7,7,0,0,0,1.19-.66,6.55,6.55,0,0,0,1.89-1.89,7.05,7.05,0,0,0,.64-1.18,6.76,6.76,0,0,0,.41-1.3A7.59,7.59,0,0,0,272,39V25a6.93,6.93,0,0,0-.11-1.39,7,7,0,0,0-.41-1.33,7.17,7.17,0,0,0-.65-1.18A6.09,6.09,0,0,0,270,20.06Zm-11.41,2.21a1,1,0,0,1-1.84-.76,8,8,0,0,1,.82-1.53A8.78,8.78,0,0,1,260,17.55a8,8,0,0,1,1.54-.84,8.84,8.84,0,0,1,1.7-.53A9,9,0,0,1,265,16a9.36,9.36,0,0,1,1.82.18,9.1,9.1,0,0,1,1.68.53,1,1,0,0,1-.78,1.84,6.76,6.76,0,0,0-1.3-.41A7.59,7.59,0,0,0,265,18a7.23,7.23,0,0,0-1.4.14,6.83,6.83,0,0,0-1.33.41,7,7,0,0,0-1.19.66,6.55,6.55,0,0,0-1.89,1.89A7.37,7.37,0,0,0,258.55,22.27ZM280,28.5a1,1,0,0,1,2,0V39a17,17,0,0,1-.35,3.42,16.72,16.72,0,0,1-1,3.18,17.38,17.38,0,0,1-1.57,2.95,1,1,0,0,1-1.66-1.1,15.57,15.57,0,0,0,1.38-2.62,13.66,13.66,0,0,0,.87-2.81,14.67,14.67,0,0,0,.31-3Zm-6.56,22.94a1,1,0,0,1,1.12,1.66,17.5,17.5,0,0,1-2.89,1.56A17.06,17.06,0,0,1,265,56a17,17,0,0,1-3.42-.35,16.36,16.36,0,0,1-3.19-1,17.31,17.31,0,0,1-2.9-1.57A16.87,16.87,0,0,1,253,51a1,1,0,1,1,1.44-1.4,14,14,0,0,0,2.2,1.87,15.3,15.3,0,0,0,2.55,1.38,13.66,13.66,0,0,0,2.81.87,14.7,14.7,0,0,0,3,.31,14.41,14.41,0,0,0,3.07-.31,13.66,13.66,0,0,0,2.81-.87A15.3,15.3,0,0,0,273.44,51.44Zm-22.26-6.6a1,1,0,0,1-1.84.78,16.48,16.48,0,0,1-1-3.18A16.67,16.67,0,0,1,248,39V25a17,17,0,0,1,.35-3.42,16.36,16.36,0,0,1,1-3.19,17.31,17.31,0,0,1,1.57-2.9A16.87,16.87,0,0,1,253,13a1,1,0,1,1,1.4,1.44,14,14,0,0,0-1.87,2.2,15.3,15.3,0,0,0-1.38,2.55,13.56,13.56,0,0,0-.87,2.82,14.51,14.51,0,0,0-.31,3V39a14.7,14.7,0,0,0,.31,3A13.66,13.66,0,0,0,251.18,44.84ZM262,10.31a1,1,0,0,1-.4-2,16.88,16.88,0,0,1,6.84,0,16.72,16.72,0,0,1,3.18,1,16.68,16.68,0,0,1,7.55,6.16,17.5,17.5,0,0,1,1.56,2.89,16.36,16.36,0,0,1,1,3.19,1,1,0,1,1-2,.4,13.66,13.66,0,0,0-.87-2.81,15.5,15.5,0,0,0-1.37-2.54,15.79,15.79,0,0,0-4.05-4.06,15.57,15.57,0,0,0-2.62-1.38,13.66,13.66,0,0,0-2.81-.87,14.87,14.87,0,0,0-6,0Zm24.21,37.62a1,1,0,0,1,1.84.78A24.84,24.84,0,0,1,285.72,53,25.35,25.35,0,0,1,279,59.72,24.89,24.89,0,0,1,255.29,62a24.37,24.37,0,0,1-4.23-2.31,24.91,24.91,0,0,1-3.71-3,1,1,0,1,1,1.4-1.42,24.08,24.08,0,0,0,3.42,2.77,23.42,23.42,0,0,0,3.9,2.13,22.93,22.93,0,0,0,17.86,0,23.32,23.32,0,0,0,12.26-12.26ZM243.81,16.07a1,1,0,1,1-1.84-.78,25.25,25.25,0,0,1,9.08-11,1,1,0,1,1,1.12,1.66,23.32,23.32,0,0,0-8.36,10.13Zm16.57-13.6a1,1,0,0,1-.4-2A24.93,24.93,0,0,1,274.71,2a1,1,0,0,1-.78,1.84,22.94,22.94,0,0,0-13.55-1.34Zm23.68,9.7a1,1,0,1,1,1.66-1.12A25.22,25.22,0,0,1,288,15.29,24.89,24.89,0,0,1,290,25V39a1,1,0,0,1-2,0V25a23,23,0,0,0-1.81-8.93A23.42,23.42,0,0,0,284.06,12.17ZM216,25a1,1,0,0,1,2,0V39a1,1,0,0,1-2,0Zm-6,3.5a1,1,0,0,1-2,0V25a9.36,9.36,0,0,1,.18-1.82,8.77,8.77,0,0,1,.53-1.67,8,8,0,0,1,.82-1.53A8.78,8.78,0,0,1,212,17.55a8,8,0,0,1,1.54-.84,8.84,8.84,0,0,1,1.7-.53,9.09,9.09,0,0,1,3.6,0,1,1,0,1,1-.38,2A7.59,7.59,0,0,0,217,18a7.23,7.23,0,0,0-1.4.14,6.83,6.83,0,0,0-1.33.41,7,7,0,0,0-1.19.66,6.55,6.55,0,0,0-1.89,1.89,7.08,7.08,0,0,0-1.05,2.48A7.59,7.59,0,0,0,210,25Zm10.92-9.29a1,1,0,0,1-.29-1.39,1,1,0,0,1,1.39-.28A8.62,8.62,0,0,1,224.45,20a8,8,0,0,1,.84,1.54,8.84,8.84,0,0,1,.53,1.7A9,9,0,0,1,226,25v8.75a1,1,0,0,1-2,0V25a7.23,7.23,0,0,0-.14-1.4,6.65,6.65,0,0,0-1.07-2.52A6.41,6.41,0,0,0,220.92,19.21ZM224,39a1,1,0,0,1,2,0,9.36,9.36,0,0,1-.18,1.82,8.77,8.77,0,0,1-.53,1.67,8,8,0,0,1-.82,1.53A8.78,8.78,0,0,1,222,46.45a8,8,0,0,1-1.54.84,8.84,8.84,0,0,1-1.7.53A9,9,0,0,1,217,48a9.36,9.36,0,0,1-1.82-.18,8.77,8.77,0,0,1-1.67-.53,8,8,0,0,1-1.53-.82A8.78,8.78,0,0,1,209.55,44a8,8,0,0,1-.84-1.54,8.84,8.84,0,0,1-.53-1.7A9,9,0,0,1,208,39V33.75a1,1,0,0,1,2,0V39a7.23,7.23,0,0,0,.14,1.4,6.83,6.83,0,0,0,.41,1.33,7,7,0,0,0,.66,1.19,6.55,6.55,0,0,0,1.89,1.89,7.05,7.05,0,0,0,1.18.64,6.76,6.76,0,0,0,1.3.41A7.59,7.59,0,0,0,217,46a7.23,7.23,0,0,0,1.4-.14,6.83,6.83,0,0,0,1.33-.41,7,7,0,0,0,1.19-.66,6.55,6.55,0,0,0,1.89-1.89,7.05,7.05,0,0,0,.64-1.18,6.76,6.76,0,0,0,.41-1.3A7.59,7.59,0,0,0,224,39Zm3.59,10.61A1,1,0,1,1,229,51a17.11,17.11,0,0,1-2.52,2.13,17.5,17.5,0,0,1-2.89,1.56,16.24,16.24,0,0,1-3.2,1A16.43,16.43,0,0,1,217,56a17,17,0,0,1-3.42-.35,16.36,16.36,0,0,1-3.19-1,17.5,17.5,0,0,1-2.89-1.56,17.73,17.73,0,0,1-4.6-4.54,17.5,17.5,0,0,1-1.56-2.89,1,1,0,1,1,1.84-.78,15.5,15.5,0,0,0,1.37,2.54,15.67,15.67,0,0,0,4.07,4,15.3,15.3,0,0,0,2.55,1.38,13.66,13.66,0,0,0,2.81.87,14.7,14.7,0,0,0,3,.31,14.51,14.51,0,0,0,3-.27,13.66,13.66,0,0,0,2.81-.87,15.5,15.5,0,0,0,2.54-1.37A14.18,14.18,0,0,0,227.59,49.61ZM202,39a1,1,0,0,1-2,0V25a17,17,0,0,1,.35-3.42,16.36,16.36,0,0,1,1-3.19,17.31,17.31,0,0,1,1.57-2.9,17.81,17.81,0,0,1,4.58-4.58,17.5,17.5,0,0,1,2.89-1.56A17.21,17.21,0,0,1,217,8a17,17,0,0,1,3.42.35,1,1,0,0,1-.4,2,14.68,14.68,0,0,0-6.05,0,13.66,13.66,0,0,0-2.81.87,15.5,15.5,0,0,0-2.54,1.37,15.67,15.67,0,0,0-4.06,4.06,15.3,15.3,0,0,0-1.38,2.55,13.56,13.56,0,0,0-.87,2.82,14.51,14.51,0,0,0-.31,3Zm23.43-26.45a1,1,0,1,1,1.14-1.64,17.81,17.81,0,0,1,4.58,4.58,17.5,17.5,0,0,1,1.56,2.89,16.24,16.24,0,0,1,1,3.2A16.42,16.42,0,0,1,234,25V39a17,17,0,0,1-.35,3.42,16.36,16.36,0,0,1-1,3.19,1,1,0,1,1-1.84-.78,13.66,13.66,0,0,0,.87-2.81,14.67,14.67,0,0,0,.31-3V25a14.46,14.46,0,0,0-.26-3,13.66,13.66,0,0,0-.87-2.81,15.5,15.5,0,0,0-1.37-2.54A15.75,15.75,0,0,0,225.43,12.55ZM200.76,8.76a1,1,0,0,1-1.42-1.42,25.9,25.9,0,0,1,3.71-3.06,24.84,24.84,0,0,1,27.9,0,25.35,25.35,0,0,1,6.77,6.77,1,1,0,1,1-1.66,1.12,23.32,23.32,0,0,0-10.13-8.36,22.93,22.93,0,0,0-17.86,0,23.42,23.42,0,0,0-3.9,2.13A23,23,0,0,0,200.76,8.76Zm29.07,49.3A1,1,0,0,1,231,59.72a24.84,24.84,0,0,1-27.9,0,1,1,0,0,1,1.12-1.66,23.42,23.42,0,0,0,3.9,2.13,22.93,22.93,0,0,0,17.86,0A23.42,23.42,0,0,0,229.83,58.06ZM168,25a1,1,0,0,1,2,0v5.25a1,1,0,0,1-2,0Zm0,10.5a1,1,0,0,1,2,0V39a1,1,0,0,1-2,0Zm8,0a1,1,0,0,1,2,0V39a9.36,9.36,0,0,1-.18,1.82,8.77,8.77,0,0,1-.53,1.67,8,8,0,0,1-.82,1.53A8.78,8.78,0,0,1,174,46.45a8,8,0,0,1-1.54.84,8.84,8.84,0,0,1-1.7.53A9,9,0,0,1,169,48a9.36,9.36,0,0,1-1.82-.18,8.77,8.77,0,0,1-1.67-.53,8,8,0,0,1-1.53-.82A8.78,8.78,0,0,1,161.55,44a8,8,0,0,1-.84-1.54,8.84,8.84,0,0,1-.53-1.7A9,9,0,0,1,160,39V35.5a1,1,0,0,1,2,0V39a7.23,7.23,0,0,0,.14,1.4,6.83,6.83,0,0,0,.41,1.33,7,7,0,0,0,.66,1.19,6.55,6.55,0,0,0,1.89,1.89,7.05,7.05,0,0,0,1.18.64,6.76,6.76,0,0,0,1.3.41A7.59,7.59,0,0,0,169,46a7.23,7.23,0,0,0,1.4-.14,6.83,6.83,0,0,0,1.33-.41,7,7,0,0,0,1.19-.66,6.55,6.55,0,0,0,1.89-1.89,7.05,7.05,0,0,0,.64-1.18,6.76,6.76,0,0,0,.41-1.3A7.59,7.59,0,0,0,176,39Zm-14-5.25a1,1,0,0,1-2,0V25a9.36,9.36,0,0,1,.18-1.82,8.77,8.77,0,0,1,.53-1.67,8,8,0,0,1,.82-1.53A8.78,8.78,0,0,1,164,17.55a8,8,0,0,1,1.54-.84,8.84,8.84,0,0,1,1.7-.53A9,9,0,0,1,169,16a9.36,9.36,0,0,1,1.82.18,8.77,8.77,0,0,1,1.67.53,7.51,7.51,0,0,1,1.53.83A8.62,8.62,0,0,1,176.45,20a8,8,0,0,1,.84,1.54,8.84,8.84,0,0,1,.53,1.7A9,9,0,0,1,178,25v7a1,1,0,0,1-2,0V25a7.23,7.23,0,0,0-.14-1.4,6.65,6.65,0,0,0-1.07-2.52,6.55,6.55,0,0,0-1.89-1.89,7.05,7.05,0,0,0-1.18-.64,6.76,6.76,0,0,0-1.3-.41A7.59,7.59,0,0,0,169,18a7.23,7.23,0,0,0-1.4.14,6.83,6.83,0,0,0-1.33.41,7,7,0,0,0-1.19.66,6.55,6.55,0,0,0-1.89,1.89,7.08,7.08,0,0,0-1.05,2.48A7.59,7.59,0,0,0,162,25ZM184,32a1,1,0,0,1,2,0v7a17,17,0,0,1-.35,3.42,16.72,16.72,0,0,1-1,3.18,16.71,16.71,0,0,1-9,9.06,1,1,0,1,1-.78-1.84,15.5,15.5,0,0,0,2.54-1.37,16,16,0,0,0,4-4,15.57,15.57,0,0,0,1.38-2.62,13.66,13.66,0,0,0,.87-2.81,14.67,14.67,0,0,0,.31-3ZM169,54a1,1,0,0,1,0,2,17,17,0,0,1-3.42-.35,16.36,16.36,0,0,1-3.19-1,17.31,17.31,0,0,1-2.9-1.57A16.87,16.87,0,0,1,157,51a1,1,0,1,1,1.44-1.4,14,14,0,0,0,2.2,1.87,15.3,15.3,0,0,0,2.55,1.38,13.66,13.66,0,0,0,2.81.87A14.67,14.67,0,0,0,169,54Zm-13.82-9.16a1,1,0,1,1-1.84.78,16.48,16.48,0,0,1-1-3.18A16.67,16.67,0,0,1,152,39V25a17,17,0,0,1,.35-3.42,16.36,16.36,0,0,1,1-3.19,17.31,17.31,0,0,1,1.57-2.9,17.81,17.81,0,0,1,4.58-4.58,17.5,17.5,0,0,1,2.89-1.56A17.21,17.21,0,0,1,169,8a17,17,0,0,1,3.42.35,16.72,16.72,0,0,1,3.18,1,16.68,16.68,0,0,1,7.55,6.16,17.5,17.5,0,0,1,1.56,2.89,16.24,16.24,0,0,1,1,3.2A16.49,16.49,0,0,1,186,25a1,1,0,1,1-2,0,14.46,14.46,0,0,0-.26-3,13.66,13.66,0,0,0-.87-2.81,15.5,15.5,0,0,0-1.37-2.54,15.79,15.79,0,0,0-4.05-4.06,15.57,15.57,0,0,0-2.62-1.38,13.66,13.66,0,0,0-2.81-.87,14.68,14.68,0,0,0-6.05,0,13.66,13.66,0,0,0-2.81.87,15.5,15.5,0,0,0-2.54,1.37,15.67,15.67,0,0,0-4.06,4.06,15.3,15.3,0,0,0-1.38,2.55,13.56,13.56,0,0,0-.87,2.82,14.51,14.51,0,0,0-.31,3V39a14.7,14.7,0,0,0,.31,3A13.66,13.66,0,0,0,155.18,44.84Zm32.88,7A1,1,0,1,1,189.72,53,25.35,25.35,0,0,1,183,59.72,24.79,24.79,0,0,1,169,64a1,1,0,0,1,0-2,22.84,22.84,0,0,0,8.93-1.81,23.32,23.32,0,0,0,10.13-8.36Zm-28,8.36a1,1,0,1,1-.78,1.84,24.84,24.84,0,0,1-4.24-2.31A25.35,25.35,0,0,1,148.28,53,24.79,24.79,0,0,1,144,39V25a24.89,24.89,0,0,1,2-9.71,1,1,0,1,1,1.84.78A23,23,0,0,0,146,25V39a23,23,0,0,0,1.81,8.93,23.32,23.32,0,0,0,12.26,12.26ZM152.76,8.76a1,1,0,0,1-1.42-1.42,25.9,25.9,0,0,1,3.71-3.06A24.89,24.89,0,0,1,178.71,2a24.37,24.37,0,0,1,4.23,2.31,25.14,25.14,0,0,1,3.76,3.06,1,1,0,0,1-1.4,1.42,23,23,0,0,0-3.47-2.82,23.42,23.42,0,0,0-3.9-2.13,22.93,22.93,0,0,0-17.86,0,23.42,23.42,0,0,0-3.9,2.13A23,23,0,0,0,152.76,8.76ZM193,18a24.47,24.47,0,0,1,1-2.72,1,1,0,1,1,1.84.78A23,23,0,0,0,194,25h0V39h0a23,23,0,0,0,1.81,8.93,23.42,23.42,0,0,0,2.13,3.9A1,1,0,0,1,196.28,53,24.79,24.79,0,0,1,192,39V25h0a23,23,0,0,0-1.81-8.92,1,1,0,0,1,1.84-.78A24.47,24.47,0,0,1,193,18Zm49,21a22.94,22.94,0,0,0,1.81,8.92,1,1,0,0,1-1.84.78A24.47,24.47,0,0,1,241,46a24.47,24.47,0,0,1-1,2.72,25,25,0,0,1-2.3,4.23,26.53,26.53,0,0,1-3,3.76,1,1,0,1,1-1.44-1.4,25.35,25.35,0,0,0,4.91-7.37A22.94,22.94,0,0,0,240,39h0V25h0a23.14,23.14,0,0,0-.47-4.62,1,1,0,0,1,2-.4,24.86,24.86,0,0,1,.51,5V39Z"/><path class="cls-1" d="M120,25a1,1,0,0,1,2,0V39a1,1,0,0,1-2,0Zm6-4.94a1,1,0,1,1,1.4-1.44A8.94,8.94,0,0,1,128.48,20a8,8,0,0,1,.84,1.54,8.61,8.61,0,0,1,.53,1.72A8.92,8.92,0,0,1,130,25V39a9.36,9.36,0,0,1-.18,1.82,8.77,8.77,0,0,1-.53,1.67,8,8,0,0,1-.82,1.53A8.78,8.78,0,0,1,126,46.45a8,8,0,0,1-1.54.84,8.84,8.84,0,0,1-1.7.53A9,9,0,0,1,121,48a9.36,9.36,0,0,1-1.82-.18,8.77,8.77,0,0,1-1.67-.53,8,8,0,0,1-1.53-.82A8.78,8.78,0,0,1,113.55,44a8,8,0,0,1-.84-1.54,8.84,8.84,0,0,1-.53-1.7A9,9,0,0,1,112,39V26.75a1,1,0,0,1,2,0V39a7.23,7.23,0,0,0,.14,1.4,6.83,6.83,0,0,0,.41,1.33,7,7,0,0,0,.66,1.19,6.55,6.55,0,0,0,1.89,1.89,7.05,7.05,0,0,0,1.18.64,6.76,6.76,0,0,0,1.3.41A7.59,7.59,0,0,0,121,46a7.23,7.23,0,0,0,1.4-.14,6.83,6.83,0,0,0,1.33-.41,7,7,0,0,0,1.19-.66,6.55,6.55,0,0,0,1.89-1.89,7.05,7.05,0,0,0,.64-1.18,6.76,6.76,0,0,0,.41-1.3A7.59,7.59,0,0,0,128,39V25a6.93,6.93,0,0,0-.11-1.39,7,7,0,0,0-.41-1.33,7.17,7.17,0,0,0-.65-1.18A6.09,6.09,0,0,0,126,20.06Zm-11.41,2.21a1,1,0,1,1-1.84-.76,8,8,0,0,1,.82-1.53A8.78,8.78,0,0,1,116,17.55a8,8,0,0,1,1.54-.84,8.84,8.84,0,0,1,1.7-.53A9,9,0,0,1,121,16a9.36,9.36,0,0,1,1.82.18,9.1,9.1,0,0,1,1.68.53,1,1,0,1,1-.78,1.84,6.76,6.76,0,0,0-1.3-.41A7.59,7.59,0,0,0,121,18a7.23,7.23,0,0,0-1.4.14,6.83,6.83,0,0,0-1.33.41,7,7,0,0,0-1.19.66,6.55,6.55,0,0,0-1.89,1.89A7.37,7.37,0,0,0,114.55,22.27ZM136,28.5a1,1,0,0,1,2,0V39a17,17,0,0,1-.35,3.42,16.72,16.72,0,0,1-1,3.18,17.38,17.38,0,0,1-1.57,2.95,1,1,0,1,1-1.66-1.1,15.57,15.57,0,0,0,1.38-2.62,13.66,13.66,0,0,0,.87-2.81,14.67,14.67,0,0,0,.31-3Zm-6.56,22.94a1,1,0,0,1,1.12,1.66,17.5,17.5,0,0,1-2.89,1.56A17.06,17.06,0,0,1,121,56a17,17,0,0,1-3.42-.35,16.36,16.36,0,0,1-3.19-1,17.31,17.31,0,0,1-2.9-1.57A16.87,16.87,0,0,1,109,51a1,1,0,1,1,1.44-1.4,14,14,0,0,0,2.2,1.87,15.3,15.3,0,0,0,2.55,1.38,13.66,13.66,0,0,0,2.81.87,14.7,14.7,0,0,0,3,.31,14.41,14.41,0,0,0,3.07-.31,13.66,13.66,0,0,0,2.81-.87A15.3,15.3,0,0,0,129.44,51.44Zm-22.26-6.6a1,1,0,1,1-1.84.78,16.48,16.48,0,0,1-1-3.18A16.67,16.67,0,0,1,104,39V25a17,17,0,0,1,.35-3.42,16.36,16.36,0,0,1,1-3.19,17.31,17.31,0,0,1,1.57-2.9A16.87,16.87,0,0,1,109,13a1,1,0,0,1,1.4,1.44,14,14,0,0,0-1.87,2.2,15.3,15.3,0,0,0-1.38,2.55,13.56,13.56,0,0,0-.87,2.82,14.51,14.51,0,0,0-.31,3V39a14.7,14.7,0,0,0,.31,3A13.66,13.66,0,0,0,107.18,44.84ZM118,10.31a1,1,0,1,1-.4-2,16.88,16.88,0,0,1,6.84,0,16.72,16.72,0,0,1,3.18,1,16.68,16.68,0,0,1,7.55,6.16,17.5,17.5,0,0,1,1.56,2.89,16.36,16.36,0,0,1,1,3.19,1,1,0,0,1-2,.4,13.66,13.66,0,0,0-.87-2.81,15.5,15.5,0,0,0-1.37-2.54,15.79,15.79,0,0,0-4.05-4.06,15.57,15.57,0,0,0-2.62-1.38,13.66,13.66,0,0,0-2.81-.87,14.87,14.87,0,0,0-6,0Zm24.21,37.62a1,1,0,1,1,1.84.78A24.84,24.84,0,0,1,141.72,53,25.35,25.35,0,0,1,135,59.72,24.89,24.89,0,0,1,111.29,62a24.37,24.37,0,0,1-4.23-2.31,24.91,24.91,0,0,1-3.71-3,1,1,0,0,1,1.4-1.42,24.08,24.08,0,0,0,3.42,2.77,23.42,23.42,0,0,0,3.9,2.13,22.93,22.93,0,0,0,17.86,0,23.32,23.32,0,0,0,12.26-12.26ZM99.81,16.07A1,1,0,0,1,98,15.29a25.25,25.25,0,0,1,9.08-11,1,1,0,1,1,1.12,1.66,23.32,23.32,0,0,0-8.36,10.13Zm16.57-13.6a1,1,0,0,1-.4-2A24.93,24.93,0,0,1,130.71,2a1,1,0,1,1-.78,1.84,22.94,22.94,0,0,0-13.55-1.34Zm23.68,9.7a1,1,0,0,1,1.66-1.12A25.22,25.22,0,0,1,144,15.29,24.89,24.89,0,0,1,146,25V39a1,1,0,0,1-2,0V25a23,23,0,0,0-1.81-8.93A23.42,23.42,0,0,0,140.06,12.17ZM72,25a1,1,0,0,1,2,0V39a1,1,0,0,1-2,0Zm-6,3.5a1,1,0,0,1-2,0V25a9.36,9.36,0,0,1,.18-1.82,8.77,8.77,0,0,1,.53-1.67A8,8,0,0,1,65.53,20,8.78,8.78,0,0,1,68,17.55a8,8,0,0,1,1.54-.84,8.84,8.84,0,0,1,1.7-.53,9.09,9.09,0,0,1,3.6,0,1,1,0,0,1-.38,2A7.59,7.59,0,0,0,73,18a7.23,7.23,0,0,0-1.4.14,6.83,6.83,0,0,0-1.33.41,7,7,0,0,0-1.19.66,6.55,6.55,0,0,0-1.89,1.89,7.08,7.08,0,0,0-1,2.48A7.59,7.59,0,0,0,66,25Zm10.92-9.29a1,1,0,0,1-.29-1.39A1,1,0,0,1,78,17.54,8.62,8.62,0,0,1,80.45,20a8,8,0,0,1,.84,1.54,8.84,8.84,0,0,1,.53,1.7A9,9,0,0,1,82,25v8.75a1,1,0,0,1-2,0V25a7.23,7.23,0,0,0-.14-1.4,6.65,6.65,0,0,0-1.07-2.52A6.41,6.41,0,0,0,76.92,19.21ZM80,39a1,1,0,0,1,2,0,9.36,9.36,0,0,1-.18,1.82,8.77,8.77,0,0,1-.53,1.67A8,8,0,0,1,80.47,44,8.78,8.78,0,0,1,78,46.45a8,8,0,0,1-1.54.84,8.84,8.84,0,0,1-1.7.53A9,9,0,0,1,73,48a9.36,9.36,0,0,1-1.82-.18,8.77,8.77,0,0,1-1.67-.53A8,8,0,0,1,68,46.47,8.78,8.78,0,0,1,65.55,44a8,8,0,0,1-.84-1.54,8.84,8.84,0,0,1-.53-1.7A9,9,0,0,1,64,39V33.75a1,1,0,0,1,2,0V39a7.23,7.23,0,0,0,.14,1.4,6.83,6.83,0,0,0,.41,1.33,7,7,0,0,0,.66,1.19,6.55,6.55,0,0,0,1.89,1.89,7.05,7.05,0,0,0,1.18.64,6.76,6.76,0,0,0,1.3.41A7.59,7.59,0,0,0,73,46a7.23,7.23,0,0,0,1.4-.14,6.83,6.83,0,0,0,1.33-.41,7,7,0,0,0,1.19-.66,6.55,6.55,0,0,0,1.89-1.89,7.05,7.05,0,0,0,.64-1.18,6.76,6.76,0,0,0,.41-1.3A7.59,7.59,0,0,0,80,39Zm3.59,10.61A1,1,0,0,1,85,51a17.11,17.11,0,0,1-2.52,2.13,17.5,17.5,0,0,1-2.89,1.56,16.24,16.24,0,0,1-3.2,1A16.43,16.43,0,0,1,73,56a17,17,0,0,1-3.42-.35,16.36,16.36,0,0,1-3.19-1A17.5,17.5,0,0,1,63.5,53.1a17.73,17.73,0,0,1-4.6-4.54,17.5,17.5,0,0,1-1.56-2.89,1,1,0,0,1,1.84-.78,15.5,15.5,0,0,0,1.37,2.54,15.67,15.67,0,0,0,4.07,4,15.3,15.3,0,0,0,2.55,1.38,13.66,13.66,0,0,0,2.81.87A14.7,14.7,0,0,0,73,54a14.51,14.51,0,0,0,3-.27,13.66,13.66,0,0,0,2.81-.87,15.5,15.5,0,0,0,2.54-1.37A14.18,14.18,0,0,0,83.59,49.61ZM58,39a1,1,0,0,1-2,0V25a17,17,0,0,1,.35-3.42,16.36,16.36,0,0,1,1-3.19,17.31,17.31,0,0,1,1.57-2.9,17.81,17.81,0,0,1,4.58-4.58,17.5,17.5,0,0,1,2.89-1.56A17.21,17.21,0,0,1,73,8a17,17,0,0,1,3.42.35,1,1,0,0,1-.4,2,14.68,14.68,0,0,0-6,0,13.66,13.66,0,0,0-2.81.87,15.5,15.5,0,0,0-2.54,1.37,15.67,15.67,0,0,0-4.06,4.06,15.3,15.3,0,0,0-1.38,2.55A13.56,13.56,0,0,0,58.31,22,14.51,14.51,0,0,0,58,25ZM81.43,12.55a1,1,0,0,1,1.14-1.64,17.81,17.81,0,0,1,4.58,4.58,17.5,17.5,0,0,1,1.56,2.89,16.24,16.24,0,0,1,1,3.2A16.42,16.42,0,0,1,90,25V39a17,17,0,0,1-.35,3.42,16.36,16.36,0,0,1-1,3.19,1,1,0,0,1-1.84-.78A13.66,13.66,0,0,0,87.69,42,14.67,14.67,0,0,0,88,39V25a14.46,14.46,0,0,0-.26-3,13.66,13.66,0,0,0-.87-2.81,15.5,15.5,0,0,0-1.37-2.54A15.75,15.75,0,0,0,81.43,12.55ZM56.76,8.76a1,1,0,1,1-1.42-1.42,25.9,25.9,0,0,1,3.71-3.06,24.84,24.84,0,0,1,27.9,0,25.35,25.35,0,0,1,6.77,6.77,1,1,0,1,1-1.66,1.12A23.32,23.32,0,0,0,81.93,3.81a22.93,22.93,0,0,0-17.86,0,23.42,23.42,0,0,0-3.9,2.13A23,23,0,0,0,56.76,8.76Zm29.07,49.3A1,1,0,1,1,87,59.72a24.84,24.84,0,0,1-27.9,0,1,1,0,0,1,1.12-1.66,23.42,23.42,0,0,0,3.9,2.13,22.93,22.93,0,0,0,17.86,0A23.42,23.42,0,0,0,85.83,58.06ZM24,25a1,1,0,0,1,2,0v5.25a1,1,0,0,1-2,0Zm0,10.5a1,1,0,0,1,2,0V39a1,1,0,0,1-2,0Zm8,0a1,1,0,0,1,2,0V39a9.36,9.36,0,0,1-.18,1.82,8.77,8.77,0,0,1-.53,1.67A8,8,0,0,1,32.47,44,8.78,8.78,0,0,1,30,46.45a8,8,0,0,1-1.54.84,8.84,8.84,0,0,1-1.7.53A9,9,0,0,1,25,48a9.36,9.36,0,0,1-1.82-.18,8.77,8.77,0,0,1-1.67-.53A8,8,0,0,1,20,46.47,8.78,8.78,0,0,1,17.55,44a8,8,0,0,1-.84-1.54,8.84,8.84,0,0,1-.53-1.7A9,9,0,0,1,16,39V35.5a1,1,0,0,1,2,0V39a7.23,7.23,0,0,0,.14,1.4,6.83,6.83,0,0,0,.41,1.33,7,7,0,0,0,.66,1.19,6.55,6.55,0,0,0,1.89,1.89,7.05,7.05,0,0,0,1.18.64,6.76,6.76,0,0,0,1.3.41A7.59,7.59,0,0,0,25,46a7.23,7.23,0,0,0,1.4-.14,6.83,6.83,0,0,0,1.33-.41,7,7,0,0,0,1.19-.66,6.55,6.55,0,0,0,1.89-1.89,7.05,7.05,0,0,0,.64-1.18,6.76,6.76,0,0,0,.41-1.3A7.59,7.59,0,0,0,32,39ZM18,30.25a1,1,0,0,1-2,0V25a9.36,9.36,0,0,1,.18-1.82,8.77,8.77,0,0,1,.53-1.67A8,8,0,0,1,17.53,20,8.78,8.78,0,0,1,20,17.55a8,8,0,0,1,1.54-.84,8.84,8.84,0,0,1,1.7-.53A9,9,0,0,1,25,16a9.36,9.36,0,0,1,1.82.18,8.77,8.77,0,0,1,1.67.53,7.51,7.51,0,0,1,1.53.83A8.62,8.62,0,0,1,32.45,20a8,8,0,0,1,.84,1.54,8.84,8.84,0,0,1,.53,1.7A9,9,0,0,1,34,25v7a1,1,0,0,1-2,0V25a7.23,7.23,0,0,0-.14-1.4,6.65,6.65,0,0,0-1.07-2.52,6.55,6.55,0,0,0-1.89-1.89,7.05,7.05,0,0,0-1.18-.64,6.76,6.76,0,0,0-1.3-.41A7.59,7.59,0,0,0,25,18a7.23,7.23,0,0,0-1.4.14,6.83,6.83,0,0,0-1.33.41,7,7,0,0,0-1.19.66,6.55,6.55,0,0,0-1.89,1.89,7.08,7.08,0,0,0-1.05,2.48A7.59,7.59,0,0,0,18,25ZM40,32a1,1,0,0,1,2,0v7a17,17,0,0,1-.35,3.42,16.72,16.72,0,0,1-1,3.18,16.56,16.56,0,0,1-6.11,7.5,17.5,17.5,0,0,1-2.89,1.56,1,1,0,0,1-.78-1.84,15.5,15.5,0,0,0,2.54-1.37,16,16,0,0,0,4-4,15.57,15.57,0,0,0,1.38-2.62A13.66,13.66,0,0,0,39.69,42,14.67,14.67,0,0,0,40,39ZM25,54a1,1,0,0,1,0,2,17,17,0,0,1-3.42-.35,16.36,16.36,0,0,1-3.19-1,17.31,17.31,0,0,1-2.9-1.57A16.87,16.87,0,0,1,13,51a1,1,0,0,1,1.44-1.4,14,14,0,0,0,2.2,1.87,15.3,15.3,0,0,0,2.55,1.38,13.66,13.66,0,0,0,2.81.87A14.67,14.67,0,0,0,25,54ZM11.18,44.84a1,1,0,1,1-1.84.78,16.48,16.48,0,0,1-1-3.18A16.67,16.67,0,0,1,8,39V25a17,17,0,0,1,.35-3.42,16.36,16.36,0,0,1,1-3.19,17.31,17.31,0,0,1,1.57-2.9,17.81,17.81,0,0,1,4.58-4.58,17.5,17.5,0,0,1,2.89-1.56A17.21,17.21,0,0,1,25,8a17,17,0,0,1,3.42.35,16.72,16.72,0,0,1,3.18,1,17.66,17.66,0,0,1,3,1.58,17.81,17.81,0,0,1,4.58,4.58,17.5,17.5,0,0,1,1.56,2.89,16.24,16.24,0,0,1,1,3.2A16.49,16.49,0,0,1,42,25a1,1,0,0,1-2,0,14.46,14.46,0,0,0-.26-3,13.66,13.66,0,0,0-.87-2.81,15.5,15.5,0,0,0-1.37-2.54,15.79,15.79,0,0,0-4-4.06,15.57,15.57,0,0,0-2.62-1.38A13.66,13.66,0,0,0,28,10.31a14.68,14.68,0,0,0-6.05,0,13.66,13.66,0,0,0-2.81.87,15.5,15.5,0,0,0-2.54,1.37,15.67,15.67,0,0,0-4.06,4.06,15.3,15.3,0,0,0-1.38,2.55A13.56,13.56,0,0,0,10.31,22,14.51,14.51,0,0,0,10,25V39a14.7,14.7,0,0,0,.31,3A13.66,13.66,0,0,0,11.18,44.84Zm32.88,7A1,1,0,0,1,45.72,53,25.35,25.35,0,0,1,39,59.72,24.79,24.79,0,0,1,25,64a1,1,0,0,1,0-2,22.84,22.84,0,0,0,8.93-1.81,23.32,23.32,0,0,0,10.13-8.36Zm-28,8.36A1,1,0,1,1,15.29,62a24.84,24.84,0,0,1-4.24-2.31A25.35,25.35,0,0,1,4.28,53,24.79,24.79,0,0,1,0,39V25a24.89,24.89,0,0,1,2-9.71,1,1,0,0,1,1.84.78A23,23,0,0,0,2,25V39a23,23,0,0,0,1.81,8.93A23.32,23.32,0,0,0,16.07,60.19ZM8.76,8.76A1,1,0,0,1,7.34,7.34a25.9,25.9,0,0,1,3.71-3.06A24.89,24.89,0,0,1,34.71,2a24.37,24.37,0,0,1,4.23,2.31A25.14,25.14,0,0,1,42.7,7.34a1,1,0,0,1-1.4,1.42,23,23,0,0,0-3.47-2.82,23.42,23.42,0,0,0-3.9-2.13,22.93,22.93,0,0,0-17.86,0,23.42,23.42,0,0,0-3.9,2.13A23,23,0,0,0,8.76,8.76ZM49,18a24.47,24.47,0,0,1,1-2.72,1,1,0,1,1,1.84.78A23,23,0,0,0,50,25h0V39h0a23,23,0,0,0,1.81,8.93,23.42,23.42,0,0,0,2.13,3.9A1,1,0,1,1,52.28,53,24.79,24.79,0,0,1,48,39V25h0a23,23,0,0,0-1.81-8.92A1,1,0,1,1,48,15.29,24.47,24.47,0,0,1,49,18ZM98,39a22.94,22.94,0,0,0,1.81,8.92,1,1,0,1,1-1.84.78A24.47,24.47,0,0,1,97,46a24.47,24.47,0,0,1-1,2.72,25,25,0,0,1-2.3,4.23,26.53,26.53,0,0,1-3,3.76,1,1,0,1,1-1.44-1.4,25.35,25.35,0,0,0,4.91-7.37A22.94,22.94,0,0,0,96,39h0V25h0a23.14,23.14,0,0,0-.47-4.62,1,1,0,0,1,2-.4A24.86,24.86,0,0,1,98,25V39Z"/><path class="cls-1" d="M408,25a1,1,0,0,1,2,0V39a1,1,0,0,1-2,0Zm6-4.94a1,1,0,1,1,1.4-1.44A8.94,8.94,0,0,1,416.48,20a8,8,0,0,1,.84,1.54,8.61,8.61,0,0,1,.53,1.72A8.92,8.92,0,0,1,418,25V39a9.36,9.36,0,0,1-.18,1.82,8.77,8.77,0,0,1-.53,1.67,8,8,0,0,1-.82,1.53A8.78,8.78,0,0,1,414,46.45a8,8,0,0,1-1.54.84,8.84,8.84,0,0,1-1.7.53A9,9,0,0,1,409,48a9.36,9.36,0,0,1-1.82-.18,8.77,8.77,0,0,1-1.67-.53,8,8,0,0,1-1.53-.82A8.78,8.78,0,0,1,401.55,44a8,8,0,0,1-.84-1.54,8.84,8.84,0,0,1-.53-1.7A9,9,0,0,1,400,39V26.75a1,1,0,0,1,2,0V39a7.23,7.23,0,0,0,.14,1.4,6.83,6.83,0,0,0,.41,1.33,7,7,0,0,0,.66,1.19,6.55,6.55,0,0,0,1.89,1.89,7.05,7.05,0,0,0,1.18.64,6.76,6.76,0,0,0,1.3.41A7.59,7.59,0,0,0,409,46a7.23,7.23,0,0,0,1.4-.14,6.83,6.83,0,0,0,1.33-.41,7,7,0,0,0,1.19-.66,6.55,6.55,0,0,0,1.89-1.89,7.05,7.05,0,0,0,.64-1.18,6.76,6.76,0,0,0,.41-1.3A7.59,7.59,0,0,0,416,39V25a6.93,6.93,0,0,0-.11-1.39,7,7,0,0,0-.41-1.33,7.17,7.17,0,0,0-.65-1.18A6.09,6.09,0,0,0,414,20.06Zm-11.41,2.21a1,1,0,0,1-1.84-.76,8,8,0,0,1,.82-1.53A8.78,8.78,0,0,1,404,17.55a8,8,0,0,1,1.54-.84,8.84,8.84,0,0,1,1.7-.53A9,9,0,0,1,409,16a9.36,9.36,0,0,1,1.82.18,9.1,9.1,0,0,1,1.68.53,1,1,0,0,1-.78,1.84,6.76,6.76,0,0,0-1.3-.41A7.59,7.59,0,0,0,409,18a7.23,7.23,0,0,0-1.4.14,6.83,6.83,0,0,0-1.33.41,7,7,0,0,0-1.19.66,6.55,6.55,0,0,0-1.89,1.89A7.37,7.37,0,0,0,402.55,22.27ZM424,28.5a1,1,0,0,1,2,0V39a17,17,0,0,1-.35,3.42,16.72,16.72,0,0,1-1,3.18,17.38,17.38,0,0,1-1.57,2.95,1,1,0,0,1-1.66-1.1,15.57,15.57,0,0,0,1.38-2.62,13.66,13.66,0,0,0,.87-2.81,14.67,14.67,0,0,0,.31-3Zm-6.56,22.94a1,1,0,1,1,1.12,1.66,17.5,17.5,0,0,1-2.89,1.56A17.06,17.06,0,0,1,409,56a17,17,0,0,1-3.42-.35,16.36,16.36,0,0,1-3.19-1,17.31,17.31,0,0,1-2.9-1.57A16.87,16.87,0,0,1,397,51a1,1,0,0,1,1.44-1.4,14,14,0,0,0,2.2,1.87,15.3,15.3,0,0,0,2.55,1.38,13.66,13.66,0,0,0,2.81.87,14.7,14.7,0,0,0,3,.31,14.41,14.41,0,0,0,3.07-.31,13.66,13.66,0,0,0,2.81-.87A15.3,15.3,0,0,0,417.44,51.44Zm-22.26-6.6a1,1,0,0,1-1.84.78,16.48,16.48,0,0,1-1-3.18A16.67,16.67,0,0,1,392,39V25a17,17,0,0,1,.35-3.42,16.36,16.36,0,0,1,1-3.19,17.31,17.31,0,0,1,1.57-2.9A16.87,16.87,0,0,1,397,13a1,1,0,0,1,1.4,1.44,14,14,0,0,0-1.87,2.2,15.3,15.3,0,0,0-1.38,2.55,13.56,13.56,0,0,0-.87,2.82,14.51,14.51,0,0,0-.31,3V39a14.7,14.7,0,0,0,.31,3A13.66,13.66,0,0,0,395.18,44.84ZM406,10.31a1,1,0,1,1-.4-2,16.88,16.88,0,0,1,6.84,0,16.72,16.72,0,0,1,3.18,1,16.68,16.68,0,0,1,7.55,6.16,17.5,17.5,0,0,1,1.56,2.89,16.36,16.36,0,0,1,1,3.19,1,1,0,0,1-2,.4,13.66,13.66,0,0,0-.87-2.81,15.5,15.5,0,0,0-1.37-2.54,15.79,15.79,0,0,0-4.05-4.06,15.57,15.57,0,0,0-2.62-1.38,13.66,13.66,0,0,0-2.81-.87,14.87,14.87,0,0,0-6,0Zm24.21,37.62a1,1,0,0,1,1.84.78A24.84,24.84,0,0,1,429.72,53,25.35,25.35,0,0,1,423,59.72,24.89,24.89,0,0,1,399.29,62a24.37,24.37,0,0,1-4.23-2.31,24.91,24.91,0,0,1-3.71-3,1,1,0,0,1,1.4-1.42,24.08,24.08,0,0,0,3.42,2.77,23.42,23.42,0,0,0,3.9,2.13,22.93,22.93,0,0,0,17.86,0,23.32,23.32,0,0,0,12.26-12.26ZM387.81,16.07a1,1,0,1,1-1.84-.78,25.25,25.25,0,0,1,9.08-11,1,1,0,1,1,1.12,1.66,23.32,23.32,0,0,0-8.36,10.13Zm16.57-13.6a1,1,0,1,1-.4-2A24.93,24.93,0,0,1,418.71,2a1,1,0,0,1-.78,1.84,22.94,22.94,0,0,0-13.55-1.34Zm23.68,9.7a1,1,0,0,1,1.66-1.12A25.22,25.22,0,0,1,432,15.29,24.89,24.89,0,0,1,434,25V39a1,1,0,0,1-2,0V25a23,23,0,0,0-1.81-8.93A23.42,23.42,0,0,0,428.06,12.17ZM360,25a1,1,0,0,1,2,0V39a1,1,0,0,1-2,0Zm-6,3.5a1,1,0,0,1-2,0V25a9.36,9.36,0,0,1,.18-1.82,8.77,8.77,0,0,1,.53-1.67,8,8,0,0,1,.82-1.53A8.78,8.78,0,0,1,356,17.55a8,8,0,0,1,1.54-.84,8.84,8.84,0,0,1,1.7-.53,9.09,9.09,0,0,1,3.6,0,1,1,0,1,1-.38,2A7.59,7.59,0,0,0,361,18a7.23,7.23,0,0,0-1.4.14,6.83,6.83,0,0,0-1.33.41,7,7,0,0,0-1.19.66,6.55,6.55,0,0,0-1.89,1.89,7.08,7.08,0,0,0-1.05,2.48A7.59,7.59,0,0,0,354,25Zm10.92-9.29a1,1,0,0,1-.29-1.39,1,1,0,0,1,1.39-.28A8.62,8.62,0,0,1,368.45,20a8,8,0,0,1,.84,1.54,8.84,8.84,0,0,1,.53,1.7A9,9,0,0,1,370,25v8.75a1,1,0,0,1-2,0V25a7.23,7.23,0,0,0-.14-1.4,6.65,6.65,0,0,0-1.07-2.52A6.41,6.41,0,0,0,364.92,19.21ZM368,39a1,1,0,0,1,2,0,9.36,9.36,0,0,1-.18,1.82,8.77,8.77,0,0,1-.53,1.67,8,8,0,0,1-.82,1.53A8.78,8.78,0,0,1,366,46.45a8,8,0,0,1-1.54.84,8.84,8.84,0,0,1-1.7.53A9,9,0,0,1,361,48a9.36,9.36,0,0,1-1.82-.18,8.77,8.77,0,0,1-1.67-.53,8,8,0,0,1-1.53-.82A8.78,8.78,0,0,1,353.55,44a8,8,0,0,1-.84-1.54,8.84,8.84,0,0,1-.53-1.7A9,9,0,0,1,352,39V33.75a1,1,0,0,1,2,0V39a7.23,7.23,0,0,0,.14,1.4,6.83,6.83,0,0,0,.41,1.33,7,7,0,0,0,.66,1.19,6.55,6.55,0,0,0,1.89,1.89,7.05,7.05,0,0,0,1.18.64,6.76,6.76,0,0,0,1.3.41A7.59,7.59,0,0,0,361,46a7.23,7.23,0,0,0,1.4-.14,6.83,6.83,0,0,0,1.33-.41,7,7,0,0,0,1.19-.66,6.55,6.55,0,0,0,1.89-1.89,7.05,7.05,0,0,0,.64-1.18,6.76,6.76,0,0,0,.41-1.3A7.59,7.59,0,0,0,368,39Zm3.59,10.61A1,1,0,1,1,373,51a17.11,17.11,0,0,1-2.52,2.13,17.5,17.5,0,0,1-2.89,1.56,16.24,16.24,0,0,1-3.2,1A16.43,16.43,0,0,1,361,56a17,17,0,0,1-3.42-.35,16.36,16.36,0,0,1-3.19-1,17.5,17.5,0,0,1-2.89-1.56,17.73,17.73,0,0,1-4.6-4.54,17.5,17.5,0,0,1-1.56-2.89,1,1,0,1,1,1.84-.78,15.5,15.5,0,0,0,1.37,2.54,15.67,15.67,0,0,0,4.07,4,15.3,15.3,0,0,0,2.55,1.38,13.66,13.66,0,0,0,2.81.87,14.7,14.7,0,0,0,3,.31,14.51,14.51,0,0,0,3-.27,13.66,13.66,0,0,0,2.81-.87,15.5,15.5,0,0,0,2.54-1.37A14.18,14.18,0,0,0,371.59,49.61ZM346,39a1,1,0,0,1-2,0V25a17,17,0,0,1,.35-3.42,16.36,16.36,0,0,1,1-3.19,17.31,17.31,0,0,1,1.57-2.9,17.81,17.81,0,0,1,4.58-4.58,17.5,17.5,0,0,1,2.89-1.56A17.21,17.21,0,0,1,361,8a17,17,0,0,1,3.42.35,1,1,0,0,1-.4,2,14.68,14.68,0,0,0-6,0,13.66,13.66,0,0,0-2.81.87,15.5,15.5,0,0,0-2.54,1.37,15.67,15.67,0,0,0-4.06,4.06,15.3,15.3,0,0,0-1.38,2.55,13.56,13.56,0,0,0-.87,2.82,14.51,14.51,0,0,0-.31,3Zm23.43-26.45a1,1,0,0,1,1.14-1.64,17.81,17.81,0,0,1,4.58,4.58,17.5,17.5,0,0,1,1.56,2.89,16.24,16.24,0,0,1,1,3.2A16.42,16.42,0,0,1,378,25V39a17,17,0,0,1-.35,3.42,16.36,16.36,0,0,1-1,3.19,1,1,0,1,1-1.84-.78,13.66,13.66,0,0,0,.87-2.81,14.67,14.67,0,0,0,.31-3V25a14.46,14.46,0,0,0-.26-3,13.66,13.66,0,0,0-.87-2.81,15.5,15.5,0,0,0-1.37-2.54A15.75,15.75,0,0,0,369.43,12.55ZM344.76,8.76a1,1,0,1,1-1.42-1.42,25.9,25.9,0,0,1,3.71-3.06,24.84,24.84,0,0,1,27.9,0,25.35,25.35,0,0,1,6.77,6.77,1,1,0,1,1-1.66,1.12,23.32,23.32,0,0,0-10.13-8.36,22.93,22.93,0,0,0-17.86,0,23.42,23.42,0,0,0-3.9,2.13A23,23,0,0,0,344.76,8.76Zm29.07,49.3A1,1,0,0,1,375,59.72a24.84,24.84,0,0,1-27.9,0,1,1,0,1,1,1.12-1.66,23.42,23.42,0,0,0,3.9,2.13,22.93,22.93,0,0,0,17.86,0A23.42,23.42,0,0,0,373.83,58.06ZM312,25a1,1,0,0,1,2,0v5.25a1,1,0,0,1-2,0Zm0,10.5a1,1,0,0,1,2,0V39a1,1,0,0,1-2,0Zm8,0a1,1,0,0,1,2,0V39a9.36,9.36,0,0,1-.18,1.82,8.77,8.77,0,0,1-.53,1.67,8,8,0,0,1-.82,1.53A8.78,8.78,0,0,1,318,46.45a8,8,0,0,1-1.54.84,8.84,8.84,0,0,1-1.7.53A9,9,0,0,1,313,48a9.36,9.36,0,0,1-1.82-.18,8.77,8.77,0,0,1-1.67-.53,8,8,0,0,1-1.53-.82A8.78,8.78,0,0,1,305.55,44a8,8,0,0,1-.84-1.54,8.84,8.84,0,0,1-.53-1.7A9,9,0,0,1,304,39V35.5a1,1,0,0,1,2,0V39a7.23,7.23,0,0,0,.14,1.4,6.83,6.83,0,0,0,.41,1.33,7,7,0,0,0,.66,1.19,6.55,6.55,0,0,0,1.89,1.89,7.05,7.05,0,0,0,1.18.64,6.76,6.76,0,0,0,1.3.41A7.59,7.59,0,0,0,313,46a7.23,7.23,0,0,0,1.4-.14,6.83,6.83,0,0,0,1.33-.41,7,7,0,0,0,1.19-.66,6.55,6.55,0,0,0,1.89-1.89,7.05,7.05,0,0,0,.64-1.18,6.76,6.76,0,0,0,.41-1.3A7.59,7.59,0,0,0,320,39Zm-14-5.25a1,1,0,0,1-2,0V25a9.36,9.36,0,0,1,.18-1.82,8.77,8.77,0,0,1,.53-1.67,8,8,0,0,1,.82-1.53A8.78,8.78,0,0,1,308,17.55a8,8,0,0,1,1.54-.84,8.84,8.84,0,0,1,1.7-.53A9,9,0,0,1,313,16a9.36,9.36,0,0,1,1.82.18,8.77,8.77,0,0,1,1.67.53,7.51,7.51,0,0,1,1.53.83A8.62,8.62,0,0,1,320.45,20a8,8,0,0,1,.84,1.54,8.84,8.84,0,0,1,.53,1.7A9,9,0,0,1,322,25v7a1,1,0,0,1-2,0V25a7.23,7.23,0,0,0-.14-1.4,6.65,6.65,0,0,0-1.07-2.52,6.55,6.55,0,0,0-1.89-1.89,7.05,7.05,0,0,0-1.18-.64,6.76,6.76,0,0,0-1.3-.41A7.59,7.59,0,0,0,313,18a7.23,7.23,0,0,0-1.4.14,6.83,6.83,0,0,0-1.33.41,7,7,0,0,0-1.19.66,6.55,6.55,0,0,0-1.89,1.89,7.08,7.08,0,0,0-1.05,2.48A7.59,7.59,0,0,0,306,25ZM328,32a1,1,0,0,1,2,0v7a17,17,0,0,1-.35,3.42,16.72,16.72,0,0,1-1,3.18,16.71,16.71,0,0,1-9,9.06,1,1,0,1,1-.78-1.84,15.5,15.5,0,0,0,2.54-1.37,16,16,0,0,0,4-4,15.57,15.57,0,0,0,1.38-2.62,13.66,13.66,0,0,0,.87-2.81,14.67,14.67,0,0,0,.31-3ZM313,54a1,1,0,0,1,0,2,17,17,0,0,1-3.42-.35,16.36,16.36,0,0,1-3.19-1,17.31,17.31,0,0,1-2.9-1.57A16.87,16.87,0,0,1,301,51a1,1,0,0,1,1.44-1.4,14,14,0,0,0,2.2,1.87,15.3,15.3,0,0,0,2.55,1.38,13.66,13.66,0,0,0,2.81.87A14.67,14.67,0,0,0,313,54Zm-13.82-9.16a1,1,0,0,1-1.84.78,16.48,16.48,0,0,1-1-3.18A16.67,16.67,0,0,1,296,39V25a17,17,0,0,1,.35-3.42,16.36,16.36,0,0,1,1-3.19,17.31,17.31,0,0,1,1.57-2.9,17.81,17.81,0,0,1,4.58-4.58,17.5,17.5,0,0,1,2.89-1.56A17.21,17.21,0,0,1,313,8a17,17,0,0,1,3.42.35,16.72,16.72,0,0,1,3.18,1,16.68,16.68,0,0,1,7.55,6.16,17.5,17.5,0,0,1,1.56,2.89,16.24,16.24,0,0,1,1,3.2A16.49,16.49,0,0,1,330,25a1,1,0,0,1-2,0,14.46,14.46,0,0,0-.26-3,13.66,13.66,0,0,0-.87-2.81,15.5,15.5,0,0,0-1.37-2.54,15.79,15.79,0,0,0-4.05-4.06,15.57,15.57,0,0,0-2.62-1.38,13.66,13.66,0,0,0-2.81-.87,14.68,14.68,0,0,0-6,0,13.66,13.66,0,0,0-2.81.87,15.5,15.5,0,0,0-2.54,1.37,15.67,15.67,0,0,0-4.06,4.06,15.3,15.3,0,0,0-1.38,2.55,13.56,13.56,0,0,0-.87,2.82,14.51,14.51,0,0,0-.31,3V39a14.7,14.7,0,0,0,.31,3A13.66,13.66,0,0,0,299.18,44.84Zm32.88,7A1,1,0,0,1,333.72,53,25.35,25.35,0,0,1,327,59.72,24.79,24.79,0,0,1,313,64a1,1,0,0,1,0-2,22.84,22.84,0,0,0,8.93-1.81,23.32,23.32,0,0,0,10.13-8.36Zm-28,8.36a1,1,0,0,1-.78,1.84,24.84,24.84,0,0,1-4.24-2.31A25.35,25.35,0,0,1,292.28,53,24.79,24.79,0,0,1,288,39V25a24.89,24.89,0,0,1,2-9.71,1,1,0,0,1,1.84.78A23,23,0,0,0,290,25V39a23,23,0,0,0,1.81,8.93,23.32,23.32,0,0,0,12.26,12.26ZM296.76,8.76a1,1,0,1,1-1.42-1.42,25.9,25.9,0,0,1,3.71-3.06A24.89,24.89,0,0,1,322.71,2a24.37,24.37,0,0,1,4.23,2.31,25.14,25.14,0,0,1,3.76,3.06,1,1,0,0,1-1.4,1.42,23,23,0,0,0-3.47-2.82,23.42,23.42,0,0,0-3.9-2.13,22.93,22.93,0,0,0-17.86,0,23.42,23.42,0,0,0-3.9,2.13A23,23,0,0,0,296.76,8.76ZM337,18a24.47,24.47,0,0,1,1-2.72,1,1,0,0,1,1.84.78A23,23,0,0,0,338,25h0V39h0a23,23,0,0,0,1.81,8.93,23.42,23.42,0,0,0,2.13,3.9A1,1,0,0,1,340.28,53,24.79,24.79,0,0,1,336,39V25h0a23,23,0,0,0-1.81-8.92,1,1,0,1,1,1.84-.78A24.47,24.47,0,0,1,337,18Zm49,21a22.94,22.94,0,0,0,1.81,8.92,1,1,0,0,1-1.84.78A24.47,24.47,0,0,1,385,46a24.47,24.47,0,0,1-1,2.72,25,25,0,0,1-2.3,4.23,26.53,26.53,0,0,1-3,3.76,1,1,0,0,1-1.44-1.4,25.35,25.35,0,0,0,4.91-7.37A22.94,22.94,0,0,0,384,39h0V25h0a23.14,23.14,0,0,0-.47-4.62,1,1,0,1,1,2-.4,24.86,24.86,0,0,1,.51,5V39Z"/><path class="cls-1" d="M552,25a1,1,0,0,1,2,0V39a1,1,0,0,1-2,0Zm6-4.94a1,1,0,1,1,1.4-1.44A8.94,8.94,0,0,1,560.48,20a8,8,0,0,1,.84,1.54,8.61,8.61,0,0,1,.53,1.72A8.92,8.92,0,0,1,562,25V39a9.36,9.36,0,0,1-.18,1.82,8.77,8.77,0,0,1-.53,1.67,8,8,0,0,1-.82,1.53A8.78,8.78,0,0,1,558,46.45a8,8,0,0,1-1.54.84,8.84,8.84,0,0,1-1.7.53A9,9,0,0,1,553,48a9.36,9.36,0,0,1-1.82-.18,8.77,8.77,0,0,1-1.67-.53,8,8,0,0,1-1.53-.82A8.78,8.78,0,0,1,545.55,44a8,8,0,0,1-.84-1.54,8.84,8.84,0,0,1-.53-1.7A9,9,0,0,1,544,39V26.75a1,1,0,0,1,2,0V39a7.23,7.23,0,0,0,.14,1.4,6.83,6.83,0,0,0,.41,1.33,7,7,0,0,0,.66,1.19,6.55,6.55,0,0,0,1.89,1.89,7.05,7.05,0,0,0,1.18.64,6.76,6.76,0,0,0,1.3.41A7.59,7.59,0,0,0,553,46a7.23,7.23,0,0,0,1.4-.14,6.83,6.83,0,0,0,1.33-.41,7,7,0,0,0,1.19-.66,6.55,6.55,0,0,0,1.89-1.89,7.05,7.05,0,0,0,.64-1.18,6.76,6.76,0,0,0,.41-1.3A7.59,7.59,0,0,0,560,39V25a6.93,6.93,0,0,0-.11-1.39,7,7,0,0,0-.41-1.33,7.17,7.17,0,0,0-.65-1.18A6.09,6.09,0,0,0,558,20.06Zm-11.41,2.21a1,1,0,1,1-1.84-.76,8,8,0,0,1,.82-1.53A8.78,8.78,0,0,1,548,17.55a8,8,0,0,1,1.54-.84,8.84,8.84,0,0,1,1.7-.53A9,9,0,0,1,553,16a9.36,9.36,0,0,1,1.82.18,9.1,9.1,0,0,1,1.68.53,1,1,0,1,1-.78,1.84,6.76,6.76,0,0,0-1.3-.41A7.59,7.59,0,0,0,553,18a7.23,7.23,0,0,0-1.4.14,6.83,6.83,0,0,0-1.33.41,7,7,0,0,0-1.19.66,6.55,6.55,0,0,0-1.89,1.89A7.37,7.37,0,0,0,546.55,22.27ZM568,28.5a1,1,0,0,1,2,0V39a17,17,0,0,1-.35,3.42,16.72,16.72,0,0,1-1,3.18,17.38,17.38,0,0,1-1.57,2.95,1,1,0,1,1-1.66-1.1,15.57,15.57,0,0,0,1.38-2.62,13.66,13.66,0,0,0,.87-2.81,14.67,14.67,0,0,0,.31-3Zm-6.56,22.94a1,1,0,1,1,1.12,1.66,17.5,17.5,0,0,1-2.89,1.56A17.06,17.06,0,0,1,553,56a17,17,0,0,1-3.42-.35,16.36,16.36,0,0,1-3.19-1,17.31,17.31,0,0,1-2.9-1.57A16.87,16.87,0,0,1,541,51a1,1,0,0,1,1.44-1.4,14,14,0,0,0,2.2,1.87,15.3,15.3,0,0,0,2.55,1.38,13.66,13.66,0,0,0,2.81.87,14.7,14.7,0,0,0,3,.31,14.41,14.41,0,0,0,3.07-.31,13.66,13.66,0,0,0,2.81-.87A15.3,15.3,0,0,0,561.44,51.44Zm-22.26-6.6a1,1,0,1,1-1.84.78,16.48,16.48,0,0,1-1-3.18A16.67,16.67,0,0,1,536,39V25a17,17,0,0,1,.35-3.42,16.36,16.36,0,0,1,1-3.19,17.31,17.31,0,0,1,1.57-2.9A16.87,16.87,0,0,1,541,13a1,1,0,0,1,1.4,1.44,14,14,0,0,0-1.87,2.2,15.3,15.3,0,0,0-1.38,2.55,13.56,13.56,0,0,0-.87,2.82,14.51,14.51,0,0,0-.31,3V39a14.7,14.7,0,0,0,.31,3A13.66,13.66,0,0,0,539.18,44.84ZM550,10.31a1,1,0,0,1-.4-2,16.88,16.88,0,0,1,6.84,0,16.72,16.72,0,0,1,3.18,1,16.68,16.68,0,0,1,7.55,6.16,17.5,17.5,0,0,1,1.56,2.89,16.36,16.36,0,0,1,1,3.19,1,1,0,0,1-2,.4,13.66,13.66,0,0,0-.87-2.81,15.5,15.5,0,0,0-1.37-2.54,15.79,15.79,0,0,0-4-4.06,15.57,15.57,0,0,0-2.62-1.38,13.66,13.66,0,0,0-2.81-.87,14.87,14.87,0,0,0-6,0Zm24.21,37.62a1,1,0,1,1,1.84.78A24.84,24.84,0,0,1,573.72,53,25.35,25.35,0,0,1,567,59.72,24.89,24.89,0,0,1,543.29,62a24.37,24.37,0,0,1-4.23-2.31,24.91,24.91,0,0,1-3.71-3,1,1,0,1,1,1.4-1.42,24.08,24.08,0,0,0,3.42,2.77,23.42,23.42,0,0,0,3.9,2.13,22.93,22.93,0,0,0,17.86,0,23.32,23.32,0,0,0,12.26-12.26ZM531.81,16.07a1,1,0,0,1-1.84-.78,25.25,25.25,0,0,1,9.08-11,1,1,0,0,1,1.12,1.66,23.32,23.32,0,0,0-8.36,10.13Zm16.57-13.6a1,1,0,0,1-.4-2A24.93,24.93,0,0,1,562.71,2a1,1,0,1,1-.78,1.84,22.94,22.94,0,0,0-13.55-1.34Zm23.68,9.7a1,1,0,1,1,1.66-1.12A25.22,25.22,0,0,1,576,15.29,24.89,24.89,0,0,1,578,25V39a1,1,0,0,1-2,0V25a23,23,0,0,0-1.81-8.93A23.42,23.42,0,0,0,572.06,12.17ZM504,25a1,1,0,0,1,2,0V39a1,1,0,0,1-2,0Zm-6,3.5a1,1,0,0,1-2,0V25a9.36,9.36,0,0,1,.18-1.82,8.77,8.77,0,0,1,.53-1.67,8,8,0,0,1,.82-1.53A8.78,8.78,0,0,1,500,17.55a8,8,0,0,1,1.54-.84,8.84,8.84,0,0,1,1.7-.53,9.09,9.09,0,0,1,3.6,0,1,1,0,1,1-.38,2A7.59,7.59,0,0,0,505,18a7.23,7.23,0,0,0-1.4.14,6.83,6.83,0,0,0-1.33.41,7,7,0,0,0-1.19.66,6.55,6.55,0,0,0-1.89,1.89,7.08,7.08,0,0,0-1.05,2.48A7.59,7.59,0,0,0,498,25Zm10.92-9.29a1,1,0,0,1-.29-1.39,1,1,0,0,1,1.39-.28A8.62,8.62,0,0,1,512.45,20a8,8,0,0,1,.84,1.54,8.84,8.84,0,0,1,.53,1.7A9,9,0,0,1,514,25v8.75a1,1,0,0,1-2,0V25a7.23,7.23,0,0,0-.14-1.4,6.65,6.65,0,0,0-1.07-2.52A6.41,6.41,0,0,0,508.92,19.21ZM512,39a1,1,0,0,1,2,0,9.36,9.36,0,0,1-.18,1.82,8.77,8.77,0,0,1-.53,1.67,8,8,0,0,1-.82,1.53A8.78,8.78,0,0,1,510,46.45a8,8,0,0,1-1.54.84,8.84,8.84,0,0,1-1.7.53A9,9,0,0,1,505,48a9.36,9.36,0,0,1-1.82-.18,8.77,8.77,0,0,1-1.67-.53,8,8,0,0,1-1.53-.82A8.78,8.78,0,0,1,497.55,44a8,8,0,0,1-.84-1.54,8.84,8.84,0,0,1-.53-1.7A9,9,0,0,1,496,39V33.75a1,1,0,0,1,2,0V39a7.23,7.23,0,0,0,.14,1.4,6.83,6.83,0,0,0,.41,1.33,7,7,0,0,0,.66,1.19,6.55,6.55,0,0,0,1.89,1.89,7.05,7.05,0,0,0,1.18.64,6.76,6.76,0,0,0,1.3.41A7.59,7.59,0,0,0,505,46a7.23,7.23,0,0,0,1.4-.14,6.83,6.83,0,0,0,1.33-.41,7,7,0,0,0,1.19-.66,6.55,6.55,0,0,0,1.89-1.89,7.05,7.05,0,0,0,.64-1.18,6.76,6.76,0,0,0,.41-1.3A7.59,7.59,0,0,0,512,39Zm3.59,10.61A1,1,0,0,1,517,51a17.11,17.11,0,0,1-2.52,2.13,17.5,17.5,0,0,1-2.89,1.56,16.24,16.24,0,0,1-3.2,1A16.43,16.43,0,0,1,505,56a17,17,0,0,1-3.42-.35,16.36,16.36,0,0,1-3.19-1,17.5,17.5,0,0,1-2.89-1.56,17.73,17.73,0,0,1-4.6-4.54,17.5,17.5,0,0,1-1.56-2.89,1,1,0,1,1,1.84-.78,15.5,15.5,0,0,0,1.37,2.54,15.67,15.67,0,0,0,4.07,4,15.3,15.3,0,0,0,2.55,1.38,13.66,13.66,0,0,0,2.81.87,14.7,14.7,0,0,0,3,.31,14.51,14.51,0,0,0,3-.27,13.66,13.66,0,0,0,2.81-.87,15.5,15.5,0,0,0,2.54-1.37A14.18,14.18,0,0,0,515.59,49.61ZM490,39a1,1,0,0,1-2,0V25a17,17,0,0,1,.35-3.42,16.36,16.36,0,0,1,1-3.19,17.31,17.31,0,0,1,1.57-2.9,17.81,17.81,0,0,1,4.58-4.58,17.5,17.5,0,0,1,2.89-1.56A17.21,17.21,0,0,1,505,8a17,17,0,0,1,3.42.35,1,1,0,0,1-.4,2,14.68,14.68,0,0,0-6,0,13.66,13.66,0,0,0-2.81.87,15.5,15.5,0,0,0-2.54,1.37,15.67,15.67,0,0,0-4.06,4.06,15.3,15.3,0,0,0-1.38,2.55,13.56,13.56,0,0,0-.87,2.82,14.51,14.51,0,0,0-.31,3Zm23.43-26.45a1,1,0,0,1,1.14-1.64,17.81,17.81,0,0,1,4.58,4.58,17.5,17.5,0,0,1,1.56,2.89,16.24,16.24,0,0,1,1,3.2A16.42,16.42,0,0,1,522,25V39a17,17,0,0,1-.35,3.42,16.36,16.36,0,0,1-1,3.19,1,1,0,0,1-1.84-.78,13.66,13.66,0,0,0,.87-2.81,14.67,14.67,0,0,0,.31-3V25a14.46,14.46,0,0,0-.26-3,13.66,13.66,0,0,0-.87-2.81,15.5,15.5,0,0,0-1.37-2.54A15.75,15.75,0,0,0,513.43,12.55ZM488.76,8.76a1,1,0,1,1-1.42-1.42,25.9,25.9,0,0,1,3.71-3.06,24.84,24.84,0,0,1,27.9,0,25.35,25.35,0,0,1,6.77,6.77,1,1,0,0,1-1.66,1.12,23.32,23.32,0,0,0-10.13-8.36,22.93,22.93,0,0,0-17.86,0,23.42,23.42,0,0,0-3.9,2.13A23,23,0,0,0,488.76,8.76Zm29.07,49.3A1,1,0,0,1,519,59.72a24.84,24.84,0,0,1-27.9,0,1,1,0,0,1,1.12-1.66,23.42,23.42,0,0,0,3.9,2.13,22.93,22.93,0,0,0,17.86,0A23.42,23.42,0,0,0,517.83,58.06ZM456,25a1,1,0,0,1,2,0v5.25a1,1,0,0,1-2,0Zm0,10.5a1,1,0,0,1,2,0V39a1,1,0,0,1-2,0Zm8,0a1,1,0,0,1,2,0V39a9.36,9.36,0,0,1-.18,1.82,8.77,8.77,0,0,1-.53,1.67,8,8,0,0,1-.82,1.53A8.78,8.78,0,0,1,462,46.45a8,8,0,0,1-1.54.84,8.84,8.84,0,0,1-1.7.53A9,9,0,0,1,457,48a9.36,9.36,0,0,1-1.82-.18,8.77,8.77,0,0,1-1.67-.53,8,8,0,0,1-1.53-.82A8.78,8.78,0,0,1,449.55,44a8,8,0,0,1-.84-1.54,8.84,8.84,0,0,1-.53-1.7A9,9,0,0,1,448,39V35.5a1,1,0,0,1,2,0V39a7.23,7.23,0,0,0,.14,1.4,6.83,6.83,0,0,0,.41,1.33,7,7,0,0,0,.66,1.19,6.55,6.55,0,0,0,1.89,1.89,7.05,7.05,0,0,0,1.18.64,6.76,6.76,0,0,0,1.3.41A7.59,7.59,0,0,0,457,46a7.23,7.23,0,0,0,1.4-.14,6.83,6.83,0,0,0,1.33-.41,7,7,0,0,0,1.19-.66,6.55,6.55,0,0,0,1.89-1.89,7.05,7.05,0,0,0,.64-1.18,6.76,6.76,0,0,0,.41-1.3A7.59,7.59,0,0,0,464,39Zm-14-5.25a1,1,0,0,1-2,0V25a9.36,9.36,0,0,1,.18-1.82,8.77,8.77,0,0,1,.53-1.67,8,8,0,0,1,.82-1.53A8.78,8.78,0,0,1,452,17.55a8,8,0,0,1,1.54-.84,8.84,8.84,0,0,1,1.7-.53A9,9,0,0,1,457,16a9.36,9.36,0,0,1,1.82.18,8.77,8.77,0,0,1,1.67.53,7.51,7.51,0,0,1,1.53.83A8.62,8.62,0,0,1,464.45,20a8,8,0,0,1,.84,1.54,8.84,8.84,0,0,1,.53,1.7A9,9,0,0,1,466,25v7a1,1,0,0,1-2,0V25a7.23,7.23,0,0,0-.14-1.4,6.65,6.65,0,0,0-1.07-2.52,6.55,6.55,0,0,0-1.89-1.89,7.05,7.05,0,0,0-1.18-.64,6.76,6.76,0,0,0-1.3-.41A7.59,7.59,0,0,0,457,18a7.23,7.23,0,0,0-1.4.14,6.83,6.83,0,0,0-1.33.41,7,7,0,0,0-1.19.66,6.55,6.55,0,0,0-1.89,1.89,7.08,7.08,0,0,0-1.05,2.48A7.59,7.59,0,0,0,450,25ZM472,32a1,1,0,0,1,2,0v7a17,17,0,0,1-.35,3.42,16.72,16.72,0,0,1-1,3.18,16.71,16.71,0,0,1-9,9.06,1,1,0,1,1-.78-1.84,15.5,15.5,0,0,0,2.54-1.37,16,16,0,0,0,4-4,15.57,15.57,0,0,0,1.38-2.62,13.66,13.66,0,0,0,.87-2.81,14.67,14.67,0,0,0,.31-3ZM457,54a1,1,0,0,1,0,2,17,17,0,0,1-3.42-.35,16.36,16.36,0,0,1-3.19-1,17.31,17.31,0,0,1-2.9-1.57A16.87,16.87,0,0,1,445,51a1,1,0,0,1,1.44-1.4,14,14,0,0,0,2.2,1.87,15.3,15.3,0,0,0,2.55,1.38,13.66,13.66,0,0,0,2.81.87A14.67,14.67,0,0,0,457,54Zm-13.82-9.16a1,1,0,0,1-1.84.78,16.48,16.48,0,0,1-1-3.18A16.67,16.67,0,0,1,440,39V25a17,17,0,0,1,.35-3.42,16.36,16.36,0,0,1,1-3.19,17.31,17.31,0,0,1,1.57-2.9,17.81,17.81,0,0,1,4.58-4.58,17.5,17.5,0,0,1,2.89-1.56A17.21,17.21,0,0,1,457,8a17,17,0,0,1,3.42.35,16.72,16.72,0,0,1,3.18,1,16.68,16.68,0,0,1,7.55,6.16,17.5,17.5,0,0,1,1.56,2.89,16.24,16.24,0,0,1,1,3.2A16.49,16.49,0,0,1,474,25a1,1,0,0,1-2,0,14.46,14.46,0,0,0-.26-3,13.66,13.66,0,0,0-.87-2.81,15.5,15.5,0,0,0-1.37-2.54,15.79,15.79,0,0,0-4.05-4.06,15.57,15.57,0,0,0-2.62-1.38,13.66,13.66,0,0,0-2.81-.87,14.68,14.68,0,0,0-6,0,13.66,13.66,0,0,0-2.81.87,15.5,15.5,0,0,0-2.54,1.37,15.67,15.67,0,0,0-4.06,4.06,15.3,15.3,0,0,0-1.38,2.55,13.56,13.56,0,0,0-.87,2.82,14.51,14.51,0,0,0-.31,3V39a14.7,14.7,0,0,0,.31,3A13.66,13.66,0,0,0,443.18,44.84Zm32.88,7A1,1,0,0,1,477.72,53,25.35,25.35,0,0,1,471,59.72,24.79,24.79,0,0,1,457,64a1,1,0,0,1,0-2,22.84,22.84,0,0,0,8.93-1.81,23.32,23.32,0,0,0,10.13-8.36Zm-28,8.36a1,1,0,0,1-.78,1.84,24.84,24.84,0,0,1-4.24-2.31A25.35,25.35,0,0,1,436.28,53,24.79,24.79,0,0,1,432,39V25a24.89,24.89,0,0,1,2-9.71,1,1,0,1,1,1.84.78A23,23,0,0,0,434,25V39a23,23,0,0,0,1.81,8.93,23.32,23.32,0,0,0,12.26,12.26ZM440.76,8.76a1,1,0,1,1-1.42-1.42,25.9,25.9,0,0,1,3.71-3.06A24.89,24.89,0,0,1,466.71,2a24.37,24.37,0,0,1,4.23,2.31,25.14,25.14,0,0,1,3.76,3.06,1,1,0,0,1-1.4,1.42,23,23,0,0,0-3.47-2.82,23.42,23.42,0,0,0-3.9-2.13,22.93,22.93,0,0,0-17.86,0,23.42,23.42,0,0,0-3.9,2.13A23,23,0,0,0,440.76,8.76ZM481,18a24.47,24.47,0,0,1,1-2.72,1,1,0,1,1,1.84.78A23,23,0,0,0,482,25h0V39h0a23,23,0,0,0,1.81,8.93,23.42,23.42,0,0,0,2.13,3.9A1,1,0,1,1,484.28,53,24.79,24.79,0,0,1,480,39V25h0a23,23,0,0,0-1.81-8.92,1,1,0,0,1,1.84-.78A24.47,24.47,0,0,1,481,18Zm49,21a22.94,22.94,0,0,0,1.81,8.92,1,1,0,1,1-1.84.78A24.47,24.47,0,0,1,529,46a24.47,24.47,0,0,1-1,2.72,25,25,0,0,1-2.3,4.23,26.53,26.53,0,0,1-3,3.76,1,1,0,0,1-1.44-1.4,25.35,25.35,0,0,0,4.91-7.37A22.94,22.94,0,0,0,528,39h0V25h0a23.14,23.14,0,0,0-.47-4.62,1,1,0,0,1,2-.4,24.86,24.86,0,0,1,.51,5V39Z"/><path class="cls-1" d="M840,25a1,1,0,0,1,2,0V39a1,1,0,0,1-2,0Zm6-4.94a1,1,0,1,1,1.4-1.44A8.94,8.94,0,0,1,848.48,20a8,8,0,0,1,.84,1.54,8.61,8.61,0,0,1,.53,1.72A8.92,8.92,0,0,1,850,25V39a9.36,9.36,0,0,1-.18,1.82,8.77,8.77,0,0,1-.53,1.67,8,8,0,0,1-.82,1.53A8.78,8.78,0,0,1,846,46.45a8,8,0,0,1-1.54.84,8.84,8.84,0,0,1-1.7.53A9,9,0,0,1,841,48a9.36,9.36,0,0,1-1.82-.18,8.77,8.77,0,0,1-1.67-.53,8,8,0,0,1-1.53-.82A8.78,8.78,0,0,1,833.55,44a8,8,0,0,1-.84-1.54,8.84,8.84,0,0,1-.53-1.7A9,9,0,0,1,832,39V26.75a1,1,0,0,1,2,0V39a7.23,7.23,0,0,0,.14,1.4,6.83,6.83,0,0,0,.41,1.33,7,7,0,0,0,.66,1.19,6.55,6.55,0,0,0,1.89,1.89,7.05,7.05,0,0,0,1.18.64,6.76,6.76,0,0,0,1.3.41A7.59,7.59,0,0,0,841,46a7.23,7.23,0,0,0,1.4-.14,6.83,6.83,0,0,0,1.33-.41,7,7,0,0,0,1.19-.66,6.55,6.55,0,0,0,1.89-1.89,7.05,7.05,0,0,0,.64-1.18,6.76,6.76,0,0,0,.41-1.3A7.59,7.59,0,0,0,848,39V25a6.93,6.93,0,0,0-.11-1.39,7,7,0,0,0-.41-1.33,7.17,7.17,0,0,0-.65-1.18A6.09,6.09,0,0,0,846,20.06Zm-11.41,2.21a1,1,0,1,1-1.84-.76,8,8,0,0,1,.82-1.53A8.78,8.78,0,0,1,836,17.55a8,8,0,0,1,1.54-.84,8.84,8.84,0,0,1,1.7-.53A9,9,0,0,1,841,16a9.36,9.36,0,0,1,1.82.18,9.1,9.1,0,0,1,1.68.53,1,1,0,1,1-.78,1.84,6.76,6.76,0,0,0-1.3-.41A7.59,7.59,0,0,0,841,18a7.23,7.23,0,0,0-1.4.14,6.83,6.83,0,0,0-1.33.41,7,7,0,0,0-1.19.66,6.55,6.55,0,0,0-1.89,1.89A7.37,7.37,0,0,0,834.55,22.27ZM856,28.5a1,1,0,0,1,2,0V39a17,17,0,0,1-.35,3.42,16.72,16.72,0,0,1-1,3.18,17.38,17.38,0,0,1-1.57,2.95,1,1,0,1,1-1.66-1.1,15.57,15.57,0,0,0,1.38-2.62,13.66,13.66,0,0,0,.87-2.81,14.67,14.67,0,0,0,.31-3Zm-6.56,22.94a1,1,0,1,1,1.12,1.66,17.5,17.5,0,0,1-2.89,1.56A17.06,17.06,0,0,1,841,56a17,17,0,0,1-3.42-.35,16.36,16.36,0,0,1-3.19-1,17.31,17.31,0,0,1-2.9-1.57A16.87,16.87,0,0,1,829,51a1,1,0,0,1,1.44-1.4,14,14,0,0,0,2.2,1.87,15.3,15.3,0,0,0,2.55,1.38,13.66,13.66,0,0,0,2.81.87,14.7,14.7,0,0,0,3,.31,14.41,14.41,0,0,0,3.07-.31,13.66,13.66,0,0,0,2.81-.87A15.3,15.3,0,0,0,849.44,51.44Zm-22.26-6.6a1,1,0,1,1-1.84.78,16.48,16.48,0,0,1-1-3.18A16.67,16.67,0,0,1,824,39V25a17,17,0,0,1,.35-3.42,16.36,16.36,0,0,1,1-3.19,17.31,17.31,0,0,1,1.57-2.9A16.87,16.87,0,0,1,829,13a1,1,0,0,1,1.4,1.44,14,14,0,0,0-1.87,2.2,15.3,15.3,0,0,0-1.38,2.55,13.56,13.56,0,0,0-.87,2.82,14.51,14.51,0,0,0-.31,3V39a14.7,14.7,0,0,0,.31,3A13.66,13.66,0,0,0,827.18,44.84ZM838,10.31a1,1,0,1,1-.4-2,16.88,16.88,0,0,1,6.84,0,16.72,16.72,0,0,1,3.18,1,16.68,16.68,0,0,1,7.55,6.16,17.5,17.5,0,0,1,1.56,2.89,16.36,16.36,0,0,1,1,3.19,1,1,0,0,1-2,.4,13.66,13.66,0,0,0-.87-2.81,15.5,15.5,0,0,0-1.37-2.54,15.79,15.79,0,0,0-4-4.06,15.57,15.57,0,0,0-2.62-1.38,13.66,13.66,0,0,0-2.81-.87,14.87,14.87,0,0,0-6,0Zm24.21,37.62a1,1,0,1,1,1.84.78A24.84,24.84,0,0,1,861.72,53,25.35,25.35,0,0,1,855,59.72,24.89,24.89,0,0,1,831.29,62a24.37,24.37,0,0,1-4.23-2.31,24.91,24.91,0,0,1-3.71-3,1,1,0,1,1,1.4-1.42,24.08,24.08,0,0,0,3.42,2.77,23.42,23.42,0,0,0,3.9,2.13,22.93,22.93,0,0,0,17.86,0,23.32,23.32,0,0,0,12.26-12.26ZM819.81,16.07a1,1,0,0,1-1.84-.78,25.25,25.25,0,0,1,9.08-11,1,1,0,0,1,1.12,1.66,23.32,23.32,0,0,0-8.36,10.13Zm16.57-13.6a1,1,0,1,1-.4-2A24.93,24.93,0,0,1,850.71,2a1,1,0,0,1-.78,1.84,22.94,22.94,0,0,0-13.55-1.34Zm23.68,9.7a1,1,0,0,1,1.66-1.12A25.22,25.22,0,0,1,864,15.29,24.89,24.89,0,0,1,866,25V39a1,1,0,0,1-2,0V25a23,23,0,0,0-1.81-8.93A23.42,23.42,0,0,0,860.06,12.17ZM792,25a1,1,0,0,1,2,0V39a1,1,0,0,1-2,0Zm-6,3.5a1,1,0,0,1-2,0V25a9.36,9.36,0,0,1,.18-1.82,8.77,8.77,0,0,1,.53-1.67,8,8,0,0,1,.82-1.53A8.78,8.78,0,0,1,788,17.55a8,8,0,0,1,1.54-.84,8.84,8.84,0,0,1,1.7-.53,9.09,9.09,0,0,1,3.6,0,1,1,0,1,1-.38,2A7.59,7.59,0,0,0,793,18a7.23,7.23,0,0,0-1.4.14,6.83,6.83,0,0,0-1.33.41,7,7,0,0,0-1.19.66,6.55,6.55,0,0,0-1.89,1.89,7.08,7.08,0,0,0-1.05,2.48A7.59,7.59,0,0,0,786,25Zm10.92-9.29a1,1,0,0,1-.29-1.39,1,1,0,0,1,1.39-.28A8.62,8.62,0,0,1,800.45,20a8,8,0,0,1,.84,1.54,8.84,8.84,0,0,1,.53,1.7A9,9,0,0,1,802,25v8.75a1,1,0,0,1-2,0V25a7.23,7.23,0,0,0-.14-1.4,6.65,6.65,0,0,0-1.07-2.52A6.41,6.41,0,0,0,796.92,19.21ZM800,39a1,1,0,0,1,2,0,9.36,9.36,0,0,1-.18,1.82,8.77,8.77,0,0,1-.53,1.67,8,8,0,0,1-.82,1.53A8.78,8.78,0,0,1,798,46.45a8,8,0,0,1-1.54.84,8.84,8.84,0,0,1-1.7.53A9,9,0,0,1,793,48a9.36,9.36,0,0,1-1.82-.18,8.77,8.77,0,0,1-1.67-.53,8,8,0,0,1-1.53-.82A8.78,8.78,0,0,1,785.55,44a8,8,0,0,1-.84-1.54,8.84,8.84,0,0,1-.53-1.7A9,9,0,0,1,784,39V33.75a1,1,0,0,1,2,0V39a7.23,7.23,0,0,0,.14,1.4,6.83,6.83,0,0,0,.41,1.33,7,7,0,0,0,.66,1.19,6.55,6.55,0,0,0,1.89,1.89,7.05,7.05,0,0,0,1.18.64,6.76,6.76,0,0,0,1.3.41A7.59,7.59,0,0,0,793,46a7.23,7.23,0,0,0,1.4-.14,6.83,6.83,0,0,0,1.33-.41,7,7,0,0,0,1.19-.66,6.55,6.55,0,0,0,1.89-1.89,7.05,7.05,0,0,0,.64-1.18,6.76,6.76,0,0,0,.41-1.3A7.59,7.59,0,0,0,800,39Zm3.59,10.61A1,1,0,0,1,805,51a17.11,17.11,0,0,1-2.52,2.13,17.5,17.5,0,0,1-2.89,1.56,16.24,16.24,0,0,1-3.2,1A16.43,16.43,0,0,1,793,56a17,17,0,0,1-3.42-.35,16.36,16.36,0,0,1-3.19-1,17.5,17.5,0,0,1-2.89-1.56,17.73,17.73,0,0,1-4.6-4.54,17.5,17.5,0,0,1-1.56-2.89,1,1,0,0,1,1.84-.78,15.5,15.5,0,0,0,1.37,2.54,15.67,15.67,0,0,0,4.07,4,15.3,15.3,0,0,0,2.55,1.38,13.66,13.66,0,0,0,2.81.87,14.7,14.7,0,0,0,3,.31,14.51,14.51,0,0,0,3-.27,13.66,13.66,0,0,0,2.81-.87,15.5,15.5,0,0,0,2.54-1.37A14.18,14.18,0,0,0,803.59,49.61ZM778,39a1,1,0,0,1-2,0V25a17,17,0,0,1,.35-3.42,16.36,16.36,0,0,1,1-3.19,17.31,17.31,0,0,1,1.57-2.9,17.81,17.81,0,0,1,4.58-4.58,17.5,17.5,0,0,1,2.89-1.56A17.21,17.21,0,0,1,793,8a17,17,0,0,1,3.42.35,1,1,0,0,1-.4,2,14.68,14.68,0,0,0-6,0,13.66,13.66,0,0,0-2.81.87,15.5,15.5,0,0,0-2.54,1.37,15.67,15.67,0,0,0-4.06,4.06,15.3,15.3,0,0,0-1.38,2.55,13.56,13.56,0,0,0-.87,2.82,14.51,14.51,0,0,0-.31,3Zm23.43-26.45a1,1,0,1,1,1.14-1.64,17.81,17.81,0,0,1,4.58,4.58,17.5,17.5,0,0,1,1.56,2.89,16.24,16.24,0,0,1,1,3.2A16.42,16.42,0,0,1,810,25V39a17,17,0,0,1-.35,3.42,16.36,16.36,0,0,1-1,3.19,1,1,0,0,1-1.84-.78,13.66,13.66,0,0,0,.87-2.81,14.67,14.67,0,0,0,.31-3V25a14.46,14.46,0,0,0-.26-3,13.66,13.66,0,0,0-.87-2.81,15.5,15.5,0,0,0-1.37-2.54A15.75,15.75,0,0,0,801.43,12.55ZM776.76,8.76a1,1,0,1,1-1.42-1.42,25.9,25.9,0,0,1,3.71-3.06,24.84,24.84,0,0,1,27.9,0,25.35,25.35,0,0,1,6.77,6.77,1,1,0,0,1-1.66,1.12,23.32,23.32,0,0,0-10.13-8.36,22.93,22.93,0,0,0-17.86,0,23.42,23.42,0,0,0-3.9,2.13A23,23,0,0,0,776.76,8.76Zm29.07,49.3A1,1,0,1,1,807,59.72a24.84,24.84,0,0,1-27.9,0,1,1,0,1,1,1.12-1.66,23.42,23.42,0,0,0,3.9,2.13,22.93,22.93,0,0,0,17.86,0A23.42,23.42,0,0,0,805.83,58.06ZM744,25a1,1,0,0,1,2,0v5.25a1,1,0,0,1-2,0Zm0,10.5a1,1,0,0,1,2,0V39a1,1,0,0,1-2,0Zm8,0a1,1,0,0,1,2,0V39a9.36,9.36,0,0,1-.18,1.82,8.77,8.77,0,0,1-.53,1.67,8,8,0,0,1-.82,1.53A8.78,8.78,0,0,1,750,46.45a8,8,0,0,1-1.54.84,8.84,8.84,0,0,1-1.7.53A9,9,0,0,1,745,48a9.36,9.36,0,0,1-1.82-.18,8.77,8.77,0,0,1-1.67-.53,8,8,0,0,1-1.53-.82A8.78,8.78,0,0,1,737.55,44a8,8,0,0,1-.84-1.54,8.84,8.84,0,0,1-.53-1.7A9,9,0,0,1,736,39V35.5a1,1,0,0,1,2,0V39a7.23,7.23,0,0,0,.14,1.4,6.83,6.83,0,0,0,.41,1.33,7,7,0,0,0,.66,1.19,6.55,6.55,0,0,0,1.89,1.89,7.05,7.05,0,0,0,1.18.64,6.76,6.76,0,0,0,1.3.41A7.59,7.59,0,0,0,745,46a7.23,7.23,0,0,0,1.4-.14,6.83,6.83,0,0,0,1.33-.41,7,7,0,0,0,1.19-.66,6.55,6.55,0,0,0,1.89-1.89,7.05,7.05,0,0,0,.64-1.18,6.76,6.76,0,0,0,.41-1.3A7.59,7.59,0,0,0,752,39Zm-14-5.25a1,1,0,0,1-2,0V25a9.36,9.36,0,0,1,.18-1.82,8.77,8.77,0,0,1,.53-1.67,8,8,0,0,1,.82-1.53A8.78,8.78,0,0,1,740,17.55a8,8,0,0,1,1.54-.84,8.84,8.84,0,0,1,1.7-.53A9,9,0,0,1,745,16a9.36,9.36,0,0,1,1.82.18,8.77,8.77,0,0,1,1.67.53,7.51,7.51,0,0,1,1.53.83A8.62,8.62,0,0,1,752.45,20a8,8,0,0,1,.84,1.54,8.84,8.84,0,0,1,.53,1.7A9,9,0,0,1,754,25v7a1,1,0,0,1-2,0V25a7.23,7.23,0,0,0-.14-1.4,6.65,6.65,0,0,0-1.07-2.52,6.55,6.55,0,0,0-1.89-1.89,7.05,7.05,0,0,0-1.18-.64,6.76,6.76,0,0,0-1.3-.41A7.59,7.59,0,0,0,745,18a7.23,7.23,0,0,0-1.4.14,6.83,6.83,0,0,0-1.33.41,7,7,0,0,0-1.19.66,6.55,6.55,0,0,0-1.89,1.89,7.08,7.08,0,0,0-1.05,2.48A7.59,7.59,0,0,0,738,25ZM760,32a1,1,0,0,1,2,0v7a17,17,0,0,1-.35,3.42,16.72,16.72,0,0,1-1,3.18,16.71,16.71,0,0,1-9,9.06,1,1,0,0,1-.78-1.84,15.5,15.5,0,0,0,2.54-1.37,16,16,0,0,0,4-4,15.57,15.57,0,0,0,1.38-2.62,13.66,13.66,0,0,0,.87-2.81,14.67,14.67,0,0,0,.31-3ZM745,54a1,1,0,0,1,0,2,17,17,0,0,1-3.42-.35,16.36,16.36,0,0,1-3.19-1,17.31,17.31,0,0,1-2.9-1.57A16.87,16.87,0,0,1,733,51a1,1,0,0,1,1.44-1.4,14,14,0,0,0,2.2,1.87,15.3,15.3,0,0,0,2.55,1.38,13.66,13.66,0,0,0,2.81.87A14.67,14.67,0,0,0,745,54Zm-13.82-9.16a1,1,0,1,1-1.84.78,16.48,16.48,0,0,1-1-3.18A16.67,16.67,0,0,1,728,39V25a17,17,0,0,1,.35-3.42,16.36,16.36,0,0,1,1-3.19,17.31,17.31,0,0,1,1.57-2.9,17.81,17.81,0,0,1,4.58-4.58,17.5,17.5,0,0,1,2.89-1.56A17.21,17.21,0,0,1,745,8a17,17,0,0,1,3.42.35,16.72,16.72,0,0,1,3.18,1,16.68,16.68,0,0,1,7.55,6.16,17.5,17.5,0,0,1,1.56,2.89,16.24,16.24,0,0,1,1,3.2A16.49,16.49,0,0,1,762,25a1,1,0,0,1-2,0,14.46,14.46,0,0,0-.26-3,13.66,13.66,0,0,0-.87-2.81,15.5,15.5,0,0,0-1.37-2.54,15.79,15.79,0,0,0-4-4.06,15.57,15.57,0,0,0-2.62-1.38,13.66,13.66,0,0,0-2.81-.87,14.68,14.68,0,0,0-6,0,13.66,13.66,0,0,0-2.81.87,15.5,15.5,0,0,0-2.54,1.37,15.67,15.67,0,0,0-4.06,4.06,15.3,15.3,0,0,0-1.38,2.55,13.56,13.56,0,0,0-.87,2.82,14.51,14.51,0,0,0-.31,3V39a14.7,14.7,0,0,0,.31,3A13.66,13.66,0,0,0,731.18,44.84Zm32.88,7A1,1,0,0,1,765.72,53,25.35,25.35,0,0,1,759,59.72,24.79,24.79,0,0,1,745,64a1,1,0,0,1,0-2,22.84,22.84,0,0,0,8.93-1.81,23.32,23.32,0,0,0,10.13-8.36Zm-28,8.36a1,1,0,1,1-.78,1.84,24.84,24.84,0,0,1-4.24-2.31A25.35,25.35,0,0,1,724.28,53,24.79,24.79,0,0,1,720,39V25a24.89,24.89,0,0,1,2-9.71,1,1,0,1,1,1.84.78A23,23,0,0,0,722,25V39a23,23,0,0,0,1.81,8.93,23.32,23.32,0,0,0,12.26,12.26ZM728.76,8.76a1,1,0,1,1-1.42-1.42,25.9,25.9,0,0,1,3.71-3.06A24.89,24.89,0,0,1,754.71,2a24.37,24.37,0,0,1,4.23,2.31,25.14,25.14,0,0,1,3.76,3.06,1,1,0,0,1-1.4,1.42,23,23,0,0,0-3.47-2.82,23.42,23.42,0,0,0-3.9-2.13,22.93,22.93,0,0,0-17.86,0,23.42,23.42,0,0,0-3.9,2.13A23,23,0,0,0,728.76,8.76ZM769,18a24.47,24.47,0,0,1,1-2.72,1,1,0,1,1,1.84.78A23,23,0,0,0,770,25h0V39h0a23,23,0,0,0,1.81,8.93,23.42,23.42,0,0,0,2.13,3.9A1,1,0,0,1,772.28,53,24.79,24.79,0,0,1,768,39V25h0a23,23,0,0,0-1.81-8.92,1,1,0,0,1,1.84-.78A24.47,24.47,0,0,1,769,18Zm49,21a22.94,22.94,0,0,0,1.81,8.92,1,1,0,1,1-1.84.78A24.47,24.47,0,0,1,817,46a24.47,24.47,0,0,1-1,2.72,25,25,0,0,1-2.3,4.23,26.53,26.53,0,0,1-3,3.76,1,1,0,0,1-1.44-1.4,25.35,25.35,0,0,0,4.91-7.37A22.94,22.94,0,0,0,816,39h0V25h0a23.14,23.14,0,0,0-.47-4.62,1,1,0,0,1,2-.4,24.86,24.86,0,0,1,.51,5V39Z"/><path class="cls-1" d="M696,25a1,1,0,0,1,2,0V39a1,1,0,0,1-2,0Zm6-4.94a1,1,0,1,1,1.4-1.44A8.94,8.94,0,0,1,704.48,20a8,8,0,0,1,.84,1.54,8.61,8.61,0,0,1,.53,1.72A8.92,8.92,0,0,1,706,25V39a9.36,9.36,0,0,1-.18,1.82,8.77,8.77,0,0,1-.53,1.67,8,8,0,0,1-.82,1.53A8.78,8.78,0,0,1,702,46.45a8,8,0,0,1-1.54.84,8.84,8.84,0,0,1-1.7.53A9,9,0,0,1,697,48a9.36,9.36,0,0,1-1.82-.18,8.77,8.77,0,0,1-1.67-.53,8,8,0,0,1-1.53-.82A8.78,8.78,0,0,1,689.55,44a8,8,0,0,1-.84-1.54,8.84,8.84,0,0,1-.53-1.7A9,9,0,0,1,688,39V26.75a1,1,0,0,1,2,0V39a7.23,7.23,0,0,0,.14,1.4,6.83,6.83,0,0,0,.41,1.33,7,7,0,0,0,.66,1.19,6.55,6.55,0,0,0,1.89,1.89,7.05,7.05,0,0,0,1.18.64,6.76,6.76,0,0,0,1.3.41A7.59,7.59,0,0,0,697,46a7.23,7.23,0,0,0,1.4-.14,6.83,6.83,0,0,0,1.33-.41,7,7,0,0,0,1.19-.66,6.55,6.55,0,0,0,1.89-1.89,7.05,7.05,0,0,0,.64-1.18,6.76,6.76,0,0,0,.41-1.3A7.59,7.59,0,0,0,704,39V25a6.93,6.93,0,0,0-.11-1.39,7,7,0,0,0-.41-1.33,7.17,7.17,0,0,0-.65-1.18A6.09,6.09,0,0,0,702,20.06Zm-11.41,2.21a1,1,0,1,1-1.84-.76,8,8,0,0,1,.82-1.53A8.78,8.78,0,0,1,692,17.55a8,8,0,0,1,1.54-.84,8.84,8.84,0,0,1,1.7-.53A9,9,0,0,1,697,16a9.36,9.36,0,0,1,1.82.18,9.1,9.1,0,0,1,1.68.53,1,1,0,1,1-.78,1.84,6.76,6.76,0,0,0-1.3-.41A7.59,7.59,0,0,0,697,18a7.23,7.23,0,0,0-1.4.14,6.83,6.83,0,0,0-1.33.41,7,7,0,0,0-1.19.66,6.55,6.55,0,0,0-1.89,1.89A7.37,7.37,0,0,0,690.55,22.27ZM712,28.5a1,1,0,0,1,2,0V39a17,17,0,0,1-.35,3.42,16.72,16.72,0,0,1-1,3.18,17.38,17.38,0,0,1-1.57,2.95,1,1,0,1,1-1.66-1.1,15.57,15.57,0,0,0,1.38-2.62,13.66,13.66,0,0,0,.87-2.81,14.67,14.67,0,0,0,.31-3Zm-6.56,22.94a1,1,0,1,1,1.12,1.66,17.5,17.5,0,0,1-2.89,1.56A17.06,17.06,0,0,1,697,56a17,17,0,0,1-3.42-.35,16.36,16.36,0,0,1-3.19-1,17.31,17.31,0,0,1-2.9-1.57A16.87,16.87,0,0,1,685,51a1,1,0,0,1,1.44-1.4,14,14,0,0,0,2.2,1.87,15.3,15.3,0,0,0,2.55,1.38,13.66,13.66,0,0,0,2.81.87,14.7,14.7,0,0,0,3,.31,14.41,14.41,0,0,0,3.07-.31,13.66,13.66,0,0,0,2.81-.87A15.3,15.3,0,0,0,705.44,51.44Zm-22.26-6.6a1,1,0,1,1-1.84.78,16.48,16.48,0,0,1-1-3.18A16.67,16.67,0,0,1,680,39V25a17,17,0,0,1,.35-3.42,16.36,16.36,0,0,1,1-3.19,17.31,17.31,0,0,1,1.57-2.9A16.87,16.87,0,0,1,685,13a1,1,0,0,1,1.4,1.44,14,14,0,0,0-1.87,2.2,15.3,15.3,0,0,0-1.38,2.55,13.56,13.56,0,0,0-.87,2.82,14.51,14.51,0,0,0-.31,3V39a14.7,14.7,0,0,0,.31,3A13.66,13.66,0,0,0,683.18,44.84ZM694,10.31a1,1,0,0,1-.4-2,16.88,16.88,0,0,1,6.84,0,16.72,16.72,0,0,1,3.18,1,16.68,16.68,0,0,1,7.55,6.16,17.5,17.5,0,0,1,1.56,2.89,16.36,16.36,0,0,1,1,3.19,1,1,0,0,1-2,.4,13.66,13.66,0,0,0-.87-2.81,15.5,15.5,0,0,0-1.37-2.54,15.79,15.79,0,0,0-4-4.06,15.57,15.57,0,0,0-2.62-1.38,13.66,13.66,0,0,0-2.81-.87,14.87,14.87,0,0,0-6,0Zm24.21,37.62a1,1,0,1,1,1.84.78A24.84,24.84,0,0,1,717.72,53,25.35,25.35,0,0,1,711,59.72,24.89,24.89,0,0,1,687.29,62a24.37,24.37,0,0,1-4.23-2.31,24.91,24.91,0,0,1-3.71-3,1,1,0,1,1,1.4-1.42,24.08,24.08,0,0,0,3.42,2.77,23.42,23.42,0,0,0,3.9,2.13,22.93,22.93,0,0,0,17.86,0,23.32,23.32,0,0,0,12.26-12.26ZM675.81,16.07a1,1,0,0,1-1.84-.78,25.25,25.25,0,0,1,9.08-11,1,1,0,0,1,1.12,1.66,23.32,23.32,0,0,0-8.36,10.13Zm16.57-13.6a1,1,0,1,1-.4-2A24.93,24.93,0,0,1,706.71,2a1,1,0,1,1-.78,1.84,22.94,22.94,0,0,0-13.55-1.34Zm23.68,9.7a1,1,0,1,1,1.66-1.12A25.22,25.22,0,0,1,720,15.29,24.89,24.89,0,0,1,722,25V39a1,1,0,0,1-2,0V25a23,23,0,0,0-1.81-8.93A23.42,23.42,0,0,0,716.06,12.17ZM648,25a1,1,0,0,1,2,0V39a1,1,0,0,1-2,0Zm-6,3.5a1,1,0,0,1-2,0V25a9.36,9.36,0,0,1,.18-1.82,8.77,8.77,0,0,1,.53-1.67,8,8,0,0,1,.82-1.53A8.78,8.78,0,0,1,644,17.55a8,8,0,0,1,1.54-.84,8.84,8.84,0,0,1,1.7-.53,9.09,9.09,0,0,1,3.6,0,1,1,0,0,1-.38,2A7.59,7.59,0,0,0,649,18a7.23,7.23,0,0,0-1.4.14,6.83,6.83,0,0,0-1.33.41,7,7,0,0,0-1.19.66,6.55,6.55,0,0,0-1.89,1.89,7.08,7.08,0,0,0-1.05,2.48A7.59,7.59,0,0,0,642,25Zm10.92-9.29a1,1,0,0,1-.29-1.39,1,1,0,0,1,1.39-.28A8.62,8.62,0,0,1,656.45,20a8,8,0,0,1,.84,1.54,8.84,8.84,0,0,1,.53,1.7A9,9,0,0,1,658,25v8.75a1,1,0,0,1-2,0V25a7.23,7.23,0,0,0-.14-1.4,6.65,6.65,0,0,0-1.07-2.52A6.41,6.41,0,0,0,652.92,19.21ZM656,39a1,1,0,0,1,2,0,9.36,9.36,0,0,1-.18,1.82,8.77,8.77,0,0,1-.53,1.67,8,8,0,0,1-.82,1.53A8.78,8.78,0,0,1,654,46.45a8,8,0,0,1-1.54.84,8.84,8.84,0,0,1-1.7.53A9,9,0,0,1,649,48a9.36,9.36,0,0,1-1.82-.18,8.77,8.77,0,0,1-1.67-.53,8,8,0,0,1-1.53-.82A8.78,8.78,0,0,1,641.55,44a8,8,0,0,1-.84-1.54,8.84,8.84,0,0,1-.53-1.7A9,9,0,0,1,640,39V33.75a1,1,0,0,1,2,0V39a7.23,7.23,0,0,0,.14,1.4,6.83,6.83,0,0,0,.41,1.33,7,7,0,0,0,.66,1.19,6.55,6.55,0,0,0,1.89,1.89,7.05,7.05,0,0,0,1.18.64,6.76,6.76,0,0,0,1.3.41A7.59,7.59,0,0,0,649,46a7.23,7.23,0,0,0,1.4-.14,6.83,6.83,0,0,0,1.33-.41,7,7,0,0,0,1.19-.66,6.55,6.55,0,0,0,1.89-1.89,7.05,7.05,0,0,0,.64-1.18,6.76,6.76,0,0,0,.41-1.3A7.59,7.59,0,0,0,656,39Zm3.59,10.61A1,1,0,0,1,661,51a17.11,17.11,0,0,1-2.52,2.13,17.5,17.5,0,0,1-2.89,1.56,16.24,16.24,0,0,1-3.2,1A16.43,16.43,0,0,1,649,56a17,17,0,0,1-3.42-.35,16.36,16.36,0,0,1-3.19-1,17.5,17.5,0,0,1-2.89-1.56,17.73,17.73,0,0,1-4.6-4.54,17.5,17.5,0,0,1-1.56-2.89,1,1,0,0,1,1.84-.78,15.5,15.5,0,0,0,1.37,2.54,15.67,15.67,0,0,0,4.07,4,15.3,15.3,0,0,0,2.55,1.38,13.66,13.66,0,0,0,2.81.87,14.7,14.7,0,0,0,3,.31,14.51,14.51,0,0,0,3-.27,13.66,13.66,0,0,0,2.81-.87,15.5,15.5,0,0,0,2.54-1.37A14.18,14.18,0,0,0,659.59,49.61ZM634,39a1,1,0,0,1-2,0V25a17,17,0,0,1,.35-3.42,16.36,16.36,0,0,1,1-3.19,17.31,17.31,0,0,1,1.57-2.9,17.81,17.81,0,0,1,4.58-4.58,17.5,17.5,0,0,1,2.89-1.56A17.21,17.21,0,0,1,649,8a17,17,0,0,1,3.42.35,1,1,0,1,1-.4,2,14.68,14.68,0,0,0-6,0,13.66,13.66,0,0,0-2.81.87,15.5,15.5,0,0,0-2.54,1.37,15.67,15.67,0,0,0-4.06,4.06,15.3,15.3,0,0,0-1.38,2.55,13.56,13.56,0,0,0-.87,2.82,14.51,14.51,0,0,0-.31,3Zm23.43-26.45a1,1,0,1,1,1.14-1.64,17.81,17.81,0,0,1,4.58,4.58,17.5,17.5,0,0,1,1.56,2.89,16.24,16.24,0,0,1,1,3.2A16.42,16.42,0,0,1,666,25V39a17,17,0,0,1-.35,3.42,16.36,16.36,0,0,1-1,3.19,1,1,0,0,1-1.84-.78,13.66,13.66,0,0,0,.87-2.81,14.67,14.67,0,0,0,.31-3V25a14.46,14.46,0,0,0-.26-3,13.66,13.66,0,0,0-.87-2.81,15.5,15.5,0,0,0-1.37-2.54A15.75,15.75,0,0,0,657.43,12.55ZM632.76,8.76a1,1,0,1,1-1.42-1.42,25.9,25.9,0,0,1,3.71-3.06,24.84,24.84,0,0,1,27.9,0,25.35,25.35,0,0,1,6.77,6.77,1,1,0,0,1-1.66,1.12,23.32,23.32,0,0,0-10.13-8.36,22.93,22.93,0,0,0-17.86,0,23.42,23.42,0,0,0-3.9,2.13A23,23,0,0,0,632.76,8.76Zm29.07,49.3A1,1,0,0,1,663,59.72a24.84,24.84,0,0,1-27.9,0,1,1,0,1,1,1.12-1.66,23.42,23.42,0,0,0,3.9,2.13,22.93,22.93,0,0,0,17.86,0A23.42,23.42,0,0,0,661.83,58.06ZM600,25a1,1,0,0,1,2,0v5.25a1,1,0,0,1-2,0Zm0,10.5a1,1,0,0,1,2,0V39a1,1,0,0,1-2,0Zm8,0a1,1,0,0,1,2,0V39a9.36,9.36,0,0,1-.18,1.82,8.77,8.77,0,0,1-.53,1.67,8,8,0,0,1-.82,1.53A8.78,8.78,0,0,1,606,46.45a8,8,0,0,1-1.54.84,8.84,8.84,0,0,1-1.7.53A9,9,0,0,1,601,48a9.36,9.36,0,0,1-1.82-.18,8.77,8.77,0,0,1-1.67-.53,8,8,0,0,1-1.53-.82A8.78,8.78,0,0,1,593.55,44a8,8,0,0,1-.84-1.54,8.84,8.84,0,0,1-.53-1.7A9,9,0,0,1,592,39V35.5a1,1,0,0,1,2,0V39a7.23,7.23,0,0,0,.14,1.4,6.83,6.83,0,0,0,.41,1.33,7,7,0,0,0,.66,1.19,6.55,6.55,0,0,0,1.89,1.89,7.05,7.05,0,0,0,1.18.64,6.76,6.76,0,0,0,1.3.41A7.59,7.59,0,0,0,601,46a7.23,7.23,0,0,0,1.4-.14,6.83,6.83,0,0,0,1.33-.41,7,7,0,0,0,1.19-.66,6.55,6.55,0,0,0,1.89-1.89,7.05,7.05,0,0,0,.64-1.18,6.76,6.76,0,0,0,.41-1.3A7.59,7.59,0,0,0,608,39Zm-14-5.25a1,1,0,0,1-2,0V25a9.36,9.36,0,0,1,.18-1.82,8.77,8.77,0,0,1,.53-1.67,8,8,0,0,1,.82-1.53A8.78,8.78,0,0,1,596,17.55a8,8,0,0,1,1.54-.84,8.84,8.84,0,0,1,1.7-.53A9,9,0,0,1,601,16a9.36,9.36,0,0,1,1.82.18,8.77,8.77,0,0,1,1.67.53,7.51,7.51,0,0,1,1.53.83A8.62,8.62,0,0,1,608.45,20a8,8,0,0,1,.84,1.54,8.84,8.84,0,0,1,.53,1.7A9,9,0,0,1,610,25v7a1,1,0,0,1-2,0V25a7.23,7.23,0,0,0-.14-1.4,6.65,6.65,0,0,0-1.07-2.52,6.55,6.55,0,0,0-1.89-1.89,7.05,7.05,0,0,0-1.18-.64,6.76,6.76,0,0,0-1.3-.41A7.59,7.59,0,0,0,601,18a7.23,7.23,0,0,0-1.4.14,6.83,6.83,0,0,0-1.33.41,7,7,0,0,0-1.19.66,6.55,6.55,0,0,0-1.89,1.89,7.08,7.08,0,0,0-1.05,2.48A7.59,7.59,0,0,0,594,25ZM616,32a1,1,0,0,1,2,0v7a17,17,0,0,1-.35,3.42,16.72,16.72,0,0,1-1,3.18,16.71,16.71,0,0,1-9,9.06,1,1,0,0,1-.78-1.84,15.5,15.5,0,0,0,2.54-1.37,16,16,0,0,0,4-4,15.57,15.57,0,0,0,1.38-2.62,13.66,13.66,0,0,0,.87-2.81,14.67,14.67,0,0,0,.31-3ZM601,54a1,1,0,0,1,0,2,17,17,0,0,1-3.42-.35,16.36,16.36,0,0,1-3.19-1,17.31,17.31,0,0,1-2.9-1.57A16.87,16.87,0,0,1,589,51a1,1,0,0,1,1.44-1.4,14,14,0,0,0,2.2,1.87,15.3,15.3,0,0,0,2.55,1.38,13.66,13.66,0,0,0,2.81.87A14.67,14.67,0,0,0,601,54Zm-13.82-9.16a1,1,0,1,1-1.84.78,16.48,16.48,0,0,1-1-3.18A16.67,16.67,0,0,1,584,39V25a17,17,0,0,1,.35-3.42,16.36,16.36,0,0,1,1-3.19,17.31,17.31,0,0,1,1.57-2.9,17.81,17.81,0,0,1,4.58-4.58,17.5,17.5,0,0,1,2.89-1.56A17.21,17.21,0,0,1,601,8a17,17,0,0,1,3.42.35,16.72,16.72,0,0,1,3.18,1,16.68,16.68,0,0,1,7.55,6.16,17.5,17.5,0,0,1,1.56,2.89,16.24,16.24,0,0,1,1,3.2A16.49,16.49,0,0,1,618,25a1,1,0,0,1-2,0,14.46,14.46,0,0,0-.26-3,13.66,13.66,0,0,0-.87-2.81,15.5,15.5,0,0,0-1.37-2.54,15.79,15.79,0,0,0-4-4.06,15.57,15.57,0,0,0-2.62-1.38,13.66,13.66,0,0,0-2.81-.87,14.68,14.68,0,0,0-6,0,13.66,13.66,0,0,0-2.81.87,15.5,15.5,0,0,0-2.54,1.37,15.67,15.67,0,0,0-4.06,4.06,15.3,15.3,0,0,0-1.38,2.55,13.56,13.56,0,0,0-.87,2.82,14.51,14.51,0,0,0-.31,3V39a14.7,14.7,0,0,0,.31,3A13.66,13.66,0,0,0,587.18,44.84Zm32.88,7A1,1,0,0,1,621.72,53,25.35,25.35,0,0,1,615,59.72,24.79,24.79,0,0,1,601,64a1,1,0,0,1,0-2,22.84,22.84,0,0,0,8.93-1.81,23.32,23.32,0,0,0,10.13-8.36Zm-28,8.36a1,1,0,1,1-.78,1.84,24.84,24.84,0,0,1-4.24-2.31A25.35,25.35,0,0,1,580.28,53,24.79,24.79,0,0,1,576,39V25a24.89,24.89,0,0,1,2-9.71,1,1,0,1,1,1.84.78A23,23,0,0,0,578,25V39a23,23,0,0,0,1.81,8.93,23.32,23.32,0,0,0,12.26,12.26ZM584.76,8.76a1,1,0,1,1-1.42-1.42,25.9,25.9,0,0,1,3.71-3.06A24.89,24.89,0,0,1,610.71,2a24.37,24.37,0,0,1,4.23,2.31,25.14,25.14,0,0,1,3.76,3.06,1,1,0,0,1-1.4,1.42,23,23,0,0,0-3.47-2.82,23.42,23.42,0,0,0-3.9-2.13,22.93,22.93,0,0,0-17.86,0,23.42,23.42,0,0,0-3.9,2.13A23,23,0,0,0,584.76,8.76ZM625,18a24.47,24.47,0,0,1,1-2.72,1,1,0,1,1,1.84.78A23,23,0,0,0,626,25h0V39h0a23,23,0,0,0,1.81,8.93,23.42,23.42,0,0,0,2.13,3.9A1,1,0,0,1,628.28,53,24.79,24.79,0,0,1,624,39V25h0a23,23,0,0,0-1.81-8.92,1,1,0,0,1,1.84-.78A24.47,24.47,0,0,1,625,18Zm49,21a22.94,22.94,0,0,0,1.81,8.92,1,1,0,1,1-1.84.78A24.47,24.47,0,0,1,673,46a24.47,24.47,0,0,1-1,2.72,25,25,0,0,1-2.3,4.23,26.53,26.53,0,0,1-3,3.76,1,1,0,0,1-1.44-1.4,25.35,25.35,0,0,0,4.91-7.37A22.94,22.94,0,0,0,672,39h0V25h0a23.14,23.14,0,0,0-.47-4.62,1,1,0,0,1,2-.4,24.86,24.86,0,0,1,.51,5V39Z"/><path class="cls-1" d="M984,25a1,1,0,0,1,2,0V39a1,1,0,0,1-2,0Zm6-4.94a1,1,0,1,1,1.4-1.44A8.94,8.94,0,0,1,992.48,20a8,8,0,0,1,.84,1.54,8.61,8.61,0,0,1,.53,1.72A8.92,8.92,0,0,1,994,25V39a9.36,9.36,0,0,1-.18,1.82,8.77,8.77,0,0,1-.53,1.67,8,8,0,0,1-.82,1.53A8.78,8.78,0,0,1,990,46.45a8,8,0,0,1-1.54.84,8.84,8.84,0,0,1-1.7.53A9,9,0,0,1,985,48a9.36,9.36,0,0,1-1.82-.18,8.77,8.77,0,0,1-1.67-.53,8,8,0,0,1-1.53-.82A8.78,8.78,0,0,1,977.55,44a8,8,0,0,1-.84-1.54,8.84,8.84,0,0,1-.53-1.7A9,9,0,0,1,976,39V26.75a1,1,0,0,1,2,0V39a7.23,7.23,0,0,0,.14,1.4,6.83,6.83,0,0,0,.41,1.33,7,7,0,0,0,.66,1.19,6.55,6.55,0,0,0,1.89,1.89,7.05,7.05,0,0,0,1.18.64,6.76,6.76,0,0,0,1.3.41A7.59,7.59,0,0,0,985,46a7.23,7.23,0,0,0,1.4-.14,6.83,6.83,0,0,0,1.33-.41,7,7,0,0,0,1.19-.66,6.55,6.55,0,0,0,1.89-1.89,7.05,7.05,0,0,0,.64-1.18,6.76,6.76,0,0,0,.41-1.3A7.59,7.59,0,0,0,992,39V25a6.93,6.93,0,0,0-.11-1.39,7,7,0,0,0-.41-1.33,7.17,7.17,0,0,0-.65-1.18A6.09,6.09,0,0,0,990,20.06Zm-11.41,2.21a1,1,0,1,1-1.84-.76,8,8,0,0,1,.82-1.53A8.78,8.78,0,0,1,980,17.55a8,8,0,0,1,1.54-.84,8.84,8.84,0,0,1,1.7-.53A9,9,0,0,1,985,16a9.36,9.36,0,0,1,1.82.18,9.1,9.1,0,0,1,1.68.53,1,1,0,1,1-.78,1.84,6.76,6.76,0,0,0-1.3-.41A7.59,7.59,0,0,0,985,18a7.23,7.23,0,0,0-1.4.14,6.83,6.83,0,0,0-1.33.41,7,7,0,0,0-1.19.66,6.55,6.55,0,0,0-1.89,1.89A7.37,7.37,0,0,0,978.55,22.27ZM1000,28.5a1,1,0,0,1,2,0V39a17,17,0,0,1-.35,3.42,16.72,16.72,0,0,1-1,3.18,17.38,17.38,0,0,1-1.57,2.95,1,1,0,1,1-1.66-1.1,15.57,15.57,0,0,0,1.38-2.62,13.66,13.66,0,0,0,.87-2.81,14.67,14.67,0,0,0,.31-3Zm-6.56,22.94a1,1,0,1,1,1.12,1.66,17.5,17.5,0,0,1-2.89,1.56A17.06,17.06,0,0,1,985,56a17,17,0,0,1-3.42-.35,16.36,16.36,0,0,1-3.19-1,17.31,17.31,0,0,1-2.9-1.57A16.87,16.87,0,0,1,973,51a1,1,0,0,1,1.44-1.4,14,14,0,0,0,2.2,1.87,15.3,15.3,0,0,0,2.55,1.38,13.66,13.66,0,0,0,2.81.87,14.7,14.7,0,0,0,3,.31,14.41,14.41,0,0,0,3.07-.31,13.66,13.66,0,0,0,2.81-.87A15.3,15.3,0,0,0,993.44,51.44Zm-22.26-6.6a1,1,0,1,1-1.84.78,16.48,16.48,0,0,1-1-3.18A16.67,16.67,0,0,1,968,39V25a17,17,0,0,1,.35-3.42,16.36,16.36,0,0,1,1-3.19,17.31,17.31,0,0,1,1.57-2.9A16.87,16.87,0,0,1,973,13a1,1,0,1,1,1.4,1.44,14,14,0,0,0-1.87,2.2,15.3,15.3,0,0,0-1.38,2.55,13.56,13.56,0,0,0-.87,2.82,14.51,14.51,0,0,0-.31,3V39a14.7,14.7,0,0,0,.31,3A13.66,13.66,0,0,0,971.18,44.84ZM982,10.31a1,1,0,1,1-.4-2,16.88,16.88,0,0,1,6.84,0,16.72,16.72,0,0,1,3.18,1,16.68,16.68,0,0,1,7.55,6.16,17.5,17.5,0,0,1,1.56,2.89,16.36,16.36,0,0,1,1,3.19,1,1,0,0,1-2,.4,13.66,13.66,0,0,0-.87-2.81,15.5,15.5,0,0,0-1.37-2.54,15.79,15.79,0,0,0-4-4.06,15.57,15.57,0,0,0-2.62-1.38,13.66,13.66,0,0,0-2.81-.87,14.87,14.87,0,0,0-6,0Zm24.21,37.62a1,1,0,1,1,1.84.78,24.84,24.84,0,0,1-2.31,4.24A25.35,25.35,0,0,1,999,59.72,24.89,24.89,0,0,1,975.29,62a24.37,24.37,0,0,1-4.23-2.31,24.91,24.91,0,0,1-3.71-3,1,1,0,1,1,1.4-1.42,24.08,24.08,0,0,0,3.42,2.77,23.42,23.42,0,0,0,3.9,2.13,22.93,22.93,0,0,0,17.86,0,23.32,23.32,0,0,0,12.26-12.26ZM963.81,16.07a1,1,0,0,1-1.84-.78,25.25,25.25,0,0,1,9.08-11,1,1,0,0,1,1.12,1.66,23.32,23.32,0,0,0-8.36,10.13Zm16.57-13.6a1,1,0,1,1-.4-2A24.93,24.93,0,0,1,994.71,2a1,1,0,0,1-.78,1.84,22.94,22.94,0,0,0-13.55-1.34Zm23.68,9.7a1,1,0,0,1,1.66-1.12,25.22,25.22,0,0,1,2.31,4.24,24.89,24.89,0,0,1,2,9.71V39a1,1,0,0,1-2,0V25a23,23,0,0,0-1.81-8.93A23.42,23.42,0,0,0,1004.06,12.17ZM936,25a1,1,0,0,1,2,0V39a1,1,0,0,1-2,0Zm-6,3.5a1,1,0,0,1-2,0V25a9.36,9.36,0,0,1,.18-1.82,8.77,8.77,0,0,1,.53-1.67,8,8,0,0,1,.82-1.53A8.78,8.78,0,0,1,932,17.55a8,8,0,0,1,1.54-.84,8.84,8.84,0,0,1,1.7-.53,9.09,9.09,0,0,1,3.6,0,1,1,0,1,1-.38,2A7.59,7.59,0,0,0,937,18a7.23,7.23,0,0,0-1.4.14,6.83,6.83,0,0,0-1.33.41,7,7,0,0,0-1.19.66,6.55,6.55,0,0,0-1.89,1.89,7.08,7.08,0,0,0-1.05,2.48A7.59,7.59,0,0,0,930,25Zm10.92-9.29a1,1,0,0,1-.29-1.39,1,1,0,0,1,1.39-.28A8.62,8.62,0,0,1,944.45,20a8,8,0,0,1,.84,1.54,8.84,8.84,0,0,1,.53,1.7A9,9,0,0,1,946,25v8.75a1,1,0,0,1-2,0V25a7.23,7.23,0,0,0-.14-1.4,6.65,6.65,0,0,0-1.07-2.52A6.41,6.41,0,0,0,940.92,19.21ZM944,39a1,1,0,0,1,2,0,9.36,9.36,0,0,1-.18,1.82,8.77,8.77,0,0,1-.53,1.67,8,8,0,0,1-.82,1.53A8.78,8.78,0,0,1,942,46.45a8,8,0,0,1-1.54.84,8.84,8.84,0,0,1-1.7.53A9,9,0,0,1,937,48a9.36,9.36,0,0,1-1.82-.18,8.77,8.77,0,0,1-1.67-.53,8,8,0,0,1-1.53-.82A8.78,8.78,0,0,1,929.55,44a8,8,0,0,1-.84-1.54,8.84,8.84,0,0,1-.53-1.7A9,9,0,0,1,928,39V33.75a1,1,0,0,1,2,0V39a7.23,7.23,0,0,0,.14,1.4,6.83,6.83,0,0,0,.41,1.33,7,7,0,0,0,.66,1.19,6.55,6.55,0,0,0,1.89,1.89,7.05,7.05,0,0,0,1.18.64,6.76,6.76,0,0,0,1.3.41A7.59,7.59,0,0,0,937,46a7.23,7.23,0,0,0,1.4-.14,6.83,6.83,0,0,0,1.33-.41,7,7,0,0,0,1.19-.66,6.55,6.55,0,0,0,1.89-1.89,7.05,7.05,0,0,0,.64-1.18,6.76,6.76,0,0,0,.41-1.3A7.59,7.59,0,0,0,944,39Zm3.59,10.61A1,1,0,0,1,949,51a17.11,17.11,0,0,1-2.52,2.13,17.5,17.5,0,0,1-2.89,1.56,16.24,16.24,0,0,1-3.2,1A16.43,16.43,0,0,1,937,56a17,17,0,0,1-3.42-.35,16.36,16.36,0,0,1-3.19-1,17.5,17.5,0,0,1-2.89-1.56,17.73,17.73,0,0,1-4.6-4.54,17.5,17.5,0,0,1-1.56-2.89,1,1,0,0,1,1.84-.78,15.5,15.5,0,0,0,1.37,2.54,15.67,15.67,0,0,0,4.07,4,15.3,15.3,0,0,0,2.55,1.38,13.66,13.66,0,0,0,2.81.87,14.7,14.7,0,0,0,3,.31,14.51,14.51,0,0,0,3-.27,13.66,13.66,0,0,0,2.81-.87,15.5,15.5,0,0,0,2.54-1.37A14.18,14.18,0,0,0,947.59,49.61ZM922,39a1,1,0,0,1-2,0V25a17,17,0,0,1,.35-3.42,16.36,16.36,0,0,1,1-3.19,17.31,17.31,0,0,1,1.57-2.9,17.81,17.81,0,0,1,4.58-4.58,17.5,17.5,0,0,1,2.89-1.56A17.21,17.21,0,0,1,937,8a17,17,0,0,1,3.42.35,1,1,0,0,1-.4,2,14.68,14.68,0,0,0-6,0,13.66,13.66,0,0,0-2.81.87,15.5,15.5,0,0,0-2.54,1.37,15.67,15.67,0,0,0-4.06,4.06,15.3,15.3,0,0,0-1.38,2.55,13.56,13.56,0,0,0-.87,2.82,14.51,14.51,0,0,0-.31,3Zm23.43-26.45a1,1,0,1,1,1.14-1.64,17.81,17.81,0,0,1,4.58,4.58,17.5,17.5,0,0,1,1.56,2.89,16.24,16.24,0,0,1,1,3.2A16.42,16.42,0,0,1,954,25V39a17,17,0,0,1-.35,3.42,16.36,16.36,0,0,1-1,3.19,1,1,0,0,1-1.84-.78,13.66,13.66,0,0,0,.87-2.81,14.67,14.67,0,0,0,.31-3V25a14.46,14.46,0,0,0-.26-3,13.66,13.66,0,0,0-.87-2.81,15.5,15.5,0,0,0-1.37-2.54A15.75,15.75,0,0,0,945.43,12.55ZM920.76,8.76a1,1,0,1,1-1.42-1.42,25.9,25.9,0,0,1,3.71-3.06,24.84,24.84,0,0,1,27.9,0,25.35,25.35,0,0,1,6.77,6.77,1,1,0,0,1-1.66,1.12,23.32,23.32,0,0,0-10.13-8.36,22.93,22.93,0,0,0-17.86,0,23.42,23.42,0,0,0-3.9,2.13A23,23,0,0,0,920.76,8.76Zm29.07,49.3A1,1,0,1,1,951,59.72a24.84,24.84,0,0,1-27.9,0,1,1,0,0,1,1.12-1.66,23.42,23.42,0,0,0,3.9,2.13,22.93,22.93,0,0,0,17.86,0A23.42,23.42,0,0,0,949.83,58.06ZM888,25a1,1,0,0,1,2,0v5.25a1,1,0,0,1-2,0Zm0,10.5a1,1,0,0,1,2,0V39a1,1,0,0,1-2,0Zm8,0a1,1,0,0,1,2,0V39a9.36,9.36,0,0,1-.18,1.82,8.77,8.77,0,0,1-.53,1.67,8,8,0,0,1-.82,1.53A8.78,8.78,0,0,1,894,46.45a8,8,0,0,1-1.54.84,8.84,8.84,0,0,1-1.7.53A9,9,0,0,1,889,48a9.36,9.36,0,0,1-1.82-.18,8.77,8.77,0,0,1-1.67-.53,8,8,0,0,1-1.53-.82A8.78,8.78,0,0,1,881.55,44a8,8,0,0,1-.84-1.54,8.84,8.84,0,0,1-.53-1.7A9,9,0,0,1,880,39V35.5a1,1,0,0,1,2,0V39a7.23,7.23,0,0,0,.14,1.4,6.83,6.83,0,0,0,.41,1.33,7,7,0,0,0,.66,1.19,6.55,6.55,0,0,0,1.89,1.89,7.05,7.05,0,0,0,1.18.64,6.76,6.76,0,0,0,1.3.41A7.59,7.59,0,0,0,889,46a7.23,7.23,0,0,0,1.4-.14,6.83,6.83,0,0,0,1.33-.41,7,7,0,0,0,1.19-.66,6.55,6.55,0,0,0,1.89-1.89,7.05,7.05,0,0,0,.64-1.18,6.76,6.76,0,0,0,.41-1.3A7.59,7.59,0,0,0,896,39Zm-14-5.25a1,1,0,0,1-2,0V25a9.36,9.36,0,0,1,.18-1.82,8.77,8.77,0,0,1,.53-1.67,8,8,0,0,1,.82-1.53A8.78,8.78,0,0,1,884,17.55a8,8,0,0,1,1.54-.84,8.84,8.84,0,0,1,1.7-.53A9,9,0,0,1,889,16a9.36,9.36,0,0,1,1.82.18,8.77,8.77,0,0,1,1.67.53,7.51,7.51,0,0,1,1.53.83A8.62,8.62,0,0,1,896.45,20a8,8,0,0,1,.84,1.54,8.84,8.84,0,0,1,.53,1.7A9,9,0,0,1,898,25v7a1,1,0,0,1-2,0V25a7.23,7.23,0,0,0-.14-1.4,6.65,6.65,0,0,0-1.07-2.52,6.55,6.55,0,0,0-1.89-1.89,7.05,7.05,0,0,0-1.18-.64,6.76,6.76,0,0,0-1.3-.41A7.59,7.59,0,0,0,889,18a7.23,7.23,0,0,0-1.4.14,6.83,6.83,0,0,0-1.33.41,7,7,0,0,0-1.19.66,6.55,6.55,0,0,0-1.89,1.89,7.08,7.08,0,0,0-1.05,2.48A7.59,7.59,0,0,0,882,25ZM904,32a1,1,0,0,1,2,0v7a17,17,0,0,1-.35,3.42,16.72,16.72,0,0,1-1,3.18,16.71,16.71,0,0,1-9,9.06,1,1,0,0,1-.78-1.84,15.5,15.5,0,0,0,2.54-1.37,16,16,0,0,0,4-4,15.57,15.57,0,0,0,1.38-2.62,13.66,13.66,0,0,0,.87-2.81,14.67,14.67,0,0,0,.31-3ZM889,54a1,1,0,0,1,0,2,17,17,0,0,1-3.42-.35,16.36,16.36,0,0,1-3.19-1,17.31,17.31,0,0,1-2.9-1.57A16.87,16.87,0,0,1,877,51a1,1,0,0,1,1.44-1.4,14,14,0,0,0,2.2,1.87,15.3,15.3,0,0,0,2.55,1.38,13.66,13.66,0,0,0,2.81.87A14.67,14.67,0,0,0,889,54Zm-13.82-9.16a1,1,0,1,1-1.84.78,16.48,16.48,0,0,1-1-3.18A16.67,16.67,0,0,1,872,39V25a17,17,0,0,1,.35-3.42,16.36,16.36,0,0,1,1-3.19,17.31,17.31,0,0,1,1.57-2.9,17.81,17.81,0,0,1,4.58-4.58,17.5,17.5,0,0,1,2.89-1.56A17.21,17.21,0,0,1,889,8a17,17,0,0,1,3.42.35,16.72,16.72,0,0,1,3.18,1,16.68,16.68,0,0,1,7.55,6.16,17.5,17.5,0,0,1,1.56,2.89,16.24,16.24,0,0,1,1,3.2A16.49,16.49,0,0,1,906,25a1,1,0,0,1-2,0,14.46,14.46,0,0,0-.26-3,13.66,13.66,0,0,0-.87-2.81,15.5,15.5,0,0,0-1.37-2.54,15.79,15.79,0,0,0-4-4.06,15.57,15.57,0,0,0-2.62-1.38,13.66,13.66,0,0,0-2.81-.87,14.68,14.68,0,0,0-6,0,13.66,13.66,0,0,0-2.81.87,15.5,15.5,0,0,0-2.54,1.37,15.67,15.67,0,0,0-4.06,4.06,15.3,15.3,0,0,0-1.38,2.55,13.56,13.56,0,0,0-.87,2.82,14.51,14.51,0,0,0-.31,3V39a14.7,14.7,0,0,0,.31,3A13.66,13.66,0,0,0,875.18,44.84Zm32.88,7A1,1,0,0,1,909.72,53,25.35,25.35,0,0,1,903,59.72,24.79,24.79,0,0,1,889,64a1,1,0,0,1,0-2,22.84,22.84,0,0,0,8.93-1.81,23.32,23.32,0,0,0,10.13-8.36Zm-28,8.36a1,1,0,0,1-.78,1.84,24.84,24.84,0,0,1-4.24-2.31A25.35,25.35,0,0,1,868.28,53,24.79,24.79,0,0,1,864,39V25a24.89,24.89,0,0,1,2-9.71,1,1,0,1,1,1.84.78A23,23,0,0,0,866,25V39a23,23,0,0,0,1.81,8.93,23.32,23.32,0,0,0,12.26,12.26ZM872.76,8.76a1,1,0,1,1-1.42-1.42,25.9,25.9,0,0,1,3.71-3.06A24.89,24.89,0,0,1,898.71,2a24.37,24.37,0,0,1,4.23,2.31,25.14,25.14,0,0,1,3.76,3.06,1,1,0,0,1-1.4,1.42,23,23,0,0,0-3.47-2.82,23.42,23.42,0,0,0-3.9-2.13,22.93,22.93,0,0,0-17.86,0,23.42,23.42,0,0,0-3.9,2.13A23,23,0,0,0,872.76,8.76ZM913,18a24.47,24.47,0,0,1,1-2.72,1,1,0,1,1,1.84.78A23,23,0,0,0,914,25h0V39h0a23,23,0,0,0,1.81,8.93,23.42,23.42,0,0,0,2.13,3.9A1,1,0,1,1,916.28,53,24.79,24.79,0,0,1,912,39V25h0a23,23,0,0,0-1.81-8.92,1,1,0,0,1,1.84-.78A24.47,24.47,0,0,1,913,18Zm49,21a22.94,22.94,0,0,0,1.81,8.92,1,1,0,1,1-1.84.78A24.47,24.47,0,0,1,961,46a24.47,24.47,0,0,1-1,2.72,25,25,0,0,1-2.3,4.23,26.53,26.53,0,0,1-3,3.76,1,1,0,0,1-1.44-1.4,25.35,25.35,0,0,0,4.91-7.37A22.94,22.94,0,0,0,960,39h0V25h0a23.14,23.14,0,0,0-.47-4.62,1,1,0,0,1,2-.4,24.86,24.86,0,0,1,.51,5V39Z"/><path class="cls-1" d="M1128,25a1,1,0,0,1,2,0V39a1,1,0,0,1-2,0Zm6-4.94a1,1,0,1,1,1.4-1.44,8.94,8.94,0,0,1,1.12,1.34,8,8,0,0,1,.84,1.54,8.61,8.61,0,0,1,.53,1.72A8.92,8.92,0,0,1,1138,25V39a9.36,9.36,0,0,1-.18,1.82,8.77,8.77,0,0,1-.53,1.67,8,8,0,0,1-.82,1.53,8.78,8.78,0,0,1-2.43,2.43,8,8,0,0,1-1.54.84,8.84,8.84,0,0,1-1.7.53,9,9,0,0,1-1.8.18,9.36,9.36,0,0,1-1.82-.18,8.77,8.77,0,0,1-1.67-.53,8,8,0,0,1-1.53-.82,8.78,8.78,0,0,1-2.43-2.43,8,8,0,0,1-.84-1.54,8.84,8.84,0,0,1-.53-1.7A9,9,0,0,1,1120,39V26.75a1,1,0,0,1,2,0V39a7.23,7.23,0,0,0,.14,1.4,6.83,6.83,0,0,0,.41,1.33,7,7,0,0,0,.66,1.19,6.55,6.55,0,0,0,1.89,1.89,7.05,7.05,0,0,0,1.18.64,6.76,6.76,0,0,0,1.3.41A7.59,7.59,0,0,0,1129,46a7.23,7.23,0,0,0,1.4-.14,6.83,6.83,0,0,0,1.33-.41,7,7,0,0,0,1.19-.66,6.55,6.55,0,0,0,1.89-1.89,7.05,7.05,0,0,0,.64-1.18,6.76,6.76,0,0,0,.41-1.3A7.59,7.59,0,0,0,1136,39V25a6.93,6.93,0,0,0-.11-1.39,7,7,0,0,0-.41-1.33,7.17,7.17,0,0,0-.65-1.18A6.09,6.09,0,0,0,1134,20.06Zm-11.41,2.21a1,1,0,1,1-1.84-.76,8,8,0,0,1,.82-1.53,8.78,8.78,0,0,1,2.43-2.43,8,8,0,0,1,1.54-.84,8.84,8.84,0,0,1,1.7-.53A9,9,0,0,1,1129,16a9.36,9.36,0,0,1,1.82.18,9.1,9.1,0,0,1,1.68.53,1,1,0,1,1-.78,1.84,6.76,6.76,0,0,0-1.3-.41A7.59,7.59,0,0,0,1129,18a7.23,7.23,0,0,0-1.4.14,6.83,6.83,0,0,0-1.33.41,7,7,0,0,0-1.19.66,6.55,6.55,0,0,0-1.89,1.89A7.37,7.37,0,0,0,1122.55,22.27ZM1144,28.5a1,1,0,0,1,2,0V39a17,17,0,0,1-.35,3.42,16.72,16.72,0,0,1-1,3.18,17.38,17.38,0,0,1-1.57,2.95,1,1,0,0,1-1.66-1.1,15.57,15.57,0,0,0,1.38-2.62,13.66,13.66,0,0,0,.87-2.81,14.67,14.67,0,0,0,.31-3Zm-6.56,22.94a1,1,0,0,1,1.12,1.66,17.5,17.5,0,0,1-2.89,1.56A17.06,17.06,0,0,1,1129,56a17,17,0,0,1-3.42-.35,16.36,16.36,0,0,1-3.19-1,17.31,17.31,0,0,1-2.9-1.57A16.87,16.87,0,0,1,1117,51a1,1,0,0,1,1.44-1.4,14,14,0,0,0,2.2,1.87,15.3,15.3,0,0,0,2.55,1.38,13.66,13.66,0,0,0,2.81.87,14.7,14.7,0,0,0,3,.31,14.41,14.41,0,0,0,3.07-.31,13.66,13.66,0,0,0,2.81-.87A15.3,15.3,0,0,0,1137.44,51.44Zm-22.26-6.6a1,1,0,0,1-1.84.78,16.48,16.48,0,0,1-1-3.18A16.67,16.67,0,0,1,1112,39V25a17,17,0,0,1,.35-3.42,16.36,16.36,0,0,1,1-3.19,17.31,17.31,0,0,1,1.57-2.9A16.87,16.87,0,0,1,1117,13a1,1,0,1,1,1.4,1.44,14,14,0,0,0-1.87,2.2,15.3,15.3,0,0,0-1.38,2.55,13.56,13.56,0,0,0-.87,2.82,14.51,14.51,0,0,0-.31,3V39a14.7,14.7,0,0,0,.31,3A13.66,13.66,0,0,0,1115.18,44.84ZM1126,10.31a1,1,0,1,1-.4-2,16.88,16.88,0,0,1,6.84,0,16.72,16.72,0,0,1,3.18,1,16.68,16.68,0,0,1,7.55,6.16,17.5,17.5,0,0,1,1.56,2.89,16.36,16.36,0,0,1,1,3.19,1,1,0,1,1-2,.4,13.66,13.66,0,0,0-.87-2.81,15.5,15.5,0,0,0-1.37-2.54,15.79,15.79,0,0,0-4-4.06,15.57,15.57,0,0,0-2.62-1.38,13.66,13.66,0,0,0-2.81-.87,14.87,14.87,0,0,0-6,0Zm24.21,37.62a1,1,0,1,1,1.84.78,24.84,24.84,0,0,1-2.31,4.24,25.35,25.35,0,0,1-6.77,6.77A24.89,24.89,0,0,1,1119.29,62a24.37,24.37,0,0,1-4.23-2.31,24.91,24.91,0,0,1-3.71-3,1,1,0,0,1,1.4-1.42,24.08,24.08,0,0,0,3.42,2.77,23.42,23.42,0,0,0,3.9,2.13,22.93,22.93,0,0,0,17.86,0,23.32,23.32,0,0,0,12.26-12.26Zm-42.38-31.86a1,1,0,0,1-1.84-.78,25.25,25.25,0,0,1,9.08-11,1,1,0,0,1,1.12,1.66,23.32,23.32,0,0,0-8.36,10.13Zm16.57-13.6a1,1,0,1,1-.4-2A24.93,24.93,0,0,1,1138.71,2a1,1,0,1,1-.78,1.84,22.94,22.94,0,0,0-13.55-1.34Zm23.68,9.7a1,1,0,1,1,1.66-1.12,25.22,25.22,0,0,1,2.31,4.24,24.89,24.89,0,0,1,2,9.71V39a1,1,0,0,1-2,0V25a23,23,0,0,0-1.81-8.93A23.42,23.42,0,0,0,1148.06,12.17ZM1080,25a1,1,0,0,1,2,0V39a1,1,0,0,1-2,0Zm-6,3.5a1,1,0,0,1-2,0V25a9.36,9.36,0,0,1,.18-1.82,8.77,8.77,0,0,1,.53-1.67,8,8,0,0,1,.82-1.53,8.78,8.78,0,0,1,2.43-2.43,8,8,0,0,1,1.54-.84,8.84,8.84,0,0,1,1.7-.53,9.09,9.09,0,0,1,3.6,0,1,1,0,1,1-.38,2A7.59,7.59,0,0,0,1081,18a7.23,7.23,0,0,0-1.4.14,6.83,6.83,0,0,0-1.33.41,7,7,0,0,0-1.19.66,6.55,6.55,0,0,0-1.89,1.89,7.08,7.08,0,0,0-1,2.48A7.59,7.59,0,0,0,1074,25Zm10.92-9.29a1,1,0,0,1-.29-1.39,1,1,0,0,1,1.39-.28,8.62,8.62,0,0,1,2.43,2.42,8,8,0,0,1,.84,1.54,8.84,8.84,0,0,1,.53,1.7A9,9,0,0,1,1090,25v8.75a1,1,0,0,1-2,0V25a7.23,7.23,0,0,0-.14-1.4,6.65,6.65,0,0,0-1.07-2.52A6.41,6.41,0,0,0,1084.92,19.21ZM1088,39a1,1,0,0,1,2,0,9.36,9.36,0,0,1-.18,1.82,8.77,8.77,0,0,1-.53,1.67,8,8,0,0,1-.82,1.53,8.78,8.78,0,0,1-2.43,2.43,8,8,0,0,1-1.54.84,8.84,8.84,0,0,1-1.7.53,9,9,0,0,1-1.8.18,9.36,9.36,0,0,1-1.82-.18,8.77,8.77,0,0,1-1.67-.53,8,8,0,0,1-1.53-.82,8.78,8.78,0,0,1-2.43-2.43,8,8,0,0,1-.84-1.54,8.84,8.84,0,0,1-.53-1.7A9,9,0,0,1,1072,39V33.75a1,1,0,0,1,2,0V39a7.23,7.23,0,0,0,.14,1.4,6.83,6.83,0,0,0,.41,1.33,7,7,0,0,0,.66,1.19,6.55,6.55,0,0,0,1.89,1.89,7.05,7.05,0,0,0,1.18.64,6.76,6.76,0,0,0,1.3.41A7.59,7.59,0,0,0,1081,46a7.23,7.23,0,0,0,1.4-.14,6.83,6.83,0,0,0,1.33-.41,7,7,0,0,0,1.19-.66,6.55,6.55,0,0,0,1.89-1.89,7.05,7.05,0,0,0,.64-1.18,6.76,6.76,0,0,0,.41-1.3A7.59,7.59,0,0,0,1088,39Zm3.59,10.61A1,1,0,1,1,1093,51a17.11,17.11,0,0,1-2.52,2.13,17.5,17.5,0,0,1-2.89,1.56,16.24,16.24,0,0,1-3.2,1A16.43,16.43,0,0,1,1081,56a17,17,0,0,1-3.42-.35,16.36,16.36,0,0,1-3.19-1,17.5,17.5,0,0,1-2.89-1.56,17.73,17.73,0,0,1-4.6-4.54,17.5,17.5,0,0,1-1.56-2.89,1,1,0,1,1,1.84-.78,15.5,15.5,0,0,0,1.37,2.54,15.67,15.67,0,0,0,4.07,4,15.3,15.3,0,0,0,2.55,1.38,13.66,13.66,0,0,0,2.81.87,14.7,14.7,0,0,0,3,.31,14.51,14.51,0,0,0,3-.27,13.66,13.66,0,0,0,2.81-.87,15.5,15.5,0,0,0,2.54-1.37A14.18,14.18,0,0,0,1091.59,49.61ZM1066,39a1,1,0,0,1-2,0V25a17,17,0,0,1,.35-3.42,16.36,16.36,0,0,1,1-3.19,17.31,17.31,0,0,1,1.57-2.9,17.81,17.81,0,0,1,4.58-4.58,17.5,17.5,0,0,1,2.89-1.56A17.21,17.21,0,0,1,1081,8a17,17,0,0,1,3.42.35,1,1,0,0,1-.4,2,14.68,14.68,0,0,0-6,0,13.66,13.66,0,0,0-2.81.87,15.5,15.5,0,0,0-2.54,1.37,15.67,15.67,0,0,0-4.06,4.06,15.3,15.3,0,0,0-1.38,2.55,13.56,13.56,0,0,0-.87,2.82,14.51,14.51,0,0,0-.31,3Zm23.43-26.45a1,1,0,1,1,1.14-1.64,17.81,17.81,0,0,1,4.58,4.58,17.5,17.5,0,0,1,1.56,2.89,16.24,16.24,0,0,1,1,3.2A16.42,16.42,0,0,1,1098,25V39a17,17,0,0,1-.35,3.42,16.36,16.36,0,0,1-1,3.19,1,1,0,1,1-1.84-.78,13.66,13.66,0,0,0,.87-2.81,14.67,14.67,0,0,0,.31-3V25a14.46,14.46,0,0,0-.26-3,13.66,13.66,0,0,0-.87-2.81,15.5,15.5,0,0,0-1.37-2.54A15.75,15.75,0,0,0,1089.43,12.55Zm-24.67-3.79a1,1,0,1,1-1.42-1.42,25.9,25.9,0,0,1,3.71-3.06,24.84,24.84,0,0,1,27.9,0,25.35,25.35,0,0,1,6.77,6.77,1,1,0,0,1-1.66,1.12,23.32,23.32,0,0,0-10.13-8.36,22.93,22.93,0,0,0-17.86,0,23.42,23.42,0,0,0-3.9,2.13A23,23,0,0,0,1064.76,8.76Zm29.07,49.3a1,1,0,0,1,1.12,1.66,24.84,24.84,0,0,1-27.9,0,1,1,0,1,1,1.12-1.66,23.42,23.42,0,0,0,3.9,2.13,22.93,22.93,0,0,0,17.86,0A23.42,23.42,0,0,0,1093.83,58.06ZM1032,25a1,1,0,0,1,2,0v5.25a1,1,0,0,1-2,0Zm0,10.5a1,1,0,0,1,2,0V39a1,1,0,0,1-2,0Zm8,0a1,1,0,0,1,2,0V39a9.36,9.36,0,0,1-.18,1.82,8.77,8.77,0,0,1-.53,1.67,8,8,0,0,1-.82,1.53,8.78,8.78,0,0,1-2.43,2.43,8,8,0,0,1-1.54.84,8.84,8.84,0,0,1-1.7.53,9,9,0,0,1-1.8.18,9.36,9.36,0,0,1-1.82-.18,8.77,8.77,0,0,1-1.67-.53,8,8,0,0,1-1.53-.82,8.78,8.78,0,0,1-2.43-2.43,8,8,0,0,1-.84-1.54,8.84,8.84,0,0,1-.53-1.7A9,9,0,0,1,1024,39V35.5a1,1,0,0,1,2,0V39a7.23,7.23,0,0,0,.14,1.4,6.83,6.83,0,0,0,.41,1.33,7,7,0,0,0,.66,1.19,6.55,6.55,0,0,0,1.89,1.89,7.05,7.05,0,0,0,1.18.64,6.76,6.76,0,0,0,1.3.41A7.59,7.59,0,0,0,1033,46a7.23,7.23,0,0,0,1.4-.14,6.83,6.83,0,0,0,1.33-.41,7,7,0,0,0,1.19-.66,6.55,6.55,0,0,0,1.89-1.89,7.05,7.05,0,0,0,.64-1.18,6.76,6.76,0,0,0,.41-1.3A7.59,7.59,0,0,0,1040,39Zm-14-5.25a1,1,0,0,1-2,0V25a9.36,9.36,0,0,1,.18-1.82,8.77,8.77,0,0,1,.53-1.67,8,8,0,0,1,.82-1.53,8.78,8.78,0,0,1,2.43-2.43,8,8,0,0,1,1.54-.84,8.84,8.84,0,0,1,1.7-.53A9,9,0,0,1,1033,16a9.36,9.36,0,0,1,1.82.18,8.77,8.77,0,0,1,1.67.53,7.51,7.51,0,0,1,1.53.83,8.62,8.62,0,0,1,2.43,2.42,8,8,0,0,1,.84,1.54,8.84,8.84,0,0,1,.53,1.7A9,9,0,0,1,1042,25v7a1,1,0,0,1-2,0V25a7.23,7.23,0,0,0-.14-1.4,6.65,6.65,0,0,0-1.07-2.52,6.55,6.55,0,0,0-1.89-1.89,7.05,7.05,0,0,0-1.18-.64,6.76,6.76,0,0,0-1.3-.41A7.59,7.59,0,0,0,1033,18a7.23,7.23,0,0,0-1.4.14,6.83,6.83,0,0,0-1.33.41,7,7,0,0,0-1.19.66,6.55,6.55,0,0,0-1.89,1.89,7.08,7.08,0,0,0-1,2.48A7.59,7.59,0,0,0,1026,25ZM1048,32a1,1,0,0,1,2,0v7a17,17,0,0,1-.35,3.42,16.72,16.72,0,0,1-1,3.18,16.71,16.71,0,0,1-9,9.06,1,1,0,0,1-.78-1.84,15.5,15.5,0,0,0,2.54-1.37,16,16,0,0,0,4-4,15.57,15.57,0,0,0,1.38-2.62,13.66,13.66,0,0,0,.87-2.81,14.67,14.67,0,0,0,.31-3Zm-15,22a1,1,0,0,1,0,2,17,17,0,0,1-3.42-.35,16.36,16.36,0,0,1-3.19-1,17.31,17.31,0,0,1-2.9-1.57A16.87,16.87,0,0,1,1021,51a1,1,0,0,1,1.44-1.4,14,14,0,0,0,2.2,1.87,15.3,15.3,0,0,0,2.55,1.38,13.66,13.66,0,0,0,2.81.87A14.67,14.67,0,0,0,1033,54Zm-13.82-9.16a1,1,0,1,1-1.84.78,16.48,16.48,0,0,1-1-3.18A16.67,16.67,0,0,1,1016,39V25a17,17,0,0,1,.35-3.42,16.36,16.36,0,0,1,1-3.19,17.31,17.31,0,0,1,1.57-2.9,17.81,17.81,0,0,1,4.58-4.58,17.5,17.5,0,0,1,2.89-1.56A17.21,17.21,0,0,1,1033,8a17,17,0,0,1,3.42.35,16.72,16.72,0,0,1,3.18,1,16.68,16.68,0,0,1,7.55,6.16,17.5,17.5,0,0,1,1.56,2.89,16.24,16.24,0,0,1,1,3.2A16.49,16.49,0,0,1,1050,25a1,1,0,0,1-2,0,14.46,14.46,0,0,0-.26-3,13.66,13.66,0,0,0-.87-2.81,15.5,15.5,0,0,0-1.37-2.54,15.79,15.79,0,0,0-4-4.06,15.57,15.57,0,0,0-2.62-1.38,13.66,13.66,0,0,0-2.81-.87,14.68,14.68,0,0,0-6,0,13.66,13.66,0,0,0-2.81.87,15.5,15.5,0,0,0-2.54,1.37,15.67,15.67,0,0,0-4.06,4.06,15.3,15.3,0,0,0-1.38,2.55,13.56,13.56,0,0,0-.87,2.82,14.51,14.51,0,0,0-.31,3V39a14.7,14.7,0,0,0,.31,3A13.66,13.66,0,0,0,1019.18,44.84Zm32.88,7a1,1,0,0,1,1.66,1.12,25.35,25.35,0,0,1-6.77,6.77A24.79,24.79,0,0,1,1033,64a1,1,0,0,1,0-2,22.84,22.84,0,0,0,8.93-1.81,23.32,23.32,0,0,0,10.13-8.36Zm-28,8.36a1,1,0,1,1-.78,1.84,24.84,24.84,0,0,1-4.24-2.31,25.35,25.35,0,0,1-6.77-6.77A24.79,24.79,0,0,1,1008,39V25a24.89,24.89,0,0,1,2-9.71,1,1,0,1,1,1.84.78A23,23,0,0,0,1010,25V39a23,23,0,0,0,1.81,8.93,23.32,23.32,0,0,0,12.26,12.26Zm-7.31-51.43a1,1,0,1,1-1.42-1.42,25.9,25.9,0,0,1,3.71-3.06A24.89,24.89,0,0,1,1042.71,2a24.37,24.37,0,0,1,4.23,2.31,25.14,25.14,0,0,1,3.76,3.06,1,1,0,1,1-1.4,1.42,23,23,0,0,0-3.47-2.82,23.42,23.42,0,0,0-3.9-2.13,22.93,22.93,0,0,0-17.86,0,23.42,23.42,0,0,0-3.9,2.13A23,23,0,0,0,1016.76,8.76ZM1057,18a24.47,24.47,0,0,1,1-2.72,1,1,0,1,1,1.84.78A23,23,0,0,0,1058,25h0V39h0a23,23,0,0,0,1.81,8.93,23.42,23.42,0,0,0,2.13,3.9,1,1,0,0,1-1.66,1.12A24.79,24.79,0,0,1,1056,39V25h0a23,23,0,0,0-1.81-8.92,1,1,0,0,1,1.84-.78A24.47,24.47,0,0,1,1057,18Zm49,21a22.94,22.94,0,0,0,1.81,8.92,1,1,0,1,1-1.84.78,24.47,24.47,0,0,1-1-2.72,24.47,24.47,0,0,1-1,2.72,25,25,0,0,1-2.3,4.23,26.53,26.53,0,0,1-3,3.76,1,1,0,0,1-1.44-1.4,25.35,25.35,0,0,0,4.91-7.37A22.94,22.94,0,0,0,1104,39h0V25h0a23.14,23.14,0,0,0-.47-4.62,1,1,0,0,1,2-.4,24.86,24.86,0,0,1,.51,5V39Z"/><path class="cls-1" d="M1272,25a1,1,0,0,1,2,0V39a1,1,0,0,1-2,0Zm6-4.94a1,1,0,1,1,1.4-1.44,8.94,8.94,0,0,1,1.12,1.34,8,8,0,0,1,.84,1.54,8.61,8.61,0,0,1,.53,1.72A8.92,8.92,0,0,1,1282,25V39a9.36,9.36,0,0,1-.18,1.82,8.77,8.77,0,0,1-.53,1.67,8,8,0,0,1-.82,1.53,8.78,8.78,0,0,1-2.43,2.43,8,8,0,0,1-1.54.84,8.84,8.84,0,0,1-1.7.53,9,9,0,0,1-1.8.18,9.36,9.36,0,0,1-1.82-.18,8.77,8.77,0,0,1-1.67-.53,8,8,0,0,1-1.53-.82,8.78,8.78,0,0,1-2.43-2.43,8,8,0,0,1-.84-1.54,8.84,8.84,0,0,1-.53-1.7A9,9,0,0,1,1264,39V26.75a1,1,0,0,1,2,0V39a7.23,7.23,0,0,0,.14,1.4,6.83,6.83,0,0,0,.41,1.33,7,7,0,0,0,.66,1.19,6.55,6.55,0,0,0,1.89,1.89,7.05,7.05,0,0,0,1.18.64,6.76,6.76,0,0,0,1.3.41A7.59,7.59,0,0,0,1273,46a7.23,7.23,0,0,0,1.4-.14,6.83,6.83,0,0,0,1.33-.41,7,7,0,0,0,1.19-.66,6.55,6.55,0,0,0,1.89-1.89,7.05,7.05,0,0,0,.64-1.18,6.76,6.76,0,0,0,.41-1.3A7.59,7.59,0,0,0,1280,39V25a6.93,6.93,0,0,0-.11-1.39,7,7,0,0,0-.41-1.33,7.17,7.17,0,0,0-.65-1.18A6.09,6.09,0,0,0,1278,20.06Zm-11.41,2.21a1,1,0,1,1-1.84-.76,8,8,0,0,1,.82-1.53,8.78,8.78,0,0,1,2.43-2.43,8,8,0,0,1,1.54-.84,8.84,8.84,0,0,1,1.7-.53A9,9,0,0,1,1273,16a9.36,9.36,0,0,1,1.82.18,9.1,9.1,0,0,1,1.68.53,1,1,0,0,1-.78,1.84,6.76,6.76,0,0,0-1.3-.41A7.59,7.59,0,0,0,1273,18a7.23,7.23,0,0,0-1.4.14,6.83,6.83,0,0,0-1.33.41,7,7,0,0,0-1.19.66,6.55,6.55,0,0,0-1.89,1.89A7.37,7.37,0,0,0,1266.55,22.27ZM1288,28.5a1,1,0,0,1,2,0V39a17,17,0,0,1-.35,3.42,16.72,16.72,0,0,1-1,3.18,17.38,17.38,0,0,1-1.57,2.95,1,1,0,0,1-1.66-1.1,15.57,15.57,0,0,0,1.38-2.62,13.66,13.66,0,0,0,.87-2.81,14.67,14.67,0,0,0,.31-3Zm-6.56,22.94a1,1,0,0,1,1.12,1.66,17.5,17.5,0,0,1-2.89,1.56A17.06,17.06,0,0,1,1273,56a17,17,0,0,1-3.42-.35,16.36,16.36,0,0,1-3.19-1,17.31,17.31,0,0,1-2.9-1.57A16.87,16.87,0,0,1,1261,51a1,1,0,0,1,1.44-1.4,14,14,0,0,0,2.2,1.87,15.3,15.3,0,0,0,2.55,1.38,13.66,13.66,0,0,0,2.81.87,14.7,14.7,0,0,0,3,.31,14.41,14.41,0,0,0,3.07-.31,13.66,13.66,0,0,0,2.81-.87A15.3,15.3,0,0,0,1281.44,51.44Zm-22.26-6.6a1,1,0,0,1-1.84.78,16.48,16.48,0,0,1-1-3.18A16.67,16.67,0,0,1,1256,39V25a17,17,0,0,1,.35-3.42,16.36,16.36,0,0,1,1-3.19,17.31,17.31,0,0,1,1.57-2.9A16.87,16.87,0,0,1,1261,13a1,1,0,1,1,1.4,1.44,14,14,0,0,0-1.87,2.2,15.3,15.3,0,0,0-1.38,2.55,13.56,13.56,0,0,0-.87,2.82,14.51,14.51,0,0,0-.31,3V39a14.7,14.7,0,0,0,.31,3A13.66,13.66,0,0,0,1259.18,44.84ZM1270,10.31a1,1,0,1,1-.4-2,16.88,16.88,0,0,1,6.84,0,16.72,16.72,0,0,1,3.18,1,16.68,16.68,0,0,1,7.55,6.16,17.5,17.5,0,0,1,1.56,2.89,16.36,16.36,0,0,1,1,3.19,1,1,0,1,1-2,.4,13.66,13.66,0,0,0-.87-2.81,15.5,15.5,0,0,0-1.37-2.54,15.79,15.79,0,0,0-4-4.06,15.57,15.57,0,0,0-2.62-1.38,13.66,13.66,0,0,0-2.81-.87,14.87,14.87,0,0,0-6,0Zm24.21,37.62a1,1,0,1,1,1.84.78,24.84,24.84,0,0,1-2.31,4.24,25.35,25.35,0,0,1-6.77,6.77A24.89,24.89,0,0,1,1263.29,62a24.37,24.37,0,0,1-4.23-2.31,24.91,24.91,0,0,1-3.71-3,1,1,0,0,1,1.4-1.42,24.08,24.08,0,0,0,3.42,2.77,23.42,23.42,0,0,0,3.9,2.13,22.93,22.93,0,0,0,17.86,0,23.32,23.32,0,0,0,12.26-12.26Zm-42.38-31.86a1,1,0,0,1-1.84-.78,25.25,25.25,0,0,1,9.08-11,1,1,0,0,1,1.12,1.66,23.32,23.32,0,0,0-8.36,10.13Zm16.57-13.6a1,1,0,1,1-.4-2A24.93,24.93,0,0,1,1282.71,2a1,1,0,0,1-.78,1.84,22.94,22.94,0,0,0-13.55-1.34Zm23.68,9.7a1,1,0,1,1,1.66-1.12,25.22,25.22,0,0,1,2.31,4.24,24.89,24.89,0,0,1,2,9.71V39a1,1,0,0,1-2,0V25a23,23,0,0,0-1.81-8.93A23.42,23.42,0,0,0,1292.06,12.17ZM1224,25a1,1,0,0,1,2,0V39a1,1,0,0,1-2,0Zm-6,3.5a1,1,0,0,1-2,0V25a9.36,9.36,0,0,1,.18-1.82,8.77,8.77,0,0,1,.53-1.67,8,8,0,0,1,.82-1.53,8.78,8.78,0,0,1,2.43-2.43,8,8,0,0,1,1.54-.84,8.84,8.84,0,0,1,1.7-.53,9.09,9.09,0,0,1,3.6,0,1,1,0,1,1-.38,2A7.59,7.59,0,0,0,1225,18a7.23,7.23,0,0,0-1.4.14,6.83,6.83,0,0,0-1.33.41,7,7,0,0,0-1.19.66,6.55,6.55,0,0,0-1.89,1.89,7.08,7.08,0,0,0-1,2.48A7.59,7.59,0,0,0,1218,25Zm10.92-9.29a1,1,0,0,1-.29-1.39,1,1,0,0,1,1.39-.28,8.62,8.62,0,0,1,2.43,2.42,8,8,0,0,1,.84,1.54,8.84,8.84,0,0,1,.53,1.7A9,9,0,0,1,1234,25v8.75a1,1,0,0,1-2,0V25a7.23,7.23,0,0,0-.14-1.4,6.65,6.65,0,0,0-1.07-2.52A6.41,6.41,0,0,0,1228.92,19.21ZM1232,39a1,1,0,0,1,2,0,9.36,9.36,0,0,1-.18,1.82,8.77,8.77,0,0,1-.53,1.67,8,8,0,0,1-.82,1.53,8.78,8.78,0,0,1-2.43,2.43,8,8,0,0,1-1.54.84,8.84,8.84,0,0,1-1.7.53,9,9,0,0,1-1.8.18,9.36,9.36,0,0,1-1.82-.18,8.77,8.77,0,0,1-1.67-.53,8,8,0,0,1-1.53-.82,8.78,8.78,0,0,1-2.43-2.43,8,8,0,0,1-.84-1.54,8.84,8.84,0,0,1-.53-1.7A9,9,0,0,1,1216,39V33.75a1,1,0,0,1,2,0V39a7.23,7.23,0,0,0,.14,1.4,6.83,6.83,0,0,0,.41,1.33,7,7,0,0,0,.66,1.19,6.55,6.55,0,0,0,1.89,1.89,7.05,7.05,0,0,0,1.18.64,6.76,6.76,0,0,0,1.3.41A7.59,7.59,0,0,0,1225,46a7.23,7.23,0,0,0,1.4-.14,6.83,6.83,0,0,0,1.33-.41,7,7,0,0,0,1.19-.66,6.55,6.55,0,0,0,1.89-1.89,7.05,7.05,0,0,0,.64-1.18,6.76,6.76,0,0,0,.41-1.3A7.59,7.59,0,0,0,1232,39Zm3.59,10.61A1,1,0,1,1,1237,51a17.11,17.11,0,0,1-2.52,2.13,17.5,17.5,0,0,1-2.89,1.56,16.24,16.24,0,0,1-3.2,1A16.43,16.43,0,0,1,1225,56a17,17,0,0,1-3.42-.35,16.36,16.36,0,0,1-3.19-1,17.5,17.5,0,0,1-2.89-1.56,17.73,17.73,0,0,1-4.6-4.54,17.5,17.5,0,0,1-1.56-2.89,1,1,0,1,1,1.84-.78,15.5,15.5,0,0,0,1.37,2.54,15.67,15.67,0,0,0,4.07,4,15.3,15.3,0,0,0,2.55,1.38,13.66,13.66,0,0,0,2.81.87,14.7,14.7,0,0,0,3,.31,14.51,14.51,0,0,0,3-.27,13.66,13.66,0,0,0,2.81-.87,15.5,15.5,0,0,0,2.54-1.37A14.18,14.18,0,0,0,1235.59,49.61ZM1210,39a1,1,0,0,1-2,0V25a17,17,0,0,1,.35-3.42,16.36,16.36,0,0,1,1-3.19,17.31,17.31,0,0,1,1.57-2.9,17.81,17.81,0,0,1,4.58-4.58,17.5,17.5,0,0,1,2.89-1.56A17.21,17.21,0,0,1,1225,8a17,17,0,0,1,3.42.35,1,1,0,0,1-.4,2,14.68,14.68,0,0,0-6,0,13.66,13.66,0,0,0-2.81.87,15.5,15.5,0,0,0-2.54,1.37,15.67,15.67,0,0,0-4.06,4.06,15.3,15.3,0,0,0-1.38,2.55,13.56,13.56,0,0,0-.87,2.82,14.51,14.51,0,0,0-.31,3Zm23.43-26.45a1,1,0,1,1,1.14-1.64,17.81,17.81,0,0,1,4.58,4.58,17.5,17.5,0,0,1,1.56,2.89,16.24,16.24,0,0,1,1,3.2A16.42,16.42,0,0,1,1242,25V39a17,17,0,0,1-.35,3.42,16.36,16.36,0,0,1-1,3.19,1,1,0,0,1-1.84-.78,13.66,13.66,0,0,0,.87-2.81,14.67,14.67,0,0,0,.31-3V25a14.46,14.46,0,0,0-.26-3,13.66,13.66,0,0,0-.87-2.81,15.5,15.5,0,0,0-1.37-2.54A15.75,15.75,0,0,0,1233.43,12.55Zm-24.67-3.79a1,1,0,1,1-1.42-1.42,25.9,25.9,0,0,1,3.71-3.06,24.84,24.84,0,0,1,27.9,0,25.35,25.35,0,0,1,6.77,6.77,1,1,0,0,1-1.66,1.12,23.32,23.32,0,0,0-10.13-8.36,22.93,22.93,0,0,0-17.86,0,23.42,23.42,0,0,0-3.9,2.13A23,23,0,0,0,1208.76,8.76Zm29.07,49.3a1,1,0,0,1,1.12,1.66,24.84,24.84,0,0,1-27.9,0,1,1,0,1,1,1.12-1.66,23.42,23.42,0,0,0,3.9,2.13,22.93,22.93,0,0,0,17.86,0A23.42,23.42,0,0,0,1237.83,58.06ZM1176,25a1,1,0,0,1,2,0v5.25a1,1,0,0,1-2,0Zm0,10.5a1,1,0,0,1,2,0V39a1,1,0,0,1-2,0Zm8,0a1,1,0,0,1,2,0V39a9.36,9.36,0,0,1-.18,1.82,8.77,8.77,0,0,1-.53,1.67,8,8,0,0,1-.82,1.53,8.78,8.78,0,0,1-2.43,2.43,8,8,0,0,1-1.54.84,8.84,8.84,0,0,1-1.7.53,9,9,0,0,1-1.8.18,9.36,9.36,0,0,1-1.82-.18,8.77,8.77,0,0,1-1.67-.53,8,8,0,0,1-1.53-.82,8.78,8.78,0,0,1-2.43-2.43,8,8,0,0,1-.84-1.54,8.84,8.84,0,0,1-.53-1.7A9,9,0,0,1,1168,39V35.5a1,1,0,0,1,2,0V39a7.23,7.23,0,0,0,.14,1.4,6.83,6.83,0,0,0,.41,1.33,7,7,0,0,0,.66,1.19,6.55,6.55,0,0,0,1.89,1.89,7.05,7.05,0,0,0,1.18.64,6.76,6.76,0,0,0,1.3.41A7.59,7.59,0,0,0,1177,46a7.23,7.23,0,0,0,1.4-.14,6.83,6.83,0,0,0,1.33-.41,7,7,0,0,0,1.19-.66,6.55,6.55,0,0,0,1.89-1.89,7.05,7.05,0,0,0,.64-1.18,6.76,6.76,0,0,0,.41-1.3A7.59,7.59,0,0,0,1184,39Zm-14-5.25a1,1,0,0,1-2,0V25a9.36,9.36,0,0,1,.18-1.82,8.77,8.77,0,0,1,.53-1.67,8,8,0,0,1,.82-1.53,8.78,8.78,0,0,1,2.43-2.43,8,8,0,0,1,1.54-.84,8.84,8.84,0,0,1,1.7-.53A9,9,0,0,1,1177,16a9.36,9.36,0,0,1,1.82.18,8.77,8.77,0,0,1,1.67.53,7.51,7.51,0,0,1,1.53.83,8.62,8.62,0,0,1,2.43,2.42,8,8,0,0,1,.84,1.54,8.84,8.84,0,0,1,.53,1.7A9,9,0,0,1,1186,25v7a1,1,0,0,1-2,0V25a7.23,7.23,0,0,0-.14-1.4,6.65,6.65,0,0,0-1.07-2.52,6.55,6.55,0,0,0-1.89-1.89,7.05,7.05,0,0,0-1.18-.64,6.76,6.76,0,0,0-1.3-.41A7.59,7.59,0,0,0,1177,18a7.23,7.23,0,0,0-1.4.14,6.83,6.83,0,0,0-1.33.41,7,7,0,0,0-1.19.66,6.55,6.55,0,0,0-1.89,1.89,7.08,7.08,0,0,0-1,2.48A7.59,7.59,0,0,0,1170,25ZM1192,32a1,1,0,0,1,2,0v7a17,17,0,0,1-.35,3.42,16.72,16.72,0,0,1-1,3.18,16.71,16.71,0,0,1-9,9.06,1,1,0,0,1-.78-1.84,15.5,15.5,0,0,0,2.54-1.37,16,16,0,0,0,4-4,15.57,15.57,0,0,0,1.38-2.62,13.66,13.66,0,0,0,.87-2.81,14.67,14.67,0,0,0,.31-3Zm-15,22a1,1,0,0,1,0,2,17,17,0,0,1-3.42-.35,16.36,16.36,0,0,1-3.19-1,17.31,17.31,0,0,1-2.9-1.57A16.87,16.87,0,0,1,1165,51a1,1,0,0,1,1.44-1.4,14,14,0,0,0,2.2,1.87,15.3,15.3,0,0,0,2.55,1.38,13.66,13.66,0,0,0,2.81.87A14.67,14.67,0,0,0,1177,54Zm-13.82-9.16a1,1,0,0,1-1.84.78,16.48,16.48,0,0,1-1-3.18A16.67,16.67,0,0,1,1160,39V25a17,17,0,0,1,.35-3.42,16.36,16.36,0,0,1,1-3.19,17.31,17.31,0,0,1,1.57-2.9,17.81,17.81,0,0,1,4.58-4.58,17.5,17.5,0,0,1,2.89-1.56A17.21,17.21,0,0,1,1177,8a17,17,0,0,1,3.42.35,16.72,16.72,0,0,1,3.18,1,16.68,16.68,0,0,1,7.55,6.16,17.5,17.5,0,0,1,1.56,2.89,16.24,16.24,0,0,1,1,3.2A16.49,16.49,0,0,1,1194,25a1,1,0,0,1-2,0,14.46,14.46,0,0,0-.26-3,13.66,13.66,0,0,0-.87-2.81,15.5,15.5,0,0,0-1.37-2.54,15.79,15.79,0,0,0-4-4.06,15.57,15.57,0,0,0-2.62-1.38,13.66,13.66,0,0,0-2.81-.87,14.68,14.68,0,0,0-6,0,13.66,13.66,0,0,0-2.81.87,15.5,15.5,0,0,0-2.54,1.37,15.67,15.67,0,0,0-4.06,4.06,15.3,15.3,0,0,0-1.38,2.55,13.56,13.56,0,0,0-.87,2.82,14.51,14.51,0,0,0-.31,3V39a14.7,14.7,0,0,0,.31,3A13.66,13.66,0,0,0,1163.18,44.84Zm32.88,7a1,1,0,0,1,1.66,1.12,25.35,25.35,0,0,1-6.77,6.77A24.79,24.79,0,0,1,1177,64a1,1,0,0,1,0-2,22.84,22.84,0,0,0,8.93-1.81,23.32,23.32,0,0,0,10.13-8.36Zm-28,8.36a1,1,0,0,1-.78,1.84,24.84,24.84,0,0,1-4.24-2.31,25.35,25.35,0,0,1-6.77-6.77A24.79,24.79,0,0,1,1152,39V25a24.89,24.89,0,0,1,2-9.71,1,1,0,1,1,1.84.78A23,23,0,0,0,1154,25V39a23,23,0,0,0,1.81,8.93,23.32,23.32,0,0,0,12.26,12.26Zm-7.31-51.43a1,1,0,1,1-1.42-1.42,25.9,25.9,0,0,1,3.71-3.06A24.89,24.89,0,0,1,1186.71,2a24.37,24.37,0,0,1,4.23,2.31,25.14,25.14,0,0,1,3.76,3.06,1,1,0,1,1-1.4,1.42,23,23,0,0,0-3.47-2.82,23.42,23.42,0,0,0-3.9-2.13,22.93,22.93,0,0,0-17.86,0,23.42,23.42,0,0,0-3.9,2.13A23,23,0,0,0,1160.76,8.76ZM1201,18a24.47,24.47,0,0,1,1-2.72,1,1,0,1,1,1.84.78A23,23,0,0,0,1202,25h0V39h0a23,23,0,0,0,1.81,8.93,23.42,23.42,0,0,0,2.13,3.9,1,1,0,0,1-1.66,1.12A24.79,24.79,0,0,1,1200,39V25h0a23,23,0,0,0-1.81-8.92,1,1,0,0,1,1.84-.78A24.47,24.47,0,0,1,1201,18Zm49,21a22.94,22.94,0,0,0,1.81,8.92,1,1,0,1,1-1.84.78,24.47,24.47,0,0,1-1-2.72,24.47,24.47,0,0,1-1,2.72,25,25,0,0,1-2.3,4.23,26.53,26.53,0,0,1-3,3.76,1,1,0,0,1-1.44-1.4,25.35,25.35,0,0,0,4.91-7.37A22.94,22.94,0,0,0,1248,39h0V25h0a23.14,23.14,0,0,0-.47-4.62,1,1,0,0,1,2-.4,24.86,24.86,0,0,1,.51,5V39Z"/></g></g></svg>