<svg xmlns="http://www.w3.org/2000/svg" width="13" height="17" viewBox="0 0 13 17">
    <path fill="#006CAF" fill-rule="nonzero" d="M11.375 5.667h-.813v-1.62A4.057 4.057 0 0 0 6.5 0a4.057 4.057 0 0 0-4.063 4.048v1.619h-.812C.731 5.667 0 6.395 0 7.286v8.095C0 16.271.731 17 1.625 17h9.75c.894 0 1.625-.729 1.625-1.619V7.286c0-.89-.731-1.62-1.625-1.62zM6.5 14A2.507 2.507 0 0 1 4 11.5C4 10.125 5.125 9 6.5 9S9 10.125 9 11.5 7.875 14 6.5 14zM9 5.5H4V3.931C4 2.591 5.121 1.5 6.5 1.5S9 2.59 9 3.931V5.5z"/>
</svg>
