<svg xmlns="http://www.w3.org/2000/svg" viewBox="0 0 1581.7 64"><defs><style>.cls-1{fill:none;stroke:#f57d20;stroke-linecap:round;stroke-miterlimit:10;stroke-width:2px;}</style></defs><title>Asset 9</title><g id="Layer_2" data-name="Layer 2"><g id="Layer_1-2" data-name="Layer 1"><path class="cls-1" d="M1054.1,63a31,31,0,1,1,31-31"/><path class="cls-1" d="M1085.1,1a31,31,0,1,1-31,31"/><path class="cls-1" d="M1147,63a31,31,0,1,1,31-31"/><path class="cls-1" d="M1178,1a31,31,0,1,1-31,31"/><path class="cls-1" d="M1239.9,63a31,31,0,1,1,31-31"/><path class="cls-1" d="M1270.9,1a31,31,0,1,1-31,31"/><path class="cls-1" d="M1332.8,63a31,31,0,1,1,31-31"/><path class="cls-1" d="M1363.8,1a31,31,0,1,1-31,31"/><path class="cls-1" d="M1425.7,63a31,31,0,1,1,31-31"/><path class="cls-1" d="M1456.7,1a31,31,0,1,1-31,31"/><path class="cls-1" d="M496.6,63a31,31,0,1,1,31-31"/><path class="cls-1" d="M527.6,1a31,31,0,1,1-31,31"/><path class="cls-1" d="M589.5,63a31,31,0,1,1,31-31"/><path class="cls-1" d="M620.5,1a31,31,0,1,1-31,31"/><path class="cls-1" d="M682.4,63a31,31,0,1,1,31-31"/><path class="cls-1" d="M713.4,1a31,31,0,1,1-31,31"/><path class="cls-1" d="M775.3,63a31,31,0,1,1,31-31"/><path class="cls-1" d="M806.3,1a31,31,0,1,1-31,31"/><path class="cls-1" d="M868.2,63a31,31,0,1,1,31-31"/><path class="cls-1" d="M899.2,1a31,31,0,1,1-31,31"/><path class="cls-1" d="M961.1,63a31,31,0,1,1,31-31"/><path class="cls-1" d="M992.1,1a31,31,0,1,1-31,31"/><path class="cls-1" d="M32,63A31,31,0,1,1,63,32"/><path class="cls-1" d="M63,1A31,31,0,1,1,32,32"/><path class="cls-1" d="M124.9,63a31,31,0,1,1,31-31"/><path class="cls-1" d="M155.9,1a31,31,0,1,1-31,31"/><path class="cls-1" d="M217.8,63a31,31,0,1,1,31-31"/><path class="cls-1" d="M248.8,1a31,31,0,1,1-31,31"/><path class="cls-1" d="M310.7,63a31,31,0,1,1,31-31"/><path class="cls-1" d="M341.7,1a31,31,0,1,1-31,31"/><path class="cls-1" d="M403.6,63a31,31,0,1,1,31-31"/><path class="cls-1" d="M434.6,1a31,31,0,1,1-31,31"/><path class="cls-1" d="M1518.7,63a31,31,0,1,1,31-31"/><path class="cls-1" d="M1549.7,1a31,31,0,1,1-31,31"/></g></g></svg>