<?xml version="1.0" encoding="UTF-8"?>
<svg width="512px" height="64px" viewBox="0 0 512 64" version="1.1" xmlns="http://www.w3.org/2000/svg" xmlns:xlink="http://www.w3.org/1999/xlink">
    <!-- Generator: Sketch 57.1 (83088) - https://sketch.com -->
    <title>Group</title>
    <desc>Created with Sketch.</desc>
    <g id="Page-1" stroke="none" stroke-width="1" fill="none" fill-rule="evenodd">
        <g id="Group" fill="#FF7E06" fill-rule="nonzero">
            <g id="Shape">
                <path d="M32,2 C48.5,2 62,15.5 62,32 C62,48.5 48.5,62 32,62 C15.5,62 2,48.5 2,32 C2,15.5 15.5,2 32,2 Z M32,0 C14.3,0 0,14.3 0,32 C0,49.7 14.3,64 32,64 C49.7,64 64,49.7 64,32 C64,14.3 49.7,0 32,0 Z"></path>
                <path d="M64,2 C80.5,2 94,15.5 94,32 C94,48.5 80.5,62 64,62 C47.5,62 34,48.5 34,32 C34,15.5 47.5,2 64,2 Z M64,0 C46.3,0 32,14.3 32,32 C32,49.7 46.3,64 64,64 C81.7,64 96,49.7 96,32 C96,14.3 81.7,0 64,0 Z"></path>
                <path d="M96,2 C112.5,2 126,15.5 126,32 C126,48.5 112.5,62 96,62 C79.5,62 66,48.5 66,32 C66,15.5 79.5,2 96,2 Z M96,0 C78.3,0 64,14.3 64,32 C64,49.7 78.3,64 96,64 C113.7,64 128,49.7 128,32 C128,14.3 113.7,0 96,0 Z"></path>
                <path d="M128,2 C144.5,2 158,15.5 158,32 C158,48.5 144.5,62 128,62 C111.5,62 98,48.5 98,32 C98,15.5 111.5,2 128,2 Z M128,0 C110.3,0 96,14.3 96,32 C96,49.7 110.3,64 128,64 C145.7,64 160,49.7 160,32 C160,14.3 145.7,0 128,0 Z"></path>
                <path d="M160,2 C176.5,2 190,15.5 190,32 C190,48.5 176.5,62 160,62 C143.5,62 130,48.5 130,32 C130,15.5 143.5,2 160,2 Z M160,0 C142.3,0 128,14.3 128,32 C128,49.7 142.3,64 160,64 C177.7,64 192,49.7 192,32 C192,14.3 177.7,0 160,0 Z"></path>
                <path d="M192,2 C208.5,2 222,15.5 222,32 C222,48.5 208.5,62 192,62 C175.5,62 162,48.5 162,32 C162,15.5 175.5,2 192,2 Z M192,0 C174.3,0 160,14.3 160,32 C160,49.7 174.3,64 192,64 C209.7,64 224,49.7 224,32 C224,14.3 209.7,0 192,0 Z"></path>
                <path d="M224,2 C240.5,2 254,15.5 254,32 C254,48.5 240.5,62 224,62 C207.5,62 194,48.5 194,32 C194,15.5 207.5,2 224,2 Z M224,0 C206.3,0 192,14.3 192,32 C192,49.7 206.3,64 224,64 C241.7,64 256,49.7 256,32 C256,14.3 241.7,0 224,0 Z"></path>
                <path d="M256,2 C272.5,2 286,15.5 286,32 C286,48.5 272.5,62 256,62 C239.5,62 226,48.5 226,32 C226,15.5 239.5,2 256,2 Z M256,0 C238.3,0 224,14.3 224,32 C224,49.7 238.3,64 256,64 C273.7,64 288,49.7 288,32 C288,14.3 273.7,0 256,0 Z"></path>
                <path d="M288,2 C304.5,2 318,15.5 318,32 C318,48.5 304.5,62 288,62 C271.5,62 258,48.5 258,32 C258,15.5 271.5,2 288,2 Z M288,0 C270.3,0 256,14.3 256,32 C256,49.7 270.3,64 288,64 C305.7,64 320,49.7 320,32 C320,14.3 305.7,0 288,0 Z"></path>
                <path d="M320,2 C336.5,2 350,15.5 350,32 C350,48.5 336.5,62 320,62 C303.5,62 290,48.5 290,32 C290,15.5 303.5,2 320,2 Z M320,0 C302.3,0 288,14.3 288,32 C288,49.7 302.3,64 320,64 C337.7,64 352,49.7 352,32 C352,14.3 337.7,0 320,0 Z"></path>
                <path d="M352,2 C368.5,2 382,15.5 382,32 C382,48.5 368.5,62 352,62 C335.5,62 322,48.5 322,32 C322,15.5 335.5,2 352,2 Z M352,0 C334.3,0 320,14.3 320,32 C320,49.7 334.3,64 352,64 C369.7,64 384,49.7 384,32 C384,14.3 369.7,0 352,0 Z"></path>
                <path d="M384,2 C400.5,2 414,15.5 414,32 C414,48.5 400.5,62 384,62 C367.5,62 354,48.5 354,32 C354,15.5 367.5,2 384,2 Z M384,0 C366.3,0 352,14.3 352,32 C352,49.7 366.3,64 384,64 C401.7,64 416,49.7 416,32 C416,14.3 401.7,0 384,0 Z"></path>
                <path d="M416,2 C432.5,2 446,15.5 446,32 C446,48.5 432.5,62 416,62 C399.5,62 386,48.5 386,32 C386,15.5 399.5,2 416,2 Z M416,0 C398.3,0 384,14.3 384,32 C384,49.7 398.3,64 416,64 C433.7,64 448,49.7 448,32 C448,14.3 433.7,0 416,0 Z"></path>
                <path d="M448,2 C464.5,2 478,15.5 478,32 C478,48.5 464.5,62 448,62 C431.5,62 418,48.5 418,32 C418,15.5 431.5,2 448,2 Z M448,0 C430.3,0 416,14.3 416,32 C416,49.7 430.3,64 448,64 C465.7,64 480,49.7 480,32 C480,14.3 465.7,0 448,0 Z"></path>
                <path d="M480,2 C496.5,2 510,15.5 510,32 C510,48.5 496.5,62 480,62 C463.5,62 450,48.5 450,32 C450,15.5 463.5,2 480,2 Z M480,0 C462.3,0 448,14.3 448,32 C448,49.7 462.3,64 480,64 C497.7,64 512,49.7 512,32 C512,14.3 497.7,0 480,0 Z"></path>
            </g>
        </g>
    </g>
</svg>