<svg xmlns="http://www.w3.org/2000/svg" viewBox="0 0 529.05 64"><defs><style>.cls-1{fill:#ff7e06;}</style></defs><title>Asset 12</title><g id="Layer_2" data-name="Layer 2"><g id="Layer_1-2" data-name="Layer 1"><path class="cls-1" d="M32,2a5.52,5.52,0,0,0-3.9,1.6L3.58,28.09a5.43,5.43,0,0,0,0,7.8L28.1,60.4a5.43,5.43,0,0,0,7.8,0L60.42,35.89a5.43,5.43,0,0,0,0-7.8L35.9,3.58A5.52,5.52,0,0,0,32,2Zm0,62a7.42,7.42,0,0,1-5.3-2.2L2.18,37.29a7.53,7.53,0,0,1,0-10.6L26.7,2.18a7.53,7.53,0,0,1,10.6,0L61.82,26.69a7.53,7.53,0,0,1,0,10.6L37.3,61.8A7.42,7.42,0,0,1,32,64Z"/><path class="cls-1" d="M63,2a5.44,5.44,0,0,0-3.9,1.6L34.59,28.09a5.43,5.43,0,0,0,0,7.8L59.11,60.4a5.45,5.45,0,0,0,7.81,0L91.43,35.89a5.42,5.42,0,0,0,0-7.8L66.92,3.58A5.48,5.48,0,0,0,63,2Zm0,62a7.42,7.42,0,0,1-5.3-2.2L33.19,37.29a7.54,7.54,0,0,1,0-10.6L57.71,2.18a7.54,7.54,0,0,1,10.61,0L92.84,26.69a7.54,7.54,0,0,1,0,10.6L68.32,61.8A7.46,7.46,0,0,1,63,64Z"/><path class="cls-1" d="M94,2a5.44,5.44,0,0,0-3.9,1.6L65.6,28.09a5.43,5.43,0,0,0,0,7.8L90.12,60.4a5.45,5.45,0,0,0,7.81,0l24.52-24.51a5.43,5.43,0,0,0,0-7.8L97.93,3.58A5.45,5.45,0,0,0,94,2Zm0,62a7.42,7.42,0,0,1-5.3-2.2L64.2,37.29a7.54,7.54,0,0,1,0-10.6L88.72,2.18a7.54,7.54,0,0,1,10.61,0l24.52,24.51a7.54,7.54,0,0,1,0,10.6L99.33,61.8A7.42,7.42,0,0,1,94,64Z"/><path class="cls-1" d="M125,2a5.47,5.47,0,0,0-3.91,1.6L96.61,28.09a5.43,5.43,0,0,0,0,7.8L121.13,60.4a5.45,5.45,0,0,0,7.81,0l24.52-24.51a5.43,5.43,0,0,0,0-7.8L128.94,3.58A5.44,5.44,0,0,0,125,2Zm0,62a7.42,7.42,0,0,1-5.31-2.2L95.21,37.29a7.54,7.54,0,0,1,0-10.6L119.73,2.18a7.54,7.54,0,0,1,10.61,0l24.52,24.51a7.54,7.54,0,0,1,0,10.6L130.34,61.8A7.42,7.42,0,0,1,125,64Z"/><path class="cls-1" d="M156.05,2a5.44,5.44,0,0,0-3.9,1.6L127.63,28.09a5.42,5.42,0,0,0,0,7.8L152.15,60.4a5.43,5.43,0,0,0,7.8,0l24.52-24.51a5.43,5.43,0,0,0,0-7.8L160,3.58A5.44,5.44,0,0,0,156.05,2Zm0,62a7.46,7.46,0,0,1-5.31-2.2L126.23,37.29a7.53,7.53,0,0,1,0-10.6L150.74,2.18a7.54,7.54,0,0,1,10.61,0l24.52,24.51a7.54,7.54,0,0,1,0,10.6L161.35,61.8A7.42,7.42,0,0,1,156.05,64Z"/><path class="cls-1" d="M187.06,2a5.44,5.44,0,0,0-3.9,1.6L158.64,28.09a5.43,5.43,0,0,0,0,7.8L183.16,60.4a5.43,5.43,0,0,0,7.8,0l24.52-24.51a5.52,5.52,0,0,0,0-7.8L191,3.58A5.44,5.44,0,0,0,187.06,2Zm0,62a7.42,7.42,0,0,1-5.3-2.2L157.24,37.29a7.53,7.53,0,0,1,0-10.6L181.76,2.18a7.53,7.53,0,0,1,10.6,0l24.52,24.51a7.53,7.53,0,0,1,0,10.6L192.36,61.8A7.42,7.42,0,0,1,187.06,64Z"/><path class="cls-1" d="M218.07,2a5.44,5.44,0,0,0-3.9,1.6L189.65,28.09a5.43,5.43,0,0,0,0,7.8L214.17,60.4a5.63,5.63,0,0,0,7.81,0L246.5,35.89a5.52,5.52,0,0,0,0-7.8L222,3.58A5.48,5.48,0,0,0,218.07,2Zm0,62a7.42,7.42,0,0,1-5.3-2.2L188.25,37.29a7.54,7.54,0,0,1,0-10.6L212.77,2.18a7.54,7.54,0,0,1,10.61,0L247.9,26.69a7.54,7.54,0,0,1,0,10.6L223.38,61.8A7.44,7.44,0,0,1,218.07,64Z"/><path class="cls-1" d="M249.08,2a5.44,5.44,0,0,0-3.9,1.6L220.66,28.09a5.52,5.52,0,0,0,0,7.8L245.18,60.4a5.63,5.63,0,0,0,7.81,0l24.52-24.51a5.52,5.52,0,0,0,0-7.8L253,3.58A5.45,5.45,0,0,0,249.08,2Zm0,62a7.42,7.42,0,0,1-5.3-2.2L219.26,37.29a7.54,7.54,0,0,1,0-10.6L243.78,2.18a7.54,7.54,0,0,1,10.61,0l24.52,24.51a7.54,7.54,0,0,1,0,10.6L254.39,61.8A7.42,7.42,0,0,1,249.08,64Z"/><path class="cls-1" d="M280.1,2a5.47,5.47,0,0,0-3.91,1.6L251.67,28.09a5.52,5.52,0,0,0,0,7.8L276.19,60.4a5.63,5.63,0,0,0,7.81,0l24.52-24.51a5.52,5.52,0,0,0,0-7.8L284,3.58A5.44,5.44,0,0,0,280.1,2Zm0,62a7.44,7.44,0,0,1-5.31-2.2L250.27,37.29a7.54,7.54,0,0,1,0-10.6L274.79,2.18a7.54,7.54,0,0,1,10.61,0l24.52,24.51a7.54,7.54,0,0,1,0,10.6L285.4,61.8A7.42,7.42,0,0,1,280.1,64Z"/><path class="cls-1" d="M311.11,2a5.44,5.44,0,0,0-3.9,1.6L282.69,28.09a5.52,5.52,0,0,0,0,7.8L307.21,60.4a5.62,5.62,0,0,0,7.8,0l24.52-24.51a5.52,5.52,0,0,0,0-7.8L315,3.58A5.44,5.44,0,0,0,311.11,2Zm0,62a7.46,7.46,0,0,1-5.31-2.2L281.29,37.29a7.53,7.53,0,0,1,0-10.6L305.8,2.18a7.54,7.54,0,0,1,10.61,0l24.52,24.51a7.54,7.54,0,0,1,0,10.6L316.41,61.8A7.42,7.42,0,0,1,311.11,64Z"/><path class="cls-1" d="M342.12,2a5.44,5.44,0,0,0-3.9,1.6L313.7,28.09a5.52,5.52,0,0,0,0,7.8L338.22,60.4a5.62,5.62,0,0,0,7.8,0l24.52-24.51a5.51,5.51,0,0,0,0-7.8L346,3.58A5.44,5.44,0,0,0,342.12,2Zm0,62a7.42,7.42,0,0,1-5.3-2.2L312.3,37.29a7.54,7.54,0,0,1,0-10.6L336.82,2.18a7.54,7.54,0,0,1,10.61,0l24.51,24.51a7.53,7.53,0,0,1,0,10.6L347.43,61.8A7.46,7.46,0,0,1,342.12,64Z"/><path class="cls-1" d="M373,2a5.52,5.52,0,0,0-3.9,1.6L344.58,28.09a5.43,5.43,0,0,0,0,7.8L369.1,60.4a5.43,5.43,0,0,0,7.8,0l24.52-24.51a5.43,5.43,0,0,0,0-7.8L376.9,3.58A5.52,5.52,0,0,0,373,2Zm0,62a7.42,7.42,0,0,1-5.3-2.2L343.18,37.29a7.53,7.53,0,0,1,0-10.6L367.7,2.18a7.53,7.53,0,0,1,10.6,0l24.52,24.51a7.53,7.53,0,0,1,0,10.6L378.3,61.8A7.42,7.42,0,0,1,373,64Z"/><path class="cls-1" d="M404,2a5.44,5.44,0,0,0-3.9,1.6L375.59,28.09a5.43,5.43,0,0,0,0,7.8L400.11,60.4a5.45,5.45,0,0,0,7.81,0l24.51-24.51a5.42,5.42,0,0,0,0-7.8L407.92,3.58A5.48,5.48,0,0,0,404,2Zm0,62a7.42,7.42,0,0,1-5.3-2.2L374.19,37.29a7.54,7.54,0,0,1,0-10.6L398.71,2.18a7.54,7.54,0,0,1,10.61,0l24.52,24.51a7.54,7.54,0,0,1,0,10.6L409.32,61.8A7.44,7.44,0,0,1,404,64Z"/><path class="cls-1" d="M435,2a5.44,5.44,0,0,0-3.9,1.6L406.6,28.09a5.43,5.43,0,0,0,0,7.8L431.12,60.4a5.45,5.45,0,0,0,7.81,0l24.52-24.51a5.43,5.43,0,0,0,0-7.8L438.93,3.58A5.45,5.45,0,0,0,435,2Zm0,62a7.42,7.42,0,0,1-5.3-2.2L405.2,37.29a7.54,7.54,0,0,1,0-10.6L429.72,2.18a7.54,7.54,0,0,1,10.61,0l24.52,24.51a7.54,7.54,0,0,1,0,10.6L440.33,61.8A7.42,7.42,0,0,1,435,64Z"/><path class="cls-1" d="M466,2a5.47,5.47,0,0,0-3.91,1.6L437.61,28.09a5.43,5.43,0,0,0,0,7.8L462.13,60.4a5.45,5.45,0,0,0,7.81,0l24.52-24.51a5.43,5.43,0,0,0,0-7.8L469.94,3.58A5.44,5.44,0,0,0,466,2Zm0,62a7.42,7.42,0,0,1-5.31-2.2L436.21,37.29a7.54,7.54,0,0,1,0-10.6L460.73,2.18a7.54,7.54,0,0,1,10.61,0l24.52,24.51a7.54,7.54,0,0,1,0,10.6L471.34,61.8A7.42,7.42,0,0,1,466,64Z"/><path class="cls-1" d="M497.05,2a5.44,5.44,0,0,0-3.9,1.6L468.63,28.09a5.42,5.42,0,0,0,0,7.8L493.15,60.4a5.43,5.43,0,0,0,7.8,0l24.52-24.51a5.43,5.43,0,0,0,0-7.8L501,3.58A5.44,5.44,0,0,0,497.05,2Zm0,62a7.46,7.46,0,0,1-5.31-2.2L467.22,37.29a7.54,7.54,0,0,1,0-10.6L491.74,2.18a7.54,7.54,0,0,1,10.61,0l24.52,24.51a7.54,7.54,0,0,1,0,10.6L502.35,61.8A7.42,7.42,0,0,1,497.05,64Z"/></g></g></svg>