<svg width="1440" height="64" viewBox="0 0 1440 64" fill="none" xmlns="http://www.w3.org/2000/svg">
<path fill-rule="evenodd" clip-rule="evenodd" d="M31.5564 55.5563C27.4305 59.6821 21.8348 62 16 62H0C-5.83476 62 -11.4305 59.6821 -15.5563 55.5563C-18.164 52.9486 -20.0495 49.7537 -21.084 46.2824C-18.0956 45.0866 -15.3495 43.2906 -13.0294 40.9706C-8.52856 36.4697 -6 30.3652 -6 24C-6 22.3033 -6.17966 20.6251 -6.52845 18.9909C-4.43342 18.3399 -2.23422 18 7.62939e-06 18C0.265221 18 0.519577 17.8946 0.707115 17.7071L16.7071 1.70711C17.0976 1.31658 17.0976 0.683417 16.7071 0.292892C16.3166 -0.0976305 15.6834 -0.0976305 15.2929 0.292891L-0.417839 16.0036C-2.678 16.0429 -4.90144 16.4007 -7.02771 17.0519C-8.16214 13.3016 -10.2084 9.85051 -13.0294 7.02944C-17.5303 2.52856 -23.6348 1.14087e-06 -30 1.14087e-06H-46C-52.3652 1.14087e-06 -58.4697 2.52856 -62.9706 7.02944C-67.4714 11.5303 -70 17.6348 -70 24C-70 30.3652 -67.4714 36.4697 -62.9706 40.9706C-58.4697 45.4714 -52.3652 48 -46 48C-45.4477 48 -45 47.5523 -45 47C-45 46.4477 -45.4477 46 -46 46C-51.8348 46 -57.4305 43.6821 -61.5563 39.5563C-65.6821 35.4305 -68 29.8348 -68 24C-68 18.1652 -65.6821 12.5695 -61.5563 8.44365C-57.4305 4.31785 -51.8348 2 -46 2H-30C-24.1652 2 -18.5695 4.31785 -14.4437 8.44365C-11.836 11.0513 -9.9505 14.2463 -8.91604 17.7176C-11.9044 18.9134 -14.6505 20.7094 -16.9706 23.0294C-21.4714 27.5303 -24 33.6348 -24 40C-24 41.6967 -23.8203 43.3749 -23.4715 45.0091C-25.5666 45.6601 -27.7658 46 -30 46C-30.2652 46 -30.5196 46.1054 -30.7071 46.2929L-46.7071 62.2929C-47.0976 62.6834 -47.0976 63.3166 -46.7071 63.7071C-46.3166 64.0976 -45.6834 64.0976 -45.2929 63.7071L-29.5822 47.9964C-27.322 47.9571 -25.0986 47.5993 -22.9723 46.9481C-21.8379 50.6984 -19.7916 54.1495 -16.9706 56.9706C-12.4697 61.4714 -6.3652 64 0 64H16C22.3652 64 28.4697 61.4714 32.9706 56.9706C37.4714 52.4697 40 46.3652 40 40C40 33.6348 37.4714 27.5303 32.9706 23.0294C28.4697 18.5286 22.3652 16 16 16C15.4477 16 15 16.4477 15 17C15 17.5523 15.4477 18 16 18C21.8348 18 27.4305 20.3179 31.5564 24.4437C35.6822 28.5695 38 34.1652 38 40C38 45.8348 35.6822 51.4305 31.5564 55.5563ZM-21.5715 44.3214C-18.9311 43.2263 -16.5041 41.6168 -14.4437 39.5563C-10.3179 35.4305 -8 29.8348 -8 24C-8 22.5381 -8.14551 21.0911 -8.42851 19.6786C-11.0689 20.7737 -13.4959 22.3832 -15.5563 24.4436C-19.6821 28.5695 -22 34.1652 -22 40C-22 41.4619 -21.8545 42.9089 -21.5715 44.3214Z" fill="#C704FF"/>
<path fill-rule="evenodd" clip-rule="evenodd" d="M123.556 55.5563C119.431 59.6821 113.835 62 108 62H92C86.1652 62 80.5695 59.6821 76.4437 55.5563C73.836 52.9486 71.9505 49.7537 70.916 46.2824C73.9044 45.0866 76.6505 43.2906 78.9706 40.9706C83.4714 36.4697 86 30.3652 86 24C86 22.3033 85.8203 20.6251 85.4715 18.9909C87.5666 18.3399 89.7658 18 92 18C92.2652 18 92.5196 17.8946 92.7071 17.7071L108.707 1.70711C109.098 1.31658 109.098 0.683417 108.707 0.292892C108.317 -0.0976305 107.683 -0.0976305 107.293 0.292891L91.5822 16.0036C89.322 16.0429 87.0986 16.4007 84.9723 17.0519C83.8379 13.3016 81.7916 9.85051 78.9706 7.02944C74.4697 2.52856 68.3652 1.14087e-06 62 1.14087e-06H46C39.6348 1.14087e-06 33.5303 2.52856 29.0294 7.02944C24.5286 11.5303 22 17.6348 22 24C22 30.3652 24.5286 36.4697 29.0294 40.9706C33.5303 45.4714 39.6348 48 46 48C46.5523 48 47 47.5523 47 47C47 46.4477 46.5523 46 46 46C40.1652 46 34.5695 43.6821 30.4437 39.5563C26.3179 35.4305 24 29.8348 24 24C24 18.1652 26.3179 12.5695 30.4437 8.44365C34.5695 4.31785 40.1652 2 46 2H62C67.8348 2 73.4305 4.31785 77.5563 8.44365C80.164 11.0513 82.0495 14.2463 83.084 17.7176C80.0956 18.9134 77.3495 20.7094 75.0294 23.0294C70.5286 27.5303 68 33.6348 68 40C68 41.6967 68.1797 43.3749 68.5285 45.0091C66.4334 45.6601 64.2342 46 62 46C61.7348 46 61.4804 46.1054 61.2929 46.2929L45.2929 62.2929C44.9024 62.6834 44.9024 63.3166 45.2929 63.7071C45.6834 64.0976 46.3166 64.0976 46.7071 63.7071L62.4178 47.9964C64.678 47.9571 66.9014 47.5993 69.0277 46.9481C70.1621 50.6984 72.2084 54.1495 75.0294 56.9706C79.5303 61.4714 85.6348 64 92 64H108C114.365 64 120.47 61.4714 124.971 56.9706C129.471 52.4697 132 46.3652 132 40C132 33.6348 129.471 27.5303 124.971 23.0294C120.47 18.5286 114.365 16 108 16C107.448 16 107 16.4477 107 17C107 17.5523 107.448 18 108 18C113.835 18 119.431 20.3179 123.556 24.4437C127.682 28.5695 130 34.1652 130 40C130 45.8348 127.682 51.4305 123.556 55.5563ZM70.4285 44.3214C73.0689 43.2263 75.4959 41.6168 77.5563 39.5563C81.6821 35.4305 84 29.8348 84 24C84 22.5381 83.8545 21.0911 83.5715 19.6786C80.9311 20.7737 78.5041 22.3832 76.4437 24.4436C72.3179 28.5695 70 34.1652 70 40C70 41.4619 70.1455 42.9089 70.4285 44.3214Z" fill="#C704FF"/>
<path fill-rule="evenodd" clip-rule="evenodd" d="M215.556 55.5563C211.431 59.6821 205.835 62 200 62H184C178.165 62 172.569 59.6821 168.444 55.5563C165.836 52.9486 163.951 49.7537 162.916 46.2824C165.904 45.0866 168.651 43.2906 170.971 40.9706C175.471 36.4697 178 30.3652 178 24C178 22.3033 177.82 20.6251 177.472 18.9909C179.567 18.3399 181.766 18 184 18C184.265 18 184.52 17.8946 184.707 17.7071L200.707 1.70711C201.098 1.31658 201.098 0.683417 200.707 0.292892C200.317 -0.0976305 199.683 -0.0976305 199.293 0.292891L183.582 16.0036C181.322 16.0429 179.099 16.4007 176.972 17.0519C175.838 13.3016 173.792 9.85051 170.971 7.02944C166.47 2.52856 160.365 1.14087e-06 154 1.14087e-06H138C131.635 1.14087e-06 125.53 2.52856 121.029 7.02944C116.529 11.5303 114 17.6348 114 24C114 30.3652 116.529 36.4697 121.029 40.9706C125.53 45.4714 131.635 48 138 48C138.552 48 139 47.5523 139 47C139 46.4477 138.552 46 138 46C132.165 46 126.569 43.6821 122.444 39.5563C118.318 35.4305 116 29.8348 116 24C116 18.1652 118.318 12.5695 122.444 8.44365C126.569 4.31785 132.165 2 138 2H154C159.835 2 165.431 4.31785 169.556 8.44365C172.164 11.0513 174.049 14.2463 175.084 17.7176C172.096 18.9134 169.349 20.7094 167.029 23.0294C162.529 27.5303 160 33.6348 160 40C160 41.6967 160.18 43.3749 160.528 45.0091C158.433 45.6601 156.234 46 154 46C153.735 46 153.48 46.1054 153.293 46.2929L137.293 62.2929C136.902 62.6834 136.902 63.3166 137.293 63.7071C137.683 64.0976 138.317 64.0976 138.707 63.7071L154.418 47.9964C156.678 47.9571 158.901 47.5993 161.028 46.9481C162.162 50.6984 164.208 54.1495 167.029 56.9706C171.53 61.4714 177.635 64 184 64H200C206.365 64 212.47 61.4714 216.971 56.9706C221.471 52.4697 224 46.3652 224 40C224 33.6348 221.471 27.5303 216.971 23.0294C212.47 18.5286 206.365 16 200 16C199.448 16 199 16.4477 199 17C199 17.5523 199.448 18 200 18C205.835 18 211.431 20.3179 215.556 24.4437C219.682 28.5695 222 34.1652 222 40C222 45.8348 219.682 51.4305 215.556 55.5563ZM162.429 44.3214C165.069 43.2263 167.496 41.6168 169.556 39.5563C173.682 35.4305 176 29.8348 176 24C176 22.5381 175.854 21.0911 175.571 19.6786C172.931 20.7737 170.504 22.3832 168.444 24.4436C164.318 28.5695 162 34.1652 162 40C162 41.4619 162.146 42.9089 162.429 44.3214Z" fill="#C704FF"/>
<path fill-rule="evenodd" clip-rule="evenodd" d="M307.556 55.5563C303.431 59.6821 297.835 62 292 62H276C270.165 62 264.569 59.6821 260.444 55.5563C257.836 52.9486 255.951 49.7537 254.916 46.2824C257.904 45.0866 260.651 43.2906 262.971 40.9706C267.471 36.4697 270 30.3652 270 24C270 22.3033 269.82 20.6251 269.472 18.9909C271.567 18.3399 273.766 18 276 18C276.265 18 276.52 17.8946 276.707 17.7071L292.707 1.70711C293.098 1.31658 293.098 0.683417 292.707 0.292892C292.317 -0.0976305 291.683 -0.0976305 291.293 0.292891L275.582 16.0036C273.322 16.0429 271.099 16.4007 268.972 17.0519C267.838 13.3016 265.792 9.85051 262.971 7.02944C258.47 2.52856 252.365 1.14087e-06 246 1.14087e-06H230C223.635 1.14087e-06 217.53 2.52856 213.029 7.02944C208.529 11.5303 206 17.6348 206 24C206 30.3652 208.529 36.4697 213.029 40.9706C217.53 45.4714 223.635 48 230 48C230.552 48 231 47.5523 231 47C231 46.4477 230.552 46 230 46C224.165 46 218.569 43.6821 214.444 39.5563C210.318 35.4305 208 29.8348 208 24C208 18.1652 210.318 12.5695 214.444 8.44365C218.569 4.31785 224.165 2 230 2H246C251.835 2 257.431 4.31785 261.556 8.44365C264.164 11.0513 266.049 14.2463 267.084 17.7176C264.096 18.9134 261.349 20.7094 259.029 23.0294C254.529 27.5303 252 33.6348 252 40C252 41.6967 252.18 43.3749 252.528 45.0091C250.433 45.6601 248.234 46 246 46C245.735 46 245.48 46.1054 245.293 46.2929L229.293 62.2929C228.902 62.6834 228.902 63.3166 229.293 63.7071C229.683 64.0976 230.317 64.0976 230.707 63.7071L246.418 47.9964C248.678 47.9571 250.901 47.5993 253.028 46.9481C254.162 50.6984 256.208 54.1495 259.029 56.9706C263.53 61.4714 269.635 64 276 64H292C298.365 64 304.47 61.4714 308.971 56.9706C313.471 52.4697 316 46.3652 316 40C316 33.6348 313.471 27.5303 308.971 23.0294C304.47 18.5286 298.365 16 292 16C291.448 16 291 16.4477 291 17C291 17.5523 291.448 18 292 18C297.835 18 303.431 20.3179 307.556 24.4437C311.682 28.5695 314 34.1652 314 40C314 45.8348 311.682 51.4305 307.556 55.5563ZM254.429 44.3214C257.069 43.2263 259.496 41.6168 261.556 39.5563C265.682 35.4305 268 29.8348 268 24C268 22.5381 267.854 21.0911 267.571 19.6786C264.931 20.7737 262.504 22.3832 260.444 24.4436C256.318 28.5695 254 34.1652 254 40C254 41.4619 254.146 42.9089 254.429 44.3214Z" fill="#C704FF"/>
<path fill-rule="evenodd" clip-rule="evenodd" d="M399.556 55.5563C395.431 59.6821 389.835 62 384 62H368C362.165 62 356.569 59.6821 352.444 55.5563C349.836 52.9486 347.951 49.7537 346.916 46.2824C349.904 45.0866 352.651 43.2906 354.971 40.9706C359.471 36.4697 362 30.3652 362 24C362 22.3033 361.82 20.6251 361.472 18.9909C363.567 18.3399 365.766 18 368 18C368.265 18 368.52 17.8946 368.707 17.7071L384.707 1.70711C385.098 1.31658 385.098 0.683417 384.707 0.292892C384.317 -0.0976305 383.683 -0.0976305 383.293 0.292891L367.582 16.0036C365.322 16.0429 363.099 16.4007 360.972 17.0519C359.838 13.3016 357.792 9.85051 354.971 7.02944C350.47 2.52856 344.365 1.14087e-06 338 1.14087e-06H322C315.635 1.14087e-06 309.53 2.52856 305.029 7.02944C300.529 11.5303 298 17.6348 298 24C298 30.3652 300.529 36.4697 305.029 40.9706C309.53 45.4714 315.635 48 322 48C322.552 48 323 47.5523 323 47C323 46.4477 322.552 46 322 46C316.165 46 310.569 43.6821 306.444 39.5563C302.318 35.4305 300 29.8348 300 24C300 18.1652 302.318 12.5695 306.444 8.44365C310.569 4.31785 316.165 2 322 2H338C343.835 2 349.431 4.31785 353.556 8.44365C356.164 11.0513 358.049 14.2463 359.084 17.7176C356.096 18.9134 353.349 20.7094 351.029 23.0294C346.529 27.5303 344 33.6348 344 40C344 41.6967 344.18 43.3749 344.528 45.0091C342.433 45.6601 340.234 46 338 46C337.735 46 337.48 46.1054 337.293 46.2929L321.293 62.2929C320.902 62.6834 320.902 63.3166 321.293 63.7071C321.683 64.0976 322.317 64.0976 322.707 63.7071L338.418 47.9964C340.678 47.9571 342.901 47.5993 345.028 46.9481C346.162 50.6984 348.208 54.1495 351.029 56.9706C355.53 61.4714 361.635 64 368 64H384C390.365 64 396.47 61.4714 400.971 56.9706C405.471 52.4697 408 46.3652 408 40C408 33.6348 405.471 27.5303 400.971 23.0294C396.47 18.5286 390.365 16 384 16C383.448 16 383 16.4477 383 17C383 17.5523 383.448 18 384 18C389.835 18 395.431 20.3179 399.556 24.4437C403.682 28.5695 406 34.1652 406 40C406 45.8348 403.682 51.4305 399.556 55.5563ZM346.429 44.3214C349.069 43.2263 351.496 41.6168 353.556 39.5563C357.682 35.4305 360 29.8348 360 24C360 22.5381 359.854 21.0911 359.571 19.6786C356.931 20.7737 354.504 22.3832 352.444 24.4436C348.318 28.5695 346 34.1652 346 40C346 41.4619 346.146 42.9089 346.429 44.3214Z" fill="#C704FF"/>
<path fill-rule="evenodd" clip-rule="evenodd" d="M491.556 55.5563C487.431 59.6821 481.835 62 476 62H460C454.165 62 448.569 59.6821 444.444 55.5563C441.836 52.9486 439.951 49.7537 438.916 46.2824C441.904 45.0866 444.651 43.2906 446.971 40.9706C451.471 36.4697 454 30.3652 454 24C454 22.3033 453.82 20.6251 453.472 18.9909C455.567 18.3399 457.766 18 460 18C460.265 18 460.52 17.8946 460.707 17.7071L476.707 1.70711C477.098 1.31658 477.098 0.683417 476.707 0.292892C476.317 -0.0976305 475.683 -0.0976305 475.293 0.292891L459.582 16.0036C457.322 16.0429 455.099 16.4007 452.972 17.0519C451.838 13.3016 449.792 9.85051 446.971 7.02944C442.47 2.52856 436.365 1.14087e-06 430 1.14087e-06H414C407.635 1.14087e-06 401.53 2.52856 397.029 7.02944C392.529 11.5303 390 17.6348 390 24C390 30.3652 392.529 36.4697 397.029 40.9706C401.53 45.4714 407.635 48 414 48C414.552 48 415 47.5523 415 47C415 46.4477 414.552 46 414 46C408.165 46 402.569 43.6821 398.444 39.5563C394.318 35.4305 392 29.8348 392 24C392 18.1652 394.318 12.5695 398.444 8.44365C402.569 4.31785 408.165 2 414 2H430C435.835 2 441.431 4.31785 445.556 8.44365C448.164 11.0513 450.049 14.2463 451.084 17.7176C448.096 18.9134 445.349 20.7094 443.029 23.0294C438.529 27.5303 436 33.6348 436 40C436 41.6967 436.18 43.3749 436.528 45.0091C434.433 45.6601 432.234 46 430 46C429.735 46 429.48 46.1054 429.293 46.2929L413.293 62.2929C412.902 62.6834 412.902 63.3166 413.293 63.7071C413.683 64.0976 414.317 64.0976 414.707 63.7071L430.418 47.9964C432.678 47.9571 434.901 47.5993 437.028 46.9481C438.162 50.6984 440.208 54.1495 443.029 56.9706C447.53 61.4714 453.635 64 460 64H476C482.365 64 488.47 61.4714 492.971 56.9706C497.471 52.4697 500 46.3652 500 40C500 33.6348 497.471 27.5303 492.971 23.0294C488.47 18.5286 482.365 16 476 16C475.448 16 475 16.4477 475 17C475 17.5523 475.448 18 476 18C481.835 18 487.431 20.3179 491.556 24.4437C495.682 28.5695 498 34.1652 498 40C498 45.8348 495.682 51.4305 491.556 55.5563ZM438.429 44.3214C441.069 43.2263 443.496 41.6168 445.556 39.5563C449.682 35.4305 452 29.8348 452 24C452 22.5381 451.854 21.0911 451.571 19.6786C448.931 20.7737 446.504 22.3832 444.444 24.4436C440.318 28.5695 438 34.1652 438 40C438 41.4619 438.146 42.9089 438.429 44.3214Z" fill="#C704FF"/>
<path fill-rule="evenodd" clip-rule="evenodd" d="M583.556 55.5563C579.431 59.6821 573.835 62 568 62H552C546.165 62 540.569 59.6821 536.444 55.5563C533.836 52.9486 531.951 49.7537 530.916 46.2824C533.904 45.0866 536.651 43.2906 538.971 40.9706C543.471 36.4697 546 30.3652 546 24C546 22.3033 545.82 20.6251 545.472 18.9909C547.567 18.3399 549.766 18 552 18C552.265 18 552.52 17.8946 552.707 17.7071L568.707 1.70711C569.098 1.31658 569.098 0.683417 568.707 0.292892C568.317 -0.0976305 567.683 -0.0976305 567.293 0.292891L551.582 16.0036C549.322 16.0429 547.099 16.4007 544.972 17.0519C543.838 13.3016 541.792 9.85051 538.971 7.02944C534.47 2.52856 528.365 1.14087e-06 522 1.14087e-06H506C499.635 1.14087e-06 493.53 2.52856 489.029 7.02944C484.529 11.5303 482 17.6348 482 24C482 30.3652 484.529 36.4697 489.029 40.9706C493.53 45.4714 499.635 48 506 48C506.552 48 507 47.5523 507 47C507 46.4477 506.552 46 506 46C500.165 46 494.569 43.6821 490.444 39.5563C486.318 35.4305 484 29.8348 484 24C484 18.1652 486.318 12.5695 490.444 8.44365C494.569 4.31785 500.165 2 506 2H522C527.835 2 533.431 4.31785 537.556 8.44365C540.164 11.0513 542.049 14.2463 543.084 17.7176C540.096 18.9134 537.349 20.7094 535.029 23.0294C530.529 27.5303 528 33.6348 528 40C528 41.6967 528.18 43.3749 528.528 45.0091C526.433 45.6601 524.234 46 522 46C521.735 46 521.48 46.1054 521.293 46.2929L505.293 62.2929C504.902 62.6834 504.902 63.3166 505.293 63.7071C505.683 64.0976 506.317 64.0976 506.707 63.7071L522.418 47.9964C524.678 47.9571 526.901 47.5993 529.028 46.9481C530.162 50.6984 532.208 54.1495 535.029 56.9706C539.53 61.4714 545.635 64 552 64H568C574.365 64 580.47 61.4714 584.971 56.9706C589.471 52.4697 592 46.3652 592 40C592 33.6348 589.471 27.5303 584.971 23.0294C580.47 18.5286 574.365 16 568 16C567.448 16 567 16.4477 567 17C567 17.5523 567.448 18 568 18C573.835 18 579.431 20.3179 583.556 24.4437C587.682 28.5695 590 34.1652 590 40C590 45.8348 587.682 51.4305 583.556 55.5563ZM530.429 44.3214C533.069 43.2263 535.496 41.6168 537.556 39.5563C541.682 35.4305 544 29.8348 544 24C544 22.5381 543.854 21.0911 543.571 19.6786C540.931 20.7737 538.504 22.3832 536.444 24.4436C532.318 28.5695 530 34.1652 530 40C530 41.4619 530.146 42.9089 530.429 44.3214Z" fill="#C704FF"/>
<path fill-rule="evenodd" clip-rule="evenodd" d="M675.556 55.5563C671.431 59.6821 665.835 62 660 62H644C638.165 62 632.569 59.6821 628.444 55.5563C625.836 52.9486 623.951 49.7537 622.916 46.2824C625.904 45.0866 628.651 43.2906 630.971 40.9706C635.471 36.4697 638 30.3652 638 24C638 22.3033 637.82 20.6251 637.472 18.9909C639.567 18.3399 641.766 18 644 18C644.265 18 644.52 17.8946 644.707 17.7071L660.707 1.70711C661.098 1.31658 661.098 0.683417 660.707 0.292892C660.317 -0.0976305 659.683 -0.0976305 659.293 0.292891L643.582 16.0036C641.322 16.0429 639.099 16.4007 636.972 17.0519C635.838 13.3016 633.792 9.85051 630.971 7.02944C626.47 2.52856 620.365 1.14087e-06 614 1.14087e-06H598C591.635 1.14087e-06 585.53 2.52856 581.029 7.02944C576.529 11.5303 574 17.6348 574 24C574 30.3652 576.529 36.4697 581.029 40.9706C585.53 45.4714 591.635 48 598 48C598.552 48 599 47.5523 599 47C599 46.4477 598.552 46 598 46C592.165 46 586.569 43.6821 582.444 39.5563C578.318 35.4305 576 29.8348 576 24C576 18.1652 578.318 12.5695 582.444 8.44365C586.569 4.31785 592.165 2 598 2H614C619.835 2 625.431 4.31785 629.556 8.44365C632.164 11.0513 634.049 14.2463 635.084 17.7176C632.096 18.9134 629.349 20.7094 627.029 23.0294C622.529 27.5303 620 33.6348 620 40C620 41.6967 620.18 43.3749 620.528 45.0091C618.433 45.6601 616.234 46 614 46C613.735 46 613.48 46.1054 613.293 46.2929L597.293 62.2929C596.902 62.6834 596.902 63.3166 597.293 63.7071C597.683 64.0976 598.317 64.0976 598.707 63.7071L614.418 47.9964C616.678 47.9571 618.901 47.5993 621.028 46.9481C622.162 50.6984 624.208 54.1495 627.029 56.9706C631.53 61.4714 637.635 64 644 64H660C666.365 64 672.47 61.4714 676.971 56.9706C681.471 52.4697 684 46.3652 684 40C684 33.6348 681.471 27.5303 676.971 23.0294C672.47 18.5286 666.365 16 660 16C659.448 16 659 16.4477 659 17C659 17.5523 659.448 18 660 18C665.835 18 671.431 20.3179 675.556 24.4437C679.682 28.5695 682 34.1652 682 40C682 45.8348 679.682 51.4305 675.556 55.5563ZM622.429 44.3214C625.069 43.2263 627.496 41.6168 629.556 39.5563C633.682 35.4305 636 29.8348 636 24C636 22.5381 635.854 21.0911 635.571 19.6786C632.931 20.7737 630.504 22.3832 628.444 24.4436C624.318 28.5695 622 34.1652 622 40C622 41.4619 622.146 42.9089 622.429 44.3214Z" fill="#C704FF"/>
<path fill-rule="evenodd" clip-rule="evenodd" d="M767.556 55.5563C763.431 59.6821 757.835 62 752 62H736C730.165 62 724.569 59.6821 720.444 55.5563C717.836 52.9486 715.951 49.7537 714.916 46.2824C717.904 45.0866 720.651 43.2906 722.971 40.9706C727.471 36.4697 730 30.3652 730 24C730 22.3033 729.82 20.6251 729.472 18.9909C731.567 18.3399 733.766 18 736 18C736.265 18 736.52 17.8946 736.707 17.7071L752.707 1.70711C753.098 1.31658 753.098 0.683417 752.707 0.292892C752.317 -0.0976305 751.683 -0.0976305 751.293 0.292891L735.582 16.0036C733.322 16.0429 731.099 16.4007 728.972 17.0519C727.838 13.3016 725.792 9.85051 722.971 7.02944C718.47 2.52856 712.365 1.14087e-06 706 1.14087e-06H690C683.635 1.14087e-06 677.53 2.52856 673.029 7.02944C668.529 11.5303 666 17.6348 666 24C666 30.3652 668.529 36.4697 673.029 40.9706C677.53 45.4714 683.635 48 690 48C690.552 48 691 47.5523 691 47C691 46.4477 690.552 46 690 46C684.165 46 678.569 43.6821 674.444 39.5563C670.318 35.4305 668 29.8348 668 24C668 18.1652 670.318 12.5695 674.444 8.44365C678.569 4.31785 684.165 2 690 2H706C711.835 2 717.431 4.31785 721.556 8.44365C724.164 11.0513 726.049 14.2463 727.084 17.7176C724.096 18.9134 721.349 20.7094 719.029 23.0294C714.529 27.5303 712 33.6348 712 40C712 41.6967 712.18 43.3749 712.528 45.0091C710.433 45.6601 708.234 46 706 46C705.735 46 705.48 46.1054 705.293 46.2929L689.293 62.2929C688.902 62.6834 688.902 63.3166 689.293 63.7071C689.683 64.0976 690.317 64.0976 690.707 63.7071L706.418 47.9964C708.678 47.9571 710.901 47.5993 713.028 46.9481C714.162 50.6984 716.208 54.1495 719.029 56.9706C723.53 61.4714 729.635 64 736 64H752C758.365 64 764.47 61.4714 768.971 56.9706C773.471 52.4697 776 46.3652 776 40C776 33.6348 773.471 27.5303 768.971 23.0294C764.47 18.5286 758.365 16 752 16C751.448 16 751 16.4477 751 17C751 17.5523 751.448 18 752 18C757.835 18 763.431 20.3179 767.556 24.4437C771.682 28.5695 774 34.1652 774 40C774 45.8348 771.682 51.4305 767.556 55.5563ZM714.429 44.3214C717.069 43.2263 719.496 41.6168 721.556 39.5563C725.682 35.4305 728 29.8348 728 24C728 22.5381 727.854 21.0911 727.571 19.6786C724.931 20.7737 722.504 22.3832 720.444 24.4436C716.318 28.5695 714 34.1652 714 40C714 41.4619 714.146 42.9089 714.429 44.3214Z" fill="#C704FF"/>
<path fill-rule="evenodd" clip-rule="evenodd" d="M859.556 55.5563C855.431 59.6821 849.835 62 844 62H828C822.165 62 816.569 59.6821 812.444 55.5563C809.836 52.9486 807.951 49.7537 806.916 46.2824C809.904 45.0866 812.651 43.2906 814.971 40.9706C819.471 36.4697 822 30.3652 822 24C822 22.3033 821.82 20.6251 821.472 18.9909C823.567 18.3399 825.766 18 828 18C828.265 18 828.52 17.8946 828.707 17.7071L844.707 1.70711C845.098 1.31658 845.098 0.683417 844.707 0.292892C844.317 -0.0976305 843.683 -0.0976305 843.293 0.292891L827.582 16.0036C825.322 16.0429 823.099 16.4007 820.972 17.0519C819.838 13.3016 817.792 9.85051 814.971 7.02944C810.47 2.52856 804.365 1.14087e-06 798 1.14087e-06H782C775.635 1.14087e-06 769.53 2.52856 765.029 7.02944C760.529 11.5303 758 17.6348 758 24C758 30.3652 760.529 36.4697 765.029 40.9706C769.53 45.4714 775.635 48 782 48C782.552 48 783 47.5523 783 47C783 46.4477 782.552 46 782 46C776.165 46 770.569 43.6821 766.444 39.5563C762.318 35.4305 760 29.8348 760 24C760 18.1652 762.318 12.5695 766.444 8.44365C770.569 4.31785 776.165 2 782 2H798C803.835 2 809.431 4.31785 813.556 8.44365C816.164 11.0513 818.049 14.2463 819.084 17.7176C816.096 18.9134 813.349 20.7094 811.029 23.0294C806.529 27.5303 804 33.6348 804 40C804 41.6967 804.18 43.3749 804.528 45.0091C802.433 45.6601 800.234 46 798 46C797.735 46 797.48 46.1054 797.293 46.2929L781.293 62.2929C780.902 62.6834 780.902 63.3166 781.293 63.7071C781.683 64.0976 782.317 64.0976 782.707 63.7071L798.418 47.9964C800.678 47.9571 802.901 47.5993 805.028 46.9481C806.162 50.6984 808.208 54.1495 811.029 56.9706C815.53 61.4714 821.635 64 828 64H844C850.365 64 856.47 61.4714 860.971 56.9706C865.471 52.4697 868 46.3652 868 40C868 33.6348 865.471 27.5303 860.971 23.0294C856.47 18.5286 850.365 16 844 16C843.448 16 843 16.4477 843 17C843 17.5523 843.448 18 844 18C849.835 18 855.431 20.3179 859.556 24.4437C863.682 28.5695 866 34.1652 866 40C866 45.8348 863.682 51.4305 859.556 55.5563ZM806.429 44.3214C809.069 43.2263 811.496 41.6168 813.556 39.5563C817.682 35.4305 820 29.8348 820 24C820 22.5381 819.854 21.0911 819.571 19.6786C816.931 20.7737 814.504 22.3832 812.444 24.4436C808.318 28.5695 806 34.1652 806 40C806 41.4619 806.146 42.9089 806.429 44.3214Z" fill="#C704FF"/>
<path fill-rule="evenodd" clip-rule="evenodd" d="M951.556 55.5563C947.431 59.6821 941.835 62 936 62H920C914.165 62 908.569 59.6821 904.444 55.5563C901.836 52.9486 899.951 49.7537 898.916 46.2824C901.904 45.0866 904.651 43.2906 906.971 40.9706C911.471 36.4697 914 30.3652 914 24C914 22.3033 913.82 20.6251 913.472 18.9909C915.567 18.3399 917.766 18 920 18C920.265 18 920.52 17.8946 920.707 17.7071L936.707 1.70711C937.098 1.31658 937.098 0.683417 936.707 0.292892C936.317 -0.0976305 935.683 -0.0976305 935.293 0.292891L919.582 16.0036C917.322 16.0429 915.099 16.4007 912.972 17.0519C911.838 13.3016 909.792 9.85051 906.971 7.02944C902.47 2.52856 896.365 1.14087e-06 890 1.14087e-06H874C867.635 1.14087e-06 861.53 2.52856 857.029 7.02944C852.529 11.5303 850 17.6348 850 24C850 30.3652 852.529 36.4697 857.029 40.9706C861.53 45.4714 867.635 48 874 48C874.552 48 875 47.5523 875 47C875 46.4477 874.552 46 874 46C868.165 46 862.569 43.6821 858.444 39.5563C854.318 35.4305 852 29.8348 852 24C852 18.1652 854.318 12.5695 858.444 8.44365C862.569 4.31785 868.165 2 874 2H890C895.835 2 901.431 4.31785 905.556 8.44365C908.164 11.0513 910.049 14.2463 911.084 17.7176C908.096 18.9134 905.349 20.7094 903.029 23.0294C898.529 27.5303 896 33.6348 896 40C896 41.6967 896.18 43.3749 896.528 45.0091C894.433 45.6601 892.234 46 890 46C889.735 46 889.48 46.1054 889.293 46.2929L873.293 62.2929C872.902 62.6834 872.902 63.3166 873.293 63.7071C873.683 64.0976 874.317 64.0976 874.707 63.7071L890.418 47.9964C892.678 47.9571 894.901 47.5993 897.028 46.9481C898.162 50.6984 900.208 54.1495 903.029 56.9706C907.53 61.4714 913.635 64 920 64H936C942.365 64 948.47 61.4714 952.971 56.9706C957.471 52.4697 960 46.3652 960 40C960 33.6348 957.471 27.5303 952.971 23.0294C948.47 18.5286 942.365 16 936 16C935.448 16 935 16.4477 935 17C935 17.5523 935.448 18 936 18C941.835 18 947.431 20.3179 951.556 24.4437C955.682 28.5695 958 34.1652 958 40C958 45.8348 955.682 51.4305 951.556 55.5563ZM898.429 44.3214C901.069 43.2263 903.496 41.6168 905.556 39.5563C909.682 35.4305 912 29.8348 912 24C912 22.5381 911.854 21.0911 911.571 19.6786C908.931 20.7737 906.504 22.3832 904.444 24.4436C900.318 28.5695 898 34.1652 898 40C898 41.4619 898.146 42.9089 898.429 44.3214Z" fill="#C704FF"/>
<path fill-rule="evenodd" clip-rule="evenodd" d="M1043.56 55.5563C1039.43 59.6821 1033.83 62 1028 62H1012C1006.17 62 1000.57 59.6821 996.444 55.5563C993.836 52.9486 991.951 49.7537 990.916 46.2824C993.904 45.0866 996.651 43.2906 998.971 40.9706C1003.47 36.4697 1006 30.3652 1006 24C1006 22.3033 1005.82 20.6251 1005.47 18.9909C1007.57 18.3399 1009.77 18 1012 18C1012.27 18 1012.52 17.8946 1012.71 17.7071L1028.71 1.70711C1029.1 1.31658 1029.1 0.683417 1028.71 0.292892C1028.32 -0.0976305 1027.68 -0.0976305 1027.29 0.292891L1011.58 16.0036C1009.32 16.0429 1007.1 16.4007 1004.97 17.0519C1003.84 13.3016 1001.79 9.85051 998.971 7.02944C994.47 2.52856 988.365 1.14087e-06 982 1.14087e-06H966C959.635 1.14087e-06 953.53 2.52856 949.029 7.02944C944.529 11.5303 942 17.6348 942 24C942 30.3652 944.529 36.4697 949.029 40.9706C953.53 45.4714 959.635 48 966 48C966.552 48 967 47.5523 967 47C967 46.4477 966.552 46 966 46C960.165 46 954.569 43.6821 950.444 39.5563C946.318 35.4305 944 29.8348 944 24C944 18.1652 946.318 12.5695 950.444 8.44365C954.569 4.31785 960.165 2 966 2H982C987.835 2 993.431 4.31785 997.556 8.44365C1000.16 11.0513 1002.05 14.2463 1003.08 17.7176C1000.1 18.9134 997.349 20.7094 995.029 23.0294C990.529 27.5303 988 33.6348 988 40C988 41.6967 988.18 43.3749 988.528 45.0091C986.433 45.6601 984.234 46 982 46C981.735 46 981.48 46.1054 981.293 46.2929L965.293 62.2929C964.902 62.6834 964.902 63.3166 965.293 63.7071C965.683 64.0976 966.317 64.0976 966.707 63.7071L982.418 47.9964C984.678 47.9571 986.901 47.5993 989.028 46.9481C990.162 50.6984 992.208 54.1495 995.029 56.9706C999.53 61.4714 1005.63 64 1012 64H1028C1034.37 64 1040.47 61.4714 1044.97 56.9706C1049.47 52.4697 1052 46.3652 1052 40C1052 33.6348 1049.47 27.5303 1044.97 23.0294C1040.47 18.5286 1034.37 16 1028 16C1027.45 16 1027 16.4477 1027 17C1027 17.5523 1027.45 18 1028 18C1033.83 18 1039.43 20.3179 1043.56 24.4437C1047.68 28.5695 1050 34.1652 1050 40C1050 45.8348 1047.68 51.4305 1043.56 55.5563ZM990.429 44.3214C993.069 43.2263 995.496 41.6168 997.556 39.5563C1001.68 35.4305 1004 29.8348 1004 24C1004 22.5381 1003.85 21.0911 1003.57 19.6786C1000.93 20.7737 998.504 22.3832 996.444 24.4436C992.318 28.5695 990 34.1652 990 40C990 41.4619 990.146 42.9089 990.429 44.3214Z" fill="#C704FF"/>
<path fill-rule="evenodd" clip-rule="evenodd" d="M1135.56 55.5563C1131.43 59.6821 1125.83 62 1120 62H1104C1098.17 62 1092.57 59.6821 1088.44 55.5563C1085.84 52.9486 1083.95 49.7537 1082.92 46.2824C1085.9 45.0866 1088.65 43.2906 1090.97 40.9706C1095.47 36.4697 1098 30.3652 1098 24C1098 22.3033 1097.82 20.6251 1097.47 18.9909C1099.57 18.3399 1101.77 18 1104 18C1104.27 18 1104.52 17.8946 1104.71 17.7071L1120.71 1.70711C1121.1 1.31658 1121.1 0.683417 1120.71 0.292892C1120.32 -0.0976305 1119.68 -0.0976305 1119.29 0.292891L1103.58 16.0036C1101.32 16.0429 1099.1 16.4007 1096.97 17.0519C1095.84 13.3016 1093.79 9.85051 1090.97 7.02944C1086.47 2.52856 1080.37 1.14087e-06 1074 1.14087e-06H1058C1051.63 1.14087e-06 1045.53 2.52856 1041.03 7.02944C1036.53 11.5303 1034 17.6348 1034 24C1034 30.3652 1036.53 36.4697 1041.03 40.9706C1045.53 45.4714 1051.63 48 1058 48C1058.55 48 1059 47.5523 1059 47C1059 46.4477 1058.55 46 1058 46C1052.17 46 1046.57 43.6821 1042.44 39.5563C1038.32 35.4305 1036 29.8348 1036 24C1036 18.1652 1038.32 12.5695 1042.44 8.44365C1046.57 4.31785 1052.17 2 1058 2H1074C1079.83 2 1085.43 4.31785 1089.56 8.44365C1092.16 11.0513 1094.05 14.2463 1095.08 17.7176C1092.1 18.9134 1089.35 20.7094 1087.03 23.0294C1082.53 27.5303 1080 33.6348 1080 40C1080 41.6967 1080.18 43.3749 1080.53 45.0091C1078.43 45.6601 1076.23 46 1074 46C1073.73 46 1073.48 46.1054 1073.29 46.2929L1057.29 62.2929C1056.9 62.6834 1056.9 63.3166 1057.29 63.7071C1057.68 64.0976 1058.32 64.0976 1058.71 63.7071L1074.42 47.9964C1076.68 47.9571 1078.9 47.5993 1081.03 46.9481C1082.16 50.6984 1084.21 54.1495 1087.03 56.9706C1091.53 61.4714 1097.63 64 1104 64H1120C1126.37 64 1132.47 61.4714 1136.97 56.9706C1141.47 52.4697 1144 46.3652 1144 40C1144 33.6348 1141.47 27.5303 1136.97 23.0294C1132.47 18.5286 1126.37 16 1120 16C1119.45 16 1119 16.4477 1119 17C1119 17.5523 1119.45 18 1120 18C1125.83 18 1131.43 20.3179 1135.56 24.4437C1139.68 28.5695 1142 34.1652 1142 40C1142 45.8348 1139.68 51.4305 1135.56 55.5563ZM1082.43 44.3214C1085.07 43.2263 1087.5 41.6168 1089.56 39.5563C1093.68 35.4305 1096 29.8348 1096 24C1096 22.5381 1095.85 21.0911 1095.57 19.6786C1092.93 20.7737 1090.5 22.3832 1088.44 24.4436C1084.32 28.5695 1082 34.1652 1082 40C1082 41.4619 1082.15 42.9089 1082.43 44.3214Z" fill="#C704FF"/>
<path fill-rule="evenodd" clip-rule="evenodd" d="M1227.56 55.5563C1223.43 59.6821 1217.83 62 1212 62H1196C1190.17 62 1184.57 59.6821 1180.44 55.5563C1177.84 52.9486 1175.95 49.7537 1174.92 46.2824C1177.9 45.0866 1180.65 43.2906 1182.97 40.9706C1187.47 36.4697 1190 30.3652 1190 24C1190 22.3033 1189.82 20.6251 1189.47 18.9909C1191.57 18.3399 1193.77 18 1196 18C1196.27 18 1196.52 17.8946 1196.71 17.7071L1212.71 1.70711C1213.1 1.31658 1213.1 0.683417 1212.71 0.292892C1212.32 -0.0976305 1211.68 -0.0976305 1211.29 0.292891L1195.58 16.0036C1193.32 16.0429 1191.1 16.4007 1188.97 17.0519C1187.84 13.3016 1185.79 9.85051 1182.97 7.02944C1178.47 2.52856 1172.37 1.14087e-06 1166 1.14087e-06H1150C1143.63 1.14087e-06 1137.53 2.52856 1133.03 7.02944C1128.53 11.5303 1126 17.6348 1126 24C1126 30.3652 1128.53 36.4697 1133.03 40.9706C1137.53 45.4714 1143.63 48 1150 48C1150.55 48 1151 47.5523 1151 47C1151 46.4477 1150.55 46 1150 46C1144.17 46 1138.57 43.6821 1134.44 39.5563C1130.32 35.4305 1128 29.8348 1128 24C1128 18.1652 1130.32 12.5695 1134.44 8.44365C1138.57 4.31785 1144.17 2 1150 2H1166C1171.83 2 1177.43 4.31785 1181.56 8.44365C1184.16 11.0513 1186.05 14.2463 1187.08 17.7176C1184.1 18.9134 1181.35 20.7094 1179.03 23.0294C1174.53 27.5303 1172 33.6348 1172 40C1172 41.6967 1172.18 43.3749 1172.53 45.0091C1170.43 45.6601 1168.23 46 1166 46C1165.73 46 1165.48 46.1054 1165.29 46.2929L1149.29 62.2929C1148.9 62.6834 1148.9 63.3166 1149.29 63.7071C1149.68 64.0976 1150.32 64.0976 1150.71 63.7071L1166.42 47.9964C1168.68 47.9571 1170.9 47.5993 1173.03 46.9481C1174.16 50.6984 1176.21 54.1495 1179.03 56.9706C1183.53 61.4714 1189.63 64 1196 64H1212C1218.37 64 1224.47 61.4714 1228.97 56.9706C1233.47 52.4697 1236 46.3652 1236 40C1236 33.6348 1233.47 27.5303 1228.97 23.0294C1224.47 18.5286 1218.37 16 1212 16C1211.45 16 1211 16.4477 1211 17C1211 17.5523 1211.45 18 1212 18C1217.83 18 1223.43 20.3179 1227.56 24.4437C1231.68 28.5695 1234 34.1652 1234 40C1234 45.8348 1231.68 51.4305 1227.56 55.5563ZM1174.43 44.3214C1177.07 43.2263 1179.5 41.6168 1181.56 39.5563C1185.68 35.4305 1188 29.8348 1188 24C1188 22.5381 1187.85 21.0911 1187.57 19.6786C1184.93 20.7737 1182.5 22.3832 1180.44 24.4436C1176.32 28.5695 1174 34.1652 1174 40C1174 41.4619 1174.15 42.9089 1174.43 44.3214Z" fill="#C704FF"/>
<path fill-rule="evenodd" clip-rule="evenodd" d="M1319.56 55.5563C1315.43 59.6821 1309.83 62 1304 62H1288C1282.17 62 1276.57 59.6821 1272.44 55.5563C1269.84 52.9486 1267.95 49.7537 1266.92 46.2824C1269.9 45.0866 1272.65 43.2906 1274.97 40.9706C1279.47 36.4697 1282 30.3652 1282 24C1282 22.3033 1281.82 20.6251 1281.47 18.9909C1283.57 18.3399 1285.77 18 1288 18C1288.27 18 1288.52 17.8946 1288.71 17.7071L1304.71 1.70711C1305.1 1.31658 1305.1 0.683417 1304.71 0.292892C1304.32 -0.0976305 1303.68 -0.0976305 1303.29 0.292891L1287.58 16.0036C1285.32 16.0429 1283.1 16.4007 1280.97 17.0519C1279.84 13.3016 1277.79 9.85051 1274.97 7.02944C1270.47 2.52856 1264.37 1.14087e-06 1258 1.14087e-06H1242C1235.63 1.14087e-06 1229.53 2.52856 1225.03 7.02944C1220.53 11.5303 1218 17.6348 1218 24C1218 30.3652 1220.53 36.4697 1225.03 40.9706C1229.53 45.4714 1235.63 48 1242 48C1242.55 48 1243 47.5523 1243 47C1243 46.4477 1242.55 46 1242 46C1236.17 46 1230.57 43.6821 1226.44 39.5563C1222.32 35.4305 1220 29.8348 1220 24C1220 18.1652 1222.32 12.5695 1226.44 8.44365C1230.57 4.31785 1236.17 2 1242 2H1258C1263.83 2 1269.43 4.31785 1273.56 8.44365C1276.16 11.0513 1278.05 14.2463 1279.08 17.7176C1276.1 18.9134 1273.35 20.7094 1271.03 23.0294C1266.53 27.5303 1264 33.6348 1264 40C1264 41.6967 1264.18 43.3749 1264.53 45.0091C1262.43 45.6601 1260.23 46 1258 46C1257.73 46 1257.48 46.1054 1257.29 46.2929L1241.29 62.2929C1240.9 62.6834 1240.9 63.3166 1241.29 63.7071C1241.68 64.0976 1242.32 64.0976 1242.71 63.7071L1258.42 47.9964C1260.68 47.9571 1262.9 47.5993 1265.03 46.9481C1266.16 50.6984 1268.21 54.1495 1271.03 56.9706C1275.53 61.4714 1281.63 64 1288 64H1304C1310.37 64 1316.47 61.4714 1320.97 56.9706C1325.47 52.4697 1328 46.3652 1328 40C1328 33.6348 1325.47 27.5303 1320.97 23.0294C1316.47 18.5286 1310.37 16 1304 16C1303.45 16 1303 16.4477 1303 17C1303 17.5523 1303.45 18 1304 18C1309.83 18 1315.43 20.3179 1319.56 24.4437C1323.68 28.5695 1326 34.1652 1326 40C1326 45.8348 1323.68 51.4305 1319.56 55.5563ZM1266.43 44.3214C1269.07 43.2263 1271.5 41.6168 1273.56 39.5563C1277.68 35.4305 1280 29.8348 1280 24C1280 22.5381 1279.85 21.0911 1279.57 19.6786C1276.93 20.7737 1274.5 22.3832 1272.44 24.4436C1268.32 28.5695 1266 34.1652 1266 40C1266 41.4619 1266.15 42.9089 1266.43 44.3214Z" fill="#C704FF"/>
<path fill-rule="evenodd" clip-rule="evenodd" d="M1410.56 55.5563C1406.43 59.6821 1400.83 62 1395 62H1379C1373.17 62 1367.57 59.6821 1363.44 55.5563C1360.84 52.9486 1358.95 49.7537 1357.92 46.2824C1360.9 45.0866 1363.65 43.2906 1365.97 40.9706C1370.47 36.4697 1373 30.3652 1373 24C1373 22.3033 1372.82 20.6251 1372.47 18.9909C1374.57 18.3399 1376.77 18 1379 18C1379.27 18 1379.52 17.8946 1379.71 17.7071L1395.71 1.70711C1396.1 1.31658 1396.1 0.683417 1395.71 0.292892C1395.32 -0.0976305 1394.68 -0.0976305 1394.29 0.292891L1378.58 16.0036C1376.32 16.0429 1374.1 16.4007 1371.97 17.0519C1370.84 13.3016 1368.79 9.85051 1365.97 7.02944C1361.47 2.52856 1355.37 1.14087e-06 1349 1.14087e-06H1333C1326.63 1.14087e-06 1320.53 2.52856 1316.03 7.02944C1311.53 11.5303 1309 17.6348 1309 24C1309 30.3652 1311.53 36.4697 1316.03 40.9706C1320.53 45.4714 1326.63 48 1333 48C1333.55 48 1334 47.5523 1334 47C1334 46.4477 1333.55 46 1333 46C1327.17 46 1321.57 43.6821 1317.44 39.5563C1313.32 35.4305 1311 29.8348 1311 24C1311 18.1652 1313.32 12.5695 1317.44 8.44365C1321.57 4.31785 1327.17 2 1333 2H1349C1354.83 2 1360.43 4.31785 1364.56 8.44365C1367.16 11.0513 1369.05 14.2463 1370.08 17.7176C1367.1 18.9134 1364.35 20.7094 1362.03 23.0294C1357.53 27.5303 1355 33.6348 1355 40C1355 41.6967 1355.18 43.3749 1355.53 45.0091C1353.43 45.6601 1351.23 46 1349 46C1348.73 46 1348.48 46.1054 1348.29 46.2929L1332.29 62.2929C1331.9 62.6834 1331.9 63.3166 1332.29 63.7071C1332.68 64.0976 1333.32 64.0976 1333.71 63.7071L1349.42 47.9964C1351.68 47.9571 1353.9 47.5993 1356.03 46.9481C1357.16 50.6984 1359.21 54.1495 1362.03 56.9706C1366.53 61.4714 1372.63 64 1379 64H1395C1401.37 64 1407.47 61.4714 1411.97 56.9706C1416.47 52.4697 1419 46.3652 1419 40C1419 33.6348 1416.47 27.5303 1411.97 23.0294C1407.47 18.5286 1401.37 16 1395 16C1394.45 16 1394 16.4477 1394 17C1394 17.5523 1394.45 18 1395 18C1400.83 18 1406.43 20.3179 1410.56 24.4437C1414.68 28.5695 1417 34.1652 1417 40C1417 45.8348 1414.68 51.4305 1410.56 55.5563ZM1357.43 44.3214C1360.07 43.2263 1362.5 41.6168 1364.56 39.5563C1368.68 35.4305 1371 29.8348 1371 24C1371 22.5381 1370.85 21.0911 1370.57 19.6786C1367.93 20.7737 1365.5 22.3832 1363.44 24.4436C1359.32 28.5695 1357 34.1652 1357 40C1357 41.4619 1357.15 42.9089 1357.43 44.3214Z" fill="#C704FF"/>
<path fill-rule="evenodd" clip-rule="evenodd" d="M1502.56 55.5563C1498.43 59.6821 1492.83 62 1487 62H1471C1465.17 62 1459.57 59.6821 1455.44 55.5563C1452.84 52.9486 1450.95 49.7537 1449.92 46.2824C1452.9 45.0866 1455.65 43.2906 1457.97 40.9706C1462.47 36.4697 1465 30.3652 1465 24C1465 22.3033 1464.82 20.6251 1464.47 18.9909C1466.57 18.3399 1468.77 18 1471 18C1471.27 18 1471.52 17.8946 1471.71 17.7071L1487.71 1.70711C1488.1 1.31658 1488.1 0.683417 1487.71 0.292892C1487.32 -0.0976305 1486.68 -0.0976305 1486.29 0.292891L1470.58 16.0036C1468.32 16.0429 1466.1 16.4007 1463.97 17.0519C1462.84 13.3016 1460.79 9.85051 1457.97 7.02944C1453.47 2.52856 1447.37 1.14087e-06 1441 1.14087e-06H1425C1418.63 1.14087e-06 1412.53 2.52856 1408.03 7.02944C1403.53 11.5303 1401 17.6348 1401 24C1401 30.3652 1403.53 36.4697 1408.03 40.9706C1412.53 45.4714 1418.63 48 1425 48C1425.55 48 1426 47.5523 1426 47C1426 46.4477 1425.55 46 1425 46C1419.17 46 1413.57 43.6821 1409.44 39.5563C1405.32 35.4305 1403 29.8348 1403 24C1403 18.1652 1405.32 12.5695 1409.44 8.44365C1413.57 4.31785 1419.17 2 1425 2H1441C1446.83 2 1452.43 4.31785 1456.56 8.44365C1459.16 11.0513 1461.05 14.2463 1462.08 17.7176C1459.1 18.9134 1456.35 20.7094 1454.03 23.0294C1449.53 27.5303 1447 33.6348 1447 40C1447 41.6967 1447.18 43.3749 1447.53 45.0091C1445.43 45.6601 1443.23 46 1441 46C1440.73 46 1440.48 46.1054 1440.29 46.2929L1424.29 62.2929C1423.9 62.6834 1423.9 63.3166 1424.29 63.7071C1424.68 64.0976 1425.32 64.0976 1425.71 63.7071L1441.42 47.9964C1443.68 47.9571 1445.9 47.5993 1448.03 46.9481C1449.16 50.6984 1451.21 54.1495 1454.03 56.9706C1458.53 61.4714 1464.63 64 1471 64H1487C1493.37 64 1499.47 61.4714 1503.97 56.9706C1508.47 52.4697 1511 46.3652 1511 40C1511 33.6348 1508.47 27.5303 1503.97 23.0294C1499.47 18.5286 1493.37 16 1487 16C1486.45 16 1486 16.4477 1486 17C1486 17.5523 1486.45 18 1487 18C1492.83 18 1498.43 20.3179 1502.56 24.4437C1506.68 28.5695 1509 34.1652 1509 40C1509 45.8348 1506.68 51.4305 1502.56 55.5563ZM1449.43 44.3214C1452.07 43.2263 1454.5 41.6168 1456.56 39.5563C1460.68 35.4305 1463 29.8348 1463 24C1463 22.5381 1462.85 21.0911 1462.57 19.6786C1459.93 20.7737 1457.5 22.3832 1455.44 24.4436C1451.32 28.5695 1449 34.1652 1449 40C1449 41.4619 1449.15 42.9089 1449.43 44.3214Z" fill="#C704FF"/>
</svg>
