<svg xmlns="http://www.w3.org/2000/svg" viewBox="0 0 1232 64"><defs><style>.cls-1{fill:#c704ff;}</style></defs><title>Asset 8</title><g id="Layer_2" data-name="Layer 2"><g id="Layer_1-2" data-name="Layer 1"><path class="cls-1" d="M385.3,31.28l-32,31,1.4,1.44,32-31Zm-32-29.56,32,31,1.4-1.44-32-31Zm0,60.56a1,1,0,0,0,1.4,1.44ZM386,32l.7.72a1,1,0,0,0,0-1.44ZM354.7.28a1,1,0,0,0-1.42,0,1,1,0,0,0,0,1.42Z"/><path class="cls-1" d="M421,31.28l-32,31,1.4,1.44,32-31ZM389,1.72l32,31,1.4-1.44-32-31Zm0,60.56a1,1,0,0,0,1.4,1.44ZM421.67,32l.7.72a1,1,0,0,0,0-1.44ZM390.37.28A1,1,0,0,0,389,.3a1,1,0,0,0,0,1.42Z"/><path class="cls-1" d="M456.63,31.28l-32,31,1.4,1.44,32-31Zm-32-29.56,32,31,1.4-1.44-32-31Zm0,60.56a1,1,0,0,0,1.4,1.44ZM457.33,32l.7.72a1,1,0,0,0,0-1.44ZM426,.28a1,1,0,0,0-1.42,0,1,1,0,0,0,0,1.42Z"/><path class="cls-1" d="M492.3,31.28l-32,31,1.4,1.44,32-31Zm-32-29.56,32,31,1.4-1.44-32-31Zm0,60.56a1,1,0,0,0,1.4,1.44ZM493,32l.7.72a1,1,0,0,0,0-1.44ZM461.7.28a1,1,0,0,0-1.42,0,1,1,0,0,0,0,1.42Z"/><path class="cls-1" d="M32.3,31.28l-32,31,1.4,1.44,32-31ZM.3,1.72l32,31,1.4-1.44L1.7.28Zm0,60.56a1,1,0,0,0,0,1.42,1,1,0,0,0,1.42,0ZM33,32l.7.72a1,1,0,0,0,0-1.44ZM1.7.28A1,1,0,0,0,.28.3a1,1,0,0,0,0,1.42Z"/><path class="cls-1" d="M68,31.28l-32,31,1.4,1.44,32-31ZM36,1.72l32,31,1.4-1.44-32-31Zm0,60.56a1,1,0,0,0,1.4,1.44ZM68.67,32l.7.72a1,1,0,0,0,0-1.44ZM37.37.28A1,1,0,0,0,36,.3a1,1,0,0,0,0,1.42Z"/><path class="cls-1" d="M103.63,31.28l-32,31L73,63.72l32-31Zm-32-29.56,32,31,1.4-1.44L73,.28Zm0,60.56A1,1,0,1,0,73,63.72ZM104.33,32l.7.72a1,1,0,0,0,0-1.44ZM73,.28a1,1,0,0,0-1.42,0,1,1,0,0,0,0,1.42Z"/><path class="cls-1" d="M139.3,31.28l-32,31,1.4,1.44,32-31Zm-32-29.56,32,31,1.4-1.44-32-31Zm0,60.56a1,1,0,1,0,1.4,1.44ZM140,32l.7.72a1,1,0,0,0,0-1.44ZM108.7.28a1,1,0,0,0-1.42,0,1,1,0,0,0,0,1.42Z"/><path class="cls-1" d="M175,31.28l-32,31,1.4,1.44,32-31ZM143,1.72l32,31,1.4-1.44-32-31Zm0,60.56a1,1,0,0,0,1.4,1.44ZM175.67,32l.7.72a1,1,0,0,0,0-1.44ZM144.37.28A1,1,0,0,0,143,.3a1,1,0,0,0,0,1.42Z"/><path class="cls-1" d="M210.63,31.28l-32,31,1.4,1.44,32-31Zm-32-29.56,32,31,1.4-1.44-32-31Zm0,60.56a1,1,0,0,0,1.4,1.44ZM211.33,32l.7.72a1,1,0,0,0,0-1.44ZM180,.28a1,1,0,0,0-1.42,0,1,1,0,0,0,0,1.42Z"/><path class="cls-1" d="M246.3,31.28l-32,31,1.4,1.44,32-31Zm-32-29.56,32,31,1.4-1.44-32-31Zm0,60.56a1,1,0,0,0,1.4,1.44ZM247,32l.7.72a1,1,0,0,0,0-1.44ZM215.7.28a1,1,0,0,0-1.42,0,1,1,0,0,0,0,1.42Z"/><path class="cls-1" d="M282,31.28l-32,31,1.4,1.44,32-31ZM250,1.72l32,31,1.4-1.44-32-31Zm0,60.56a1,1,0,0,0,1.4,1.44ZM282.67,32l.7.72a1,1,0,0,0,0-1.44ZM251.37.28A1,1,0,0,0,250,.3a1,1,0,0,0,0,1.42Z"/><path class="cls-1" d="M317.63,31.28l-32,31,1.4,1.44,32-31Zm-32-29.56,32,31,1.4-1.44-32-31Zm0,60.56a1,1,0,0,0,1.4,1.44ZM318.33,32l.7.72a1,1,0,0,0,0-1.44ZM287,.28a1,1,0,0,0-1.42,0,1,1,0,0,0,0,1.42Z"/><path class="cls-1" d="M353.3,31.28l-32,31,1.4,1.44,32-31Zm-32-29.56,32,31,1.4-1.44-32-31Zm0,60.56a1,1,0,0,0,1.4,1.44ZM354,32l.7.72a1,1,0,0,0,0-1.44ZM322.7.28a1,1,0,0,0-1.42,0,1,1,0,0,0,0,1.42Z"/><path class="cls-1" d="M877.31,31.28l-32,31,1.4,1.44,32-31Zm-32-29.56,32,31,1.4-1.44-32-31Zm0,60.56a1,1,0,0,0,1.4,1.44ZM878,32l.7.72a1,1,0,0,0,0-1.44ZM846.71.28a1,1,0,0,0-1.42,0,1,1,0,0,0,0,1.42Z"/><path class="cls-1" d="M913,31.28l-32,31,1.4,1.44,32-31ZM881,1.72l32,31,1.4-1.44-32-31Zm0,60.56a1,1,0,1,0,1.4,1.44ZM913.68,32l.7.72a1,1,0,0,0,0-1.44ZM882.38.28A1,1,0,0,0,881,.3a1,1,0,0,0,0,1.42Z"/><path class="cls-1" d="M948.64,31.28l-32,31,1.4,1.44,32-31Zm-32-29.56,32,31,1.4-1.44-32-31Zm0,60.56a1,1,0,1,0,1.4,1.44ZM949.34,32l.7.72a1,1,0,0,0,0-1.44ZM918,.28a1,1,0,0,0-1.42,0,1,1,0,0,0,0,1.42Z"/><path class="cls-1" d="M984.31,31.28l-32,31,1.4,1.44,32-31Zm-32-29.56,32,31,1.4-1.44-32-31Zm0,60.56a1,1,0,0,0,1.4,1.44ZM985,32l.7.72a1,1,0,0,0,0-1.44ZM953.71.28a1,1,0,0,0-1.42,0,1,1,0,0,0,0,1.42Z"/><path class="cls-1" d="M524.31,31.28l-32,31,1.4,1.44,32-31Zm-32-29.56,32,31,1.4-1.44-32-31Zm0,60.56a1,1,0,1,0,1.4,1.44ZM525,32l.7.72a1,1,0,0,0,0-1.44ZM493.71.28a1,1,0,0,0-1.42,0,1,1,0,0,0,0,1.42Z"/><path class="cls-1" d="M560,31.28l-32,31,1.4,1.44,32-31ZM528,1.72l32,31,1.4-1.44-32-31Zm0,60.56a1,1,0,1,0,1.4,1.44ZM560.68,32l.7.72a1,1,0,0,0,0-1.44ZM529.38.28A1,1,0,0,0,528,.3a1,1,0,0,0,0,1.42Z"/><path class="cls-1" d="M595.64,31.28l-32,31,1.4,1.44,32-31Zm-32-29.56,32,31,1.4-1.44-32-31Zm0,60.56a1,1,0,1,0,1.4,1.44ZM596.34,32l.7.72a1,1,0,0,0,0-1.44ZM565,.28a1,1,0,0,0-1.42,0,1,1,0,0,0,0,1.42Z"/><path class="cls-1" d="M631.31,31.28l-32,31,1.4,1.44,32-31Zm-32-29.56,32,31,1.4-1.44-32-31Zm0,60.56a1,1,0,0,0,1.4,1.44ZM632,32l.7.72a1,1,0,0,0,0-1.44ZM600.71.28a1,1,0,0,0-1.42,0,1,1,0,0,0,0,1.42Z"/><path class="cls-1" d="M667,31.28l-32,31,1.4,1.44,32-31ZM635,1.72l32,31,1.4-1.44-32-31Zm0,60.56a1,1,0,1,0,1.4,1.44ZM667.68,32l.7.72a1,1,0,0,0,0-1.44ZM636.38.28A1,1,0,0,0,635,.3a1,1,0,0,0,0,1.42Z"/><path class="cls-1" d="M702.64,31.28l-32,31,1.4,1.44,32-31Zm-32-29.56,32,31,1.4-1.44-32-31Zm0,60.56a1,1,0,1,0,1.4,1.44ZM703.34,32l.7.72a1,1,0,0,0,0-1.44ZM672,.28a1,1,0,0,0-1.42,0,1,1,0,0,0,0,1.42Z"/><path class="cls-1" d="M738.31,31.28l-32,31,1.4,1.44,32-31Zm-32-29.56,32,31,1.4-1.44-32-31Zm0,60.56a1,1,0,0,0,1.4,1.44ZM739,32l.7.72a1,1,0,0,0,0-1.44ZM707.71.28a1,1,0,0,0-1.42,0,1,1,0,0,0,0,1.42Z"/><path class="cls-1" d="M774,31.28l-32,31,1.4,1.44,32-31ZM742,1.72l32,31,1.4-1.44-32-31Zm0,60.56a1,1,0,1,0,1.4,1.44ZM774.68,32l.7.72a1,1,0,0,0,0-1.44ZM743.38.28A1,1,0,0,0,742,.3a1,1,0,0,0,0,1.42Z"/><path class="cls-1" d="M809.64,31.28l-32,31,1.4,1.44,32-31Zm-32-29.56,32,31,1.4-1.44-32-31Zm0,60.56a1,1,0,1,0,1.4,1.44ZM810.34,32l.7.72a1,1,0,0,0,0-1.44ZM779,.28a1,1,0,0,0-1.42,0,1,1,0,0,0,0,1.42Z"/><path class="cls-1" d="M845.31,31.28l-32,31,1.4,1.44,32-31Zm-32-29.56,32,31,1.4-1.44-32-31Zm0,60.56a1,1,0,0,0,1.4,1.44ZM846,32l.7.72a1,1,0,0,0,0-1.44ZM814.71.28a1,1,0,0,0-1.42,0,1,1,0,0,0,0,1.42Z"/><path class="cls-1" d="M1087.64,31.28l-32,31,1.4,1.44,32-31Zm-32-29.56,32,31,1.4-1.44-32-31Zm0,60.56a1,1,0,0,0,1.4,1.44ZM1088.34,32l.7.72a1,1,0,0,0,0-1.44ZM1057,.28a1,1,0,0,0-1.42,0,1,1,0,0,0,0,1.42Z"/><path class="cls-1" d="M1123.31,31.28l-32,31,1.4,1.44,32-31Zm-32-29.56,32,31,1.4-1.44-32-31Zm0,60.56a1,1,0,0,0,1.4,1.44ZM1124,32l.7.72a1,1,0,0,0,0-1.44ZM1092.71.28a1,1,0,0,0-1.42,0,1,1,0,0,0,0,1.42Z"/><path class="cls-1" d="M1159,31.28l-32,31,1.4,1.44,32-31ZM1127,1.72l32,31,1.4-1.44-32-31Zm0,60.56a1,1,0,0,0,1.4,1.44ZM1159.67,32l.7.72a1,1,0,0,0,0-1.44ZM1128.37.28a1,1,0,0,0-1.42,0,1,1,0,0,0,0,1.42Z"/><path class="cls-1" d="M1194.64,31.28l-32,31,1.4,1.44,32-31Zm-32-29.56,32,31,1.4-1.44-32-31Zm0,60.56a1,1,0,0,0,1.4,1.44ZM1195.34,32l.7.72a1,1,0,0,0,0-1.44ZM1164,.28a1,1,0,0,0-1.42,0,1,1,0,0,0,0,1.42Z"/><path class="cls-1" d="M1020,31.28l-32,31,1.4,1.44,32-31ZM988,1.72l32,31,1.4-1.44-32-31Zm0,60.56a1,1,0,1,0,1.4,1.44ZM1020.67,32l.7.72a1,1,0,0,0,0-1.44ZM989.37.28A1,1,0,0,0,988,.3a1,1,0,0,0,0,1.42Z"/><path class="cls-1" d="M1055.64,31.28l-32,31,1.4,1.44,32-31Zm-32-29.56,32,31,1.4-1.44-32-31Zm0,60.56a1,1,0,1,0,1.4,1.44ZM1056.34,32l.7.72a1,1,0,0,0,0-1.44ZM1025,.28a1,1,0,0,0-1.42,0,1,1,0,0,0,0,1.42Z"/><path class="cls-1" d="M1230.3,31.28l-32,31,1.4,1.44,32-31Zm-32-29.56,32,31,1.4-1.44-32-31Zm0,60.56a1,1,0,0,0,1.4,1.44ZM1231,32l.7.72a1,1,0,0,0,0-1.44ZM1199.7.28a1,1,0,0,0-1.42,0,1,1,0,0,0,0,1.42Z"/></g></g></svg>